<svg width="78" height="78" viewBox="0 0 78 78" fill="none" xmlns="http://www.w3.org/2000/svg">
<g filter="url(#filter0_dd_670_5753)">
<circle cx="39" cy="33" r="25" fill="#FFFFF3"/>
</g>
<path d="M54.625 33C54.625 33.4973 54.4275 33.9742 54.0758 34.3258C53.7242 34.6775 53.2473 34.875 52.75 34.875H40.875V46.75C40.875 47.2473 40.6775 47.7242 40.3258 48.0758C39.9742 48.4275 39.4973 48.625 39 48.625C38.5027 48.625 38.0258 48.4275 37.6742 48.0758C37.3225 47.7242 37.125 47.2473 37.125 46.75V34.875H25.25C24.7527 34.875 24.2758 34.6775 23.9242 34.3258C23.5725 33.9742 23.375 33.4973 23.375 33C23.375 32.5027 23.5725 32.0258 23.9242 31.6742C24.2758 31.3225 24.7527 31.125 25.25 31.125H37.125V19.25C37.125 18.7527 37.3225 18.2758 37.6742 17.9242C38.0258 17.5725 38.5027 17.375 39 17.375C39.4973 17.375 39.9742 17.5725 40.3258 17.9242C40.6775 18.2758 40.875 18.7527 40.875 19.25V31.125H52.75C53.2473 31.125 53.7242 31.3225 54.0758 31.6742C54.4275 32.0258 54.625 32.5027 54.625 33Z" fill="black"/>
<defs>
<filter id="filter0_dd_670_5753" x="0" y="0" width="78" height="78" filterUnits="userSpaceOnUse" color-interpolation-filters="sRGB">
<feFlood flood-opacity="0" result="BackgroundImageFix"/>
<feColorMatrix in="SourceAlpha" type="matrix" values="0 0 0 0 0 0 0 0 0 0 0 0 0 0 0 0 0 0 127 0" result="hardAlpha"/>
<feOffset dy="2"/>
<feGaussianBlur stdDeviation="1.5"/>
<feColorMatrix type="matrix" values="0 0 0 0 0 0 0 0 0 0 0 0 0 0 0 0 0 0 0.3 0"/>
<feBlend mode="normal" in2="BackgroundImageFix" result="effect1_dropShadow_670_5753"/>
<feColorMatrix in="SourceAlpha" type="matrix" values="0 0 0 0 0 0 0 0 0 0 0 0 0 0 0 0 0 0 127 0" result="hardAlpha"/>
<feMorphology radius="4" operator="dilate" in="SourceAlpha" result="effect2_dropShadow_670_5753"/>
<feOffset dy="6"/>
<feGaussianBlur stdDeviation="5"/>
<feColorMatrix type="matrix" values="0 0 0 0 0 0 0 0 0 0 0 0 0 0 0 0 0 0 0.15 0"/>
<feBlend mode="normal" in2="effect1_dropShadow_670_5753" result="effect2_dropShadow_670_5753"/>
<feBlend mode="normal" in="SourceGraphic" in2="effect2_dropShadow_670_5753" result="shape"/>
</filter>
</defs>
</svg>
