<svg width="50" height="50" viewBox="0 0 50 50" fill="none" xmlns="http://www.w3.org/2000/svg">
<path d="M43.955 41.3C47.8629 36.7694 50.0088 30.9831 50 25C50.0088 19.0169 47.8629 13.2306 43.955 8.70002L33.2725 19.38C34.3625 20.98 35 22.915 35 25C35 27.085 34.3625 29.02 33.2725 30.62L43.955 41.3ZM41.3 43.955C36.7694 47.8629 30.9831 50.0088 25 50C19.0169 50.0088 13.2306 47.8629 8.70002 43.955L19.38 33.2725C20.98 34.3625 22.915 35 25 35C27.085 35 29.02 34.3625 30.62 33.2725L41.3 43.955ZM6.04502 41.3L16.7275 30.62C15.6015 28.9621 14.9997 27.0041 15 25C15 22.915 15.6375 20.9825 16.7275 19.38L6.04502 8.69752C2.13657 13.2288 -0.00935152 19.016 3.06349e-05 25C-0.00875051 30.9831 2.13713 36.7694 6.04502 41.3ZM25 15C22.915 15 20.9825 15.6375 19.38 16.7275L8.69752 6.04502C13.2288 2.13657 19.016 -0.00935152 25 3.06349e-05C30.9831 -0.00875051 36.7694 2.13713 41.3 6.04502L30.62 16.7275C28.9621 15.6015 27.0041 14.9997 25 15Z" fill="black"/>
</svg>
