<svg width="26" height="23" viewBox="0 0 26 23" fill="none" xmlns="http://www.w3.org/2000/svg">
<path d="M11.6807 22.552L1.32223 12.7024C1.16528 12.5532 1.05385 12.3915 0.987932 12.2174C0.92306 12.0433 0.890625 11.8567 0.890625 11.6578C0.890625 11.4588 0.92306 11.2722 0.987932 11.0981C1.05385 10.924 1.16528 10.7623 1.32223 10.6131L11.6807 0.763497C11.9684 0.489897 12.3279 0.34663 12.7589 0.333697C13.1911 0.321758 13.5641 0.465024 13.878 0.763497C14.1919 1.0371 14.3556 1.37885 14.3692 1.78875C14.3818 2.19965 14.2311 2.55434 13.9172 2.85281L6.22681 10.1654H23.7656C24.2103 10.1654 24.5833 10.3082 24.8846 10.5937C25.1849 10.8802 25.3351 11.2349 25.3351 11.6578C25.3351 12.0806 25.1849 12.4348 24.8846 12.7203C24.5833 13.0069 24.2103 13.1501 23.7656 13.1501H6.22681L13.9172 20.4627C14.2049 20.7363 14.3556 21.0845 14.3692 21.5074C14.3818 21.9302 14.2311 22.2784 13.9172 22.552C13.6295 22.8505 13.2633 22.9997 12.8186 22.9997C12.3739 22.9997 11.9946 22.8505 11.6807 22.552Z" fill="#009846"/>
</svg>
