<svg width="15" height="15" viewBox="0 0 15 15" fill="none" xmlns="http://www.w3.org/2000/svg">
<path d="M4.0625 8.75C4.31114 8.75 4.5496 8.65123 4.72541 8.47541C4.90123 8.2996 5 8.06114 5 7.8125C5 7.56386 4.90123 7.3254 4.72541 7.14959C4.5496 6.97377 4.31114 6.875 4.0625 6.875C3.81386 6.875 3.5754 6.97377 3.39959 7.14959C3.22377 7.3254 3.125 7.56386 3.125 7.8125C3.125 8.06114 3.22377 8.2996 3.39959 8.47541C3.5754 8.65123 3.81386 8.75 4.0625 8.75ZM5 10.9375C5 11.1861 4.90123 11.4246 4.72541 11.6004C4.5496 11.7762 4.31114 11.875 4.0625 11.875C3.81386 11.875 3.5754 11.7762 3.39959 11.6004C3.22377 11.4246 3.125 11.1861 3.125 10.9375C3.125 10.6889 3.22377 10.4504 3.39959 10.2746C3.5754 10.0988 3.81386 10 4.0625 10C4.31114 10 4.5496 10.0988 4.72541 10.2746C4.90123 10.4504 5 10.6889 5 10.9375ZM7.5 11.875C7.74864 11.875 7.9871 11.7762 8.16291 11.6004C8.33873 11.4246 8.4375 11.1861 8.4375 10.9375C8.4375 10.6889 8.33873 10.4504 8.16291 10.2746C7.9871 10.0988 7.74864 10 7.5 10C7.25136 10 7.0129 10.0988 6.83709 10.2746C6.66127 10.4504 6.5625 10.6889 6.5625 10.9375C6.5625 11.1861 6.66127 11.4246 6.83709 11.6004C7.0129 11.7762 7.25136 11.875 7.5 11.875ZM8.4375 7.8125C8.4375 8.06114 8.33873 8.2996 8.16291 8.47541C7.9871 8.65123 7.74864 8.75 7.5 8.75C7.25136 8.75 7.0129 8.65123 6.83709 8.47541C6.66127 8.2996 6.5625 8.06114 6.5625 7.8125C6.5625 7.56386 6.66127 7.3254 6.83709 7.14959C7.0129 6.97377 7.25136 6.875 7.5 6.875C7.74864 6.875 7.9871 6.97377 8.16291 7.14959C8.33873 7.3254 8.4375 7.56386 8.4375 7.8125ZM10.9375 8.75C11.1861 8.75 11.4246 8.65123 11.6004 8.47541C11.7762 8.2996 11.875 8.06114 11.875 7.8125C11.875 7.56386 11.7762 7.3254 11.6004 7.14959C11.4246 6.97377 11.1861 6.875 10.9375 6.875C10.6889 6.875 10.4504 6.97377 10.2746 7.14959C10.0988 7.3254 10 7.56386 10 7.8125C10 8.06114 10.0988 8.2996 10.2746 8.47541C10.4504 8.65123 10.6889 8.75 10.9375 8.75ZM0 3.125C0 2.2962 0.32924 1.50134 0.915291 0.915291C1.50134 0.32924 2.2962 0 3.125 0H11.875C12.7038 0 13.4987 0.32924 14.0847 0.915291C14.6708 1.50134 15 2.2962 15 3.125V11.875C15 12.7038 14.6708 13.4987 14.0847 14.0847C13.4987 14.6708 12.7038 15 11.875 15H3.125C2.2962 15 1.50134 14.6708 0.915291 14.0847C0.32924 13.4987 0 12.7038 0 11.875V3.125ZM3.125 1.25C2.62772 1.25 2.15081 1.44754 1.79917 1.79917C1.44754 2.15081 1.25 2.62772 1.25 3.125V3.75H13.75V3.125C13.75 2.62772 13.5525 2.15081 13.2008 1.79917C12.8492 1.44754 12.3723 1.25 11.875 1.25H3.125ZM1.25 11.875C1.25 12.3723 1.44754 12.8492 1.79917 13.2008C2.15081 13.5525 2.62772 13.75 3.125 13.75H11.875C12.3723 13.75 12.8492 13.5525 13.2008 13.2008C13.5525 12.8492 13.75 12.3723 13.75 11.875V5H1.25V11.875Z" fill="black"/>
</svg>
