<svg width="24" height="19" viewBox="0 0 24 19" fill="none" xmlns="http://www.w3.org/2000/svg">
<path d="M8.25036 13.5054L4.26624 9.52124C3.93875 9.19375 3.49457 9.00977 3.03143 9.00977C2.56829 9.00977 2.12412 9.19375 1.79663 9.52124C1.46914 9.84873 1.28516 10.2929 1.28516 10.756C1.28516 10.9854 1.33033 11.2124 1.41808 11.4243C1.50584 11.6362 1.63447 11.8287 1.79663 11.9908L7.02163 17.2158C7.70439 17.8986 8.80847 17.8986 9.49124 17.2158L22.7162 3.99084C23.0437 3.66335 23.2277 3.21918 23.2277 2.75604C23.2277 2.2929 23.0437 1.84873 22.7162 1.52124C22.3887 1.19375 21.9446 1.00977 21.4814 1.00977C21.0183 1.00977 20.5741 1.19375 20.2466 1.52124L8.25036 13.5054Z" fill="#009846" stroke="#009846"/>
</svg>
