<svg width="632" height="1024" viewBox="0 0 632 1024" fill="none" xmlns="http://www.w3.org/2000/svg">
<path fill-rule="evenodd" clip-rule="evenodd" d="M479.002 1026L479.003 1026C479.003 1026 549.998 1026.45 549.995 1026.45C549.995 1026.45 463.036 961.42 429.132 918.48C395.228 875.539 382.134 811.526 368.474 746.936C354.813 682.347 341.719 618.333 283.523 601.372C225.327 584.41 78.0018 611.999 78.0018 611.999L78.0018 654C115.954 692.61 235.049 648.889 273.002 687.499C310.954 726.11 321.002 1000.5 479.002 1026Z" stroke="#002279" stroke-width="2"/>
<path fill-rule="evenodd" clip-rule="evenodd" d="M349 1024.89L481.001 1024.89L481 1024.89C481 1024.89 436.5 1005.4 402.596 962.456C368.692 919.516 355.598 855.502 341.938 790.913C328.277 726.323 315.183 662.31 256.987 645.348C198.791 628.387 78 653.916 78 653.916L78 796C115.953 834.611 242.047 808.389 280 847C317.953 885.611 349 1024.89 349 1024.89Z" fill="#002279" stroke="#002279" stroke-width="2"/>
<path fill-rule="evenodd" clip-rule="evenodd" d="M80 906L246.003 1024L350.002 1024C350.002 1024 340.945 978.761 333.974 938.74C327.003 898.719 314.197 864.254 291.284 842.392C267.851 820.032 234.311 810.275 192.279 809.101C150.768 808.423 80 796 80 796L80 906Z" fill="#009846"/>
<path fill-rule="evenodd" clip-rule="evenodd" d="M79.9974 905.665C79.9974 905.665 128.56 913.602 166.079 931.312C203.597 949.021 228.683 987.517 246.997 1024C237.538 1005.1 265.312 1060.48 246.997 1024L79.9974 1024L79.9974 905.665Z" fill="#FEDF00"/>
<path fill-rule="evenodd" clip-rule="evenodd" d="M479.497 -1.00035C479.497 -1.00035 391.145 63.135 357.241 106.075C323.337 149.016 310.243 213.029 296.582 277.619C282.922 342.209 269.828 406.222 211.632 423.183C153.436 440.145 78 419.962 78 419.962L78 378C288 51 384.036 -1.00029 408 -1.00034L479.497 -1.00035Z" stroke="#002279" stroke-width="2.12"/>
<path fill-rule="evenodd" clip-rule="evenodd" d="M408.63 0.000144005C408.63 0.000144005 364.614 19.1603 330.71 62.1008C296.806 105.041 283.713 169.055 270.052 233.644C256.392 298.234 243.298 362.247 185.102 379.209C126.906 396.17 80 379.626 80 379.626L80 214.5C80 214.5 267.047 38.6107 304.999 8.08825e-05L408.63 0.000144005Z" fill="#002279"/>
<path fill-rule="evenodd" clip-rule="evenodd" d="M304.997 -0.000319849C289.997 28.9997 283.338 45.8175 276.367 85.8384C269.396 125.859 256.59 160.324 233.677 182.187C210.244 204.546 176.704 214.303 134.672 215.478C93.1608 216.156 79.9993 214.635 79.9993 214.635L79.9955 92.9998C79.9955 92.9998 152.587 21.8624 175.499 -0.000181939L304.997 -0.000319849Z" fill="#009846"/>
<path fill-rule="evenodd" clip-rule="evenodd" d="M79.9997 82.999C79.9997 82.999 79.9994 90.9997 80 93.244C80.0014 99.0255 94.1856 93.2438 94.1856 93.2438C131.704 75.5344 153.859 42.8063 172.174 6.32352L175.5 -0.00190011L80.0001 -0.0018672L79.9997 82.999Z" fill="#FEDF00"/>
</svg>
