<svg width="20" height="21" viewBox="0 0 20 21" fill="none" xmlns="http://www.w3.org/2000/svg">
<path d="M5.83333 7.5C6.05435 7.5 6.26631 7.57526 6.42259 7.70921C6.57887 7.84316 6.66667 8.02485 6.66667 8.21429V16.7857C6.66667 16.9752 6.57887 17.1568 6.42259 17.2908C6.26631 17.4247 6.05435 17.5 5.83333 17.5C5.61232 17.5 5.40036 17.4247 5.24408 17.2908C5.0878 17.1568 5 16.9752 5 16.7857V8.21429C5 8.02485 5.0878 7.84316 5.24408 7.70921C5.40036 7.57526 5.61232 7.5 5.83333 7.5ZM10 7.5C10.221 7.5 10.433 7.57526 10.5893 7.70921C10.7455 7.84316 10.8333 8.02485 10.8333 8.21429V16.7857C10.8333 16.9752 10.7455 17.1568 10.5893 17.2908C10.433 17.4247 10.221 17.5 10 17.5C9.77899 17.5 9.56702 17.4247 9.41074 17.2908C9.25446 17.1568 9.16667 16.9752 9.16667 16.7857V8.21429C9.16667 8.02485 9.25446 7.84316 9.41074 7.70921C9.56702 7.57526 9.77899 7.5 10 7.5ZM15 8.21429C15 8.02485 14.9122 7.84316 14.7559 7.70921C14.5996 7.57526 14.3877 7.5 14.1667 7.5C13.9457 7.5 13.7337 7.57526 13.5774 7.70921C13.4211 7.84316 13.3333 8.02485 13.3333 8.21429V16.7857C13.3333 16.9752 13.4211 17.1568 13.5774 17.2908C13.7337 17.4247 13.9457 17.5 14.1667 17.5C14.3877 17.5 14.5996 17.4247 14.7559 17.2908C14.9122 17.1568 15 16.9752 15 16.7857V8.21429Z" fill="black"/>
<path d="M20 4.16667C20 4.53502 19.8379 4.88829 19.5494 5.14876C19.2609 5.40923 18.8696 5.55556 18.4615 5.55556C18.0367 5.55556 17.6923 5.89995 17.6923 6.32479V18.0556C17.6923 18.7923 17.3681 19.4988 16.7911 20.0197C16.2141 20.5407 15.4314 20.8333 14.6154 20.8333H5.38462C4.56856 20.8333 3.78594 20.5407 3.2089 20.0197C2.63187 19.4988 2.30769 18.7923 2.30769 18.0556V6.32479C2.30769 5.89995 1.9633 5.55556 1.53846 5.55556C1.13044 5.55556 0.739122 5.40923 0.450605 5.14876C0.162087 4.88829 0 4.53502 0 4.16667V2.77778C0 2.40942 0.162087 2.05615 0.450605 1.79569C0.739122 1.53522 1.13044 1.38889 1.53846 1.38889H5.81016C6.42481 1.38889 6.91745 0.818671 7.37368 0.406796C7.6622 0.146329 8.05351 0 8.46154 0L11.5385 0C11.9465 0 12.3378 0.146329 12.6263 0.406796C13.0825 0.818671 13.5752 1.38889 14.1898 1.38889H18.4615C18.8696 1.38889 19.2609 1.53522 19.5494 1.79569C19.8379 2.05615 20 2.40942 20 2.77778V4.16667ZM4.07748 5.55556C4.04467 5.55556 4.01222 5.56254 3.98231 5.57604C3.89943 5.61345 3.84615 5.69595 3.84615 5.78689V18.0556C3.84615 18.4239 4.00824 18.7772 4.29676 19.0376C4.58528 19.2981 4.97659 19.4444 5.38462 19.4444H14.6154C15.0234 19.4444 15.4147 19.2981 15.7032 19.0376C15.9918 18.7772 16.1538 18.4239 16.1538 18.0556V5.78689C16.1538 5.69595 16.1006 5.61345 16.0177 5.57604C15.9878 5.56254 15.9553 5.55556 15.9225 5.55556H4.07748ZM1.53846 3.47222C1.53846 3.85575 1.84938 4.16667 2.23291 4.16667H17.7671C18.1506 4.16667 18.4615 3.85575 18.4615 3.47222C18.4615 3.08869 18.1506 2.77778 17.7671 2.77778H2.23291C1.84937 2.77778 1.53846 3.08869 1.53846 3.47222Z" fill="black"/>
</svg>
