<svg width="35" height="35" viewBox="0 0 35 35" fill="none" xmlns="http://www.w3.org/2000/svg">
<circle cx="17.5" cy="17.5" r="17.5" fill="#D9D9D9" fill-opacity="0.5"/>
<path d="M29.9093 14.1016C29.7977 13.7572 29.587 13.4537 29.3037 13.2293C29.0205 13.0048 28.6774 12.8695 28.3177 12.8404L21.7324 12.3073L19.1899 6.13673C19.0524 5.8005 18.8183 5.5129 18.5175 5.31049C18.2167 5.10808 17.8627 5 17.5006 5C17.1384 5 16.7844 5.10808 16.4836 5.31049C16.1828 5.5129 15.9488 5.8005 15.8113 6.13673L13.271 12.3062L6.68235 12.8404C6.32203 12.871 5.97872 13.0076 5.69543 13.2331C5.41213 13.4587 5.20145 13.7631 5.08979 14.1082C4.97813 14.4533 4.97044 14.8239 5.0677 15.1734C5.16495 15.5229 5.36282 15.8358 5.63652 16.073L10.6592 20.4223L9.12894 26.9255C9.04336 27.2788 9.06431 27.6496 9.18914 27.991C9.31397 28.3323 9.53705 28.6287 9.83005 28.8426C10.1231 29.0565 10.4728 29.1781 10.8348 29.1922C11.1969 29.2062 11.5549 29.112 11.8635 28.9215L17.5 25.4403L23.1399 28.9215C23.4486 29.1097 23.8059 29.2022 24.1668 29.1871C24.5277 29.172 24.8761 29.05 25.1682 28.8366C25.4602 28.6232 25.6827 28.3279 25.8078 27.9878C25.9329 27.6477 25.9549 27.2781 25.8711 26.9255L24.3353 20.4212L29.3579 16.0719C29.6339 15.8351 29.8335 15.5215 29.9317 15.1708C30.0299 14.82 30.0221 14.4479 29.9093 14.1016ZM28.1972 14.7143L22.7615 19.4187C22.6376 19.5259 22.5454 19.6652 22.495 19.8215C22.4446 19.9777 22.4379 20.1449 22.4758 20.3047L24.1366 27.3388C24.1409 27.3485 24.1413 27.3595 24.1378 27.3695C24.1343 27.3795 24.1271 27.3877 24.1176 27.3926C24.0976 27.4082 24.092 27.4049 24.0752 27.3926L17.9677 23.6235C17.827 23.5367 17.6651 23.4907 17.5 23.4907C17.3349 23.4907 17.173 23.5367 17.0324 23.6235L10.9248 27.3948C10.9081 27.4049 10.9036 27.4082 10.8824 27.3948C10.873 27.39 10.8658 27.3817 10.8622 27.3717C10.8587 27.3617 10.8591 27.3507 10.8634 27.341L12.5243 20.3069C12.5621 20.1471 12.5555 19.98 12.5051 19.8237C12.4547 19.6675 12.3625 19.5281 12.2385 19.4209L6.80289 14.7166C6.7895 14.7054 6.77722 14.6953 6.78838 14.6606C6.79954 14.6258 6.80847 14.6303 6.82522 14.6281L13.9596 14.0501C14.1232 14.036 14.2798 13.9769 14.4122 13.8793C14.5445 13.7817 14.6474 13.6493 14.7097 13.4968L17.4576 6.81998C17.4665 6.80094 17.4699 6.79198 17.4967 6.79198C17.5235 6.79198 17.5268 6.80094 17.5357 6.81998L20.2904 13.4968C20.3532 13.6494 20.4568 13.7816 20.5897 13.8788C20.7227 13.9761 20.8798 14.0346 21.0438 14.0479L28.1782 14.6258C28.1949 14.6258 28.205 14.6258 28.215 14.6583C28.2251 14.6908 28.215 14.7031 28.1972 14.7143Z" fill="black" fill-opacity="0.75"/>
</svg>
