<svg width="21" height="21" viewBox="0 0 21 21" fill="none" xmlns="http://www.w3.org/2000/svg">
<path d="M20.7897 2.06424C20.7897 2.0647 20.7899 2.06514 20.7902 2.06547C20.9239 2.19978 20.9989 2.38154 20.9989 2.57102C20.9989 2.76074 20.9237 2.94272 20.7897 3.07708L20.7281 3.13879C19.9364 3.9312 18.6522 3.9315 17.8602 3.13948C17.0687 2.34799 17.0684 1.06482 17.8595 0.272949L17.9225 0.20987C18.0569 0.0754905 18.2392 0 18.4293 0C18.6194 0 18.8016 0.0754905 18.9361 0.20987L20.7892 2.06302C20.7895 2.06334 20.7897 2.06378 20.7897 2.06424ZM16.8477 7.01956C17.6393 6.22773 17.6392 4.94415 16.8475 4.15245C16.0556 3.36062 14.7718 3.36067 13.98 4.15255L5.64653 12.4873C5.56763 12.5662 5.50823 12.6624 5.47306 12.7683L4.31901 16.229C4.29808 16.2921 4.29511 16.3598 4.31043 16.4244C4.32575 16.4891 4.35875 16.5483 4.40576 16.5953C4.45276 16.6423 4.51191 16.6753 4.57659 16.6906C4.64127 16.7059 4.70894 16.7029 4.77203 16.682L8.23276 15.528C8.33851 15.4932 8.43471 15.4343 8.51374 15.3559L16.8477 7.01956Z" fill="black"/>
<path fill-rule="evenodd" clip-rule="evenodd" d="M0 18.6369C0 19.2072 0.226561 19.7542 0.629841 20.1575C1.03312 20.5607 1.58009 20.7873 2.15041 20.7873H17.9201C18.4904 20.7873 19.0374 20.5607 19.4407 20.1575C19.8439 19.7542 20.0705 19.2072 20.0705 18.6369V10.0352C20.0705 9.84513 19.995 9.66281 19.8605 9.52839C19.7261 9.39396 19.5438 9.31844 19.3537 9.31844C19.1636 9.31844 18.9813 9.39396 18.8468 9.52839C18.7124 9.66281 18.6369 9.84513 18.6369 10.0352V18.6369C18.6369 18.827 18.5614 19.0093 18.4269 19.1437C18.2925 19.2782 18.1102 19.3537 17.9201 19.3537H2.15041C1.9603 19.3537 1.77798 19.2782 1.64355 19.1437C1.50913 19.0093 1.43361 18.827 1.43361 18.6369V2.86721C1.43361 2.6771 1.50913 2.49478 1.64355 2.36035C1.77798 2.22592 1.9603 2.1504 2.15041 2.1504H11.4689C11.659 2.1504 11.8413 2.07488 11.9757 1.94046C12.1101 1.80603 12.1857 1.62371 12.1857 1.4336C12.1857 1.24349 12.1101 1.06117 11.9757 0.926744C11.8413 0.792317 11.659 0.716797 11.4689 0.716797H2.15041C1.58009 0.716797 1.03312 0.943357 0.629841 1.34664C0.226561 1.74992 0 2.29688 0 2.86721V18.6369Z" fill="black"/>
</svg>
