<svg width="78" height="78" viewBox="0 0 78 78" fill="none" xmlns="http://www.w3.org/2000/svg">
<g filter="url(#filter0_dd_1650_178)">
<circle cx="39" cy="33" r="25" fill="#FFFFF3"/>
</g>
<path d="M55.8767 28.3347C55.7248 27.868 55.4383 27.4566 55.0531 27.1525C54.6679 26.8483 54.2013 26.6649 53.7121 26.6255L44.7561 25.9029L41.2982 17.5405C41.1112 17.0849 40.7929 16.6951 40.3838 16.4208C39.9748 16.1465 39.4933 16 39.0008 16C38.5082 16 38.0268 16.1465 37.6177 16.4208C37.2086 16.6951 36.8904 17.0849 36.7034 17.5405L33.2485 25.9014L24.288 26.6255C23.798 26.6669 23.3311 26.8521 22.9458 27.1577C22.5605 27.4633 22.274 27.8758 22.1221 28.3436C21.9703 28.8113 21.9598 29.3135 22.0921 29.7872C22.2243 30.2608 22.4934 30.6849 22.8657 31.0063L29.6965 36.9005L27.6154 45.7138C27.499 46.1926 27.5275 46.6952 27.6972 47.1578C27.867 47.6203 28.1704 48.022 28.5689 48.3119C28.9674 48.6017 29.443 48.7666 29.9354 48.7857C30.4277 48.8047 30.9147 48.677 31.3344 48.4188L39 43.701L46.6703 48.4188C47.0901 48.6739 47.576 48.7992 48.0669 48.7787C48.5577 48.7583 49.0316 48.593 49.4287 48.3038C49.8258 48.0146 50.1285 47.6144 50.2986 47.1535C50.4688 46.6926 50.4987 46.1917 50.3847 45.7138L48.296 36.899L55.1268 31.0048C55.502 30.6839 55.7736 30.2589 55.9071 29.7836C56.0406 29.3083 56.03 28.804 55.8767 28.3347ZM53.5481 29.165L46.1557 35.5404C45.9871 35.6858 45.8617 35.8746 45.7932 36.0864C45.7246 36.2981 45.7156 36.5246 45.7671 36.7411L48.0258 46.2739C48.0316 46.2871 48.0322 46.3019 48.0274 46.3155C48.0226 46.3291 48.0128 46.3402 48 46.3468C47.9727 46.368 47.9651 46.3635 47.9423 46.3468L39.6361 41.2389C39.4448 41.1212 39.2246 41.059 39 41.059C38.7755 41.059 38.5553 41.1212 38.364 41.2389L30.0577 46.3498C30.035 46.3635 30.0289 46.368 30.0001 46.3498C29.9873 46.3433 29.9774 46.3321 29.9726 46.3185C29.9678 46.305 29.9684 46.2901 29.9743 46.277L32.233 36.7442C32.2845 36.5277 32.2754 36.3011 32.2069 36.0894C32.1384 35.8776 32.013 35.6888 31.8444 35.5435L24.4519 29.1681C24.4337 29.1529 24.417 29.1392 24.4322 29.0922C24.4474 29.0451 24.4595 29.0512 24.4823 29.0481L34.1851 28.2649C34.4076 28.2458 34.6206 28.1657 34.8006 28.0334C34.9805 27.9011 35.1205 27.7217 35.2051 27.515L38.9424 18.4665C38.9545 18.4407 38.959 18.4285 38.9955 18.4285C39.0319 18.4285 39.0365 18.4407 39.0486 18.4665L42.7949 27.515C42.8803 27.7218 43.0212 27.901 43.202 28.0328C43.3828 28.1646 43.5965 28.2438 43.8195 28.2618L53.5223 29.0451C53.5451 29.0451 53.5588 29.0451 53.5724 29.0891C53.5861 29.1332 53.5724 29.1498 53.5481 29.165Z" fill="black"/>
<defs>
<filter id="filter0_dd_1650_178" x="0" y="0" width="78" height="78" filterUnits="userSpaceOnUse" color-interpolation-filters="sRGB">
<feFlood flood-opacity="0" result="BackgroundImageFix"/>
<feColorMatrix in="SourceAlpha" type="matrix" values="0 0 0 0 0 0 0 0 0 0 0 0 0 0 0 0 0 0 127 0" result="hardAlpha"/>
<feOffset dy="2"/>
<feGaussianBlur stdDeviation="1.5"/>
<feColorMatrix type="matrix" values="0 0 0 0 0 0 0 0 0 0 0 0 0 0 0 0 0 0 0.3 0"/>
<feBlend mode="normal" in2="BackgroundImageFix" result="effect1_dropShadow_1650_178"/>
<feColorMatrix in="SourceAlpha" type="matrix" values="0 0 0 0 0 0 0 0 0 0 0 0 0 0 0 0 0 0 127 0" result="hardAlpha"/>
<feMorphology radius="4" operator="dilate" in="SourceAlpha" result="effect2_dropShadow_1650_178"/>
<feOffset dy="6"/>
<feGaussianBlur stdDeviation="5"/>
<feColorMatrix type="matrix" values="0 0 0 0 0 0 0 0 0 0 0 0 0 0 0 0 0 0 0.15 0"/>
<feBlend mode="normal" in2="effect1_dropShadow_1650_178" result="effect2_dropShadow_1650_178"/>
<feBlend mode="normal" in="SourceGraphic" in2="effect2_dropShadow_1650_178" result="shape"/>
</filter>
</defs>
</svg>
