<svg width="50" height="46" viewBox="0 0 50 46" fill="none" xmlns="http://www.w3.org/2000/svg">
<path d="M18.1375 27.6065C20.5525 27.6065 22.5125 29.5707 22.5125 31.9965V40.7713C22.5125 41.9356 22.0516 43.0522 21.2311 43.8755C20.4106 44.6988 19.2978 45.1613 18.1375 45.1613H4.375C3.21511 45.1613 2.10269 44.6991 1.28229 43.8764C0.461892 43.0537 0.000662794 41.9377 0 40.7738V31.999C0 29.5732 1.96 27.609 4.375 27.609L18.1375 27.6065ZM45.625 27.6065C48.04 27.6065 50 29.5707 50 31.9965V40.7713C50 41.9356 49.5391 43.0522 48.7186 43.8755C47.8981 44.6988 46.7853 45.1613 45.625 45.1613H31.8625C30.7022 45.1613 29.5894 44.6988 28.7689 43.8755C27.9484 43.0522 27.4875 41.9356 27.4875 40.7713V31.9965C27.4875 29.5707 29.4475 27.6065 31.8625 27.6065H45.625ZM18.1375 31.3693H4.375C4.20924 31.3693 4.05027 31.4354 3.93306 31.553C3.81585 31.6706 3.75 31.8301 3.75 31.9965V40.7713C3.75 41.12 4.03 41.3985 4.375 41.3985H18.1375C18.3033 41.3985 18.4622 41.3324 18.5794 41.2148C18.6967 41.0972 18.7625 40.9377 18.7625 40.7713V31.9965C18.7625 31.8301 18.6967 31.6706 18.5794 31.553C18.4622 31.4354 18.3033 31.3693 18.1375 31.3693ZM45.625 31.3693H31.8625C31.6967 31.3693 31.5378 31.4354 31.4206 31.553C31.3033 31.6706 31.2375 31.8301 31.2375 31.9965V40.7713C31.2375 41.12 31.5175 41.3985 31.8625 41.3985H45.625C45.7908 41.3985 45.9497 41.3324 46.0669 41.2148C46.1842 41.0972 46.25 40.9377 46.25 40.7713V31.9965C46.25 31.8301 46.1842 31.6706 46.0669 31.553C45.9497 31.4354 45.7908 31.3693 45.625 31.3693ZM45.625 0C48.04 0 50 1.9667 50 4.38995V18.1869C50 19.3512 49.5391 20.4678 48.7186 21.2911C47.8981 22.1144 46.7853 22.5769 45.625 22.5769H4.375C3.21468 22.5769 2.10188 22.1144 1.28141 21.2911C0.460936 20.4678 0 19.3512 0 18.1869V4.38995C4.10115e-05 3.28822 0.412928 2.22679 1.1567 1.41635C1.90047 0.605902 2.92075 0.105708 4.015 0.0150514L4.375 0H45.625ZM45.625 3.76281H4.375L4.2325 3.78037C4.0954 3.81259 3.97316 3.89031 3.88558 4.00095C3.79801 4.11159 3.75023 4.24866 3.75 4.38995V18.1869C3.75 18.5331 4.03 18.8141 4.375 18.8141H45.625C45.7908 18.8141 45.9497 18.748 46.0669 18.6304C46.1842 18.5128 46.25 18.3533 46.25 18.1869V4.38995C46.25 4.22362 46.1842 4.06411 46.0669 3.9465C45.9497 3.82889 45.7908 3.76281 45.625 3.76281Z" fill="#00C55B"/>
</svg>
