<svg width="43" height="45" viewBox="0 0 43 45" fill="none" xmlns="http://www.w3.org/2000/svg">
<path fill-rule="evenodd" clip-rule="evenodd" d="M21.349 24.9655C22.7055 24.9655 24.0065 24.4237 24.966 23.4592C25.9255 22.4946 26.4648 21.1863 26.4655 19.8219C26.4655 18.4571 25.9264 17.1482 24.9669 16.1831C24.0074 15.218 22.7059 14.6758 21.349 14.6758C19.992 14.6758 18.6906 15.218 17.731 16.1831C16.7715 17.1482 16.2324 18.4571 16.2324 19.8219C16.2331 21.1863 16.7725 22.4946 17.7319 23.4592C18.6914 24.4237 19.9924 24.9655 21.349 24.9655Z" stroke="#FFFFF3" stroke-width="4" stroke-linecap="square"/>
<path fill-rule="evenodd" clip-rule="evenodd" d="M36.6992 19.8218C36.6992 32.6795 23.9079 40.3936 21.3496 40.3936C18.7913 40.3936 6 32.6795 6 19.8218C6.00271 15.729 7.6211 11.8048 10.4994 8.91175C13.3777 6.01869 17.2804 4.39355 21.3496 4.39355C29.8252 4.39355 36.6992 11.3023 36.6992 19.8218Z" stroke="#FFFFF3" stroke-width="4" stroke-linecap="square"/>
</svg>
