<svg width="61" height="56" viewBox="0 0 61 56" fill="none" xmlns="http://www.w3.org/2000/svg">
<path d="M6.06245 55.7693C4.52689 55.7693 3.24578 55.2399 2.21911 54.1812C1.19245 53.1224 0.678003 51.8001 0.675781 50.2143V16.6368C0.675781 15.0533 1.19023 13.7321 2.21911 12.6734C3.248 11.6146 4.528 11.0841 6.05911 11.0818H18.6758C19.7804 11.0818 20.6758 10.1864 20.6758 9.08179V6.32086C20.6758 4.73961 21.1902 3.41846 22.2191 2.35742C23.248 1.29638 24.5291 0.767003 26.0624 0.769295H35.2924C36.8258 0.769295 38.1069 1.29867 39.1358 2.35742C40.1647 3.41617 40.678 4.73731 40.6758 6.32086V9.08179C40.6758 10.1864 41.5712 11.0818 42.6758 11.0818H55.2924C56.8258 11.0818 58.1058 11.6123 59.1325 12.6734C60.1591 13.7344 60.6736 15.0555 60.6758 16.6368V50.2177C60.6758 51.799 60.1613 53.1201 59.1325 54.1812C58.1036 55.2422 56.8236 55.7716 55.2924 55.7693H6.06245ZM24.0091 9.08179C24.0091 10.1864 24.9045 11.0818 26.0091 11.0818H35.3424C36.447 11.0818 37.3424 10.1864 37.3424 9.08179V6.32086C37.3424 5.79377 37.1291 5.30908 36.7024 4.86679C36.2758 4.4245 35.8058 4.2045 35.2924 4.20679H26.0591C25.548 4.20679 25.078 4.42679 24.6491 4.86679C24.2202 5.30679 24.0069 5.79148 24.0091 6.32086V9.08179ZM57.3424 38.863C57.3424 37.7585 56.447 36.863 55.3424 36.863H39.3424C38.2379 36.863 37.3424 37.7585 37.3424 38.863V39.2418C37.3424 40.0393 37.0869 40.7016 36.5758 41.2287C36.0647 41.7557 35.4224 42.0193 34.6491 42.0193H26.7024C25.9291 42.0193 25.2869 41.7557 24.7758 41.2287C24.2647 40.7016 24.0091 40.0393 24.0091 39.2418V38.863C24.0091 37.7585 23.1137 36.863 22.0091 36.863H6.00911C4.90455 36.863 4.00911 37.7585 4.00911 38.863V50.2177C4.00911 50.7448 4.22245 51.2295 4.64911 51.6718C5.07578 52.1141 5.54578 52.3341 6.05911 52.3318H55.2924C55.8036 52.3318 56.2736 52.1118 56.7024 51.6718C57.1313 51.2318 57.3447 50.746 57.3424 50.2143V38.863ZM27.3424 36.5818C27.3424 37.6864 28.2379 38.5818 29.3424 38.5818H32.0091C33.1137 38.5818 34.0091 37.6864 34.0091 36.5818V33.7068C34.0091 32.6022 33.1137 31.7068 32.0091 31.7068H29.3424C28.2379 31.7068 27.3424 32.6022 27.3424 33.7068V36.5818ZM4.00911 31.4255C4.00911 32.5301 4.90455 33.4255 6.00911 33.4255H22.0091C23.1137 33.4255 24.0091 32.5301 24.0091 31.4255V31.0468C24.0091 30.2493 24.2647 29.587 24.7758 29.0599C25.2869 28.5328 25.9291 28.2693 26.7024 28.2693H34.6491C35.4224 28.2693 36.0647 28.5328 36.5758 29.0599C37.0869 29.587 37.3424 30.2493 37.3424 31.0468V31.4255C37.3424 32.5301 38.2379 33.4255 39.3424 33.4255H55.3424C56.447 33.4255 57.3424 32.5301 57.3424 31.4255V16.6368C57.3424 16.1074 57.1291 15.6216 56.7024 15.1793C56.2758 14.737 55.8058 14.517 55.2924 14.5193H6.05911C5.548 14.5193 5.078 14.7393 4.64911 15.1793C4.22023 15.6193 4.00689 16.1051 4.00911 16.6368V31.4255Z" fill="#FFFFF3"/>
</svg>
