<svg width="52" height="41" viewBox="0 0 52 41" fill="none" xmlns="http://www.w3.org/2000/svg">
<path d="M51.25 11.0448C51.2519 9.70457 50.8006 8.57201 49.8934 7.66489C48.9864 6.75787 47.854 6.30555 46.5139 6.30555H24.9813L20.8296 2.15378C20.4036 1.72786 19.8934 1.38759 19.3021 1.13167L19.3008 1.13113C18.7058 0.877538 18.0911 0.75 17.4583 0.75L5.48611 0.75L5.48575 0.75C4.14766 0.751942 3.01642 1.20421 2.10953 2.10914C1.20225 3.01446 0.75 4.14703 0.75 5.48889L0.75 35.4L0.75 35.4004L46.5139 39.8889L46.5135 40.1389C47.8555 40.1408 48.9882 39.6895 49.8936 38.7821C50.7987 37.8751 51.25 36.7427 51.25 35.4028V11.0448ZM51.25 11.0448L51 11.0444H51.25V11.0448ZM3.77778 37.1111V35.4028M4.02778 35.4028V5.48938C4.0295 5.04808 4.16931 4.70369 4.43789 4.43511C4.70648 4.16651 5.0498 4.02778 5.48889 4.02778H17.5167C17.6986 4.02778 17.8707 4.05878 18.0344 4.12019L18.0344 4.12022L18.0379 4.12145C18.193 4.17706 18.3496 4.27815 18.5066 4.43511L18.5067 4.43521L23.5872 9.51021L23.6604 9.58333H23.7639H46.5139C46.953 9.58333 47.2963 9.72207 47.5649 9.99067C47.8335 10.2593 47.9722 10.6026 47.9722 11.0417V35.4028C47.9722 35.8419 47.8335 36.1852 47.5649 36.4538C47.2963 36.7224 46.953 36.8611 46.5139 36.8611H5.48889C5.04766 36.8611 4.70352 36.7222 4.43511 36.4538C4.16651 36.1852 4.02778 35.8419 4.02778 35.4028ZM32.6944 24.8611V28.7778C32.6944 29.2361 32.8502 29.6316 33.1649 29.9462C33.4795 30.2609 33.875 30.4167 34.3333 30.4167C34.7916 30.4167 35.1871 30.2609 35.5018 29.9462C35.8164 29.6316 35.9722 29.2361 35.9722 28.7778V24.8611H39.8889C40.3472 24.8611 40.7427 24.7053 41.0573 24.3907C41.372 24.076 41.5278 23.6805 41.5278 23.2222C41.5278 22.7639 41.372 22.3684 41.0573 22.0538C40.7427 21.7391 40.3472 21.5833 39.8889 21.5833H35.9722V17.6667C35.9722 17.2099 35.8162 16.8149 35.5024 16.4988C35.1876 16.1818 34.7914 16.0256 34.3322 16.0278C33.8748 16.0299 33.48 16.1853 33.1655 16.4976C32.85 16.8109 32.6944 17.2068 32.6944 17.6667V21.5833H28.7778C28.321 21.5833 27.926 21.7393 27.6099 22.0532C27.2929 22.368 27.1367 22.7642 27.1389 23.2234C27.141 23.6808 27.2965 24.0756 27.6087 24.39C27.922 24.7055 28.318 24.8611 28.7778 24.8611H32.6944Z" fill="#00C55B" stroke="#00C55B" stroke-width="0.5"/>
</svg>
