<svg width="50" height="49" viewBox="0 0 50 49" fill="none" xmlns="http://www.w3.org/2000/svg">
<path d="M49.8186 18.1393C49.5954 17.4529 49.1739 16.848 48.6075 16.4007C48.041 15.9534 47.3548 15.6837 46.6354 15.6257L33.4649 14.5631L28.3797 2.26546C28.1047 1.59537 27.6367 1.02219 27.0351 0.618789C26.4335 0.215391 25.7255 0 25.0012 0C24.2768 0 23.5689 0.215391 22.9673 0.618789C22.3657 1.02219 21.8976 1.59537 21.6226 2.26546L16.5419 14.5609L3.3647 15.6257C2.64406 15.6867 1.95744 15.9589 1.39085 16.4084C0.824263 16.8578 0.402909 17.4645 0.17958 18.1523C-0.0437487 18.8402 -0.0591198 19.5787 0.135392 20.2752C0.329904 20.9718 0.725649 21.5955 1.27304 22.0681L11.3183 30.7361L8.25788 43.6968C8.08671 44.4009 8.12862 45.14 8.37828 45.8202C8.62794 46.5005 9.0741 47.0912 9.66011 47.5175C10.2461 47.9437 10.9456 48.1862 11.6697 48.2142C12.3937 48.2422 13.1098 48.0544 13.727 47.6747L25 40.7367L36.2798 47.6747C36.8972 48.0499 37.6118 48.2341 38.3336 48.204C39.0555 48.1739 39.7523 47.9309 40.3363 47.5056C40.9203 47.0803 41.3655 46.4917 41.6156 45.8139C41.8658 45.1361 41.9099 44.3995 41.7422 43.6968L38.6706 30.7338L48.7159 22.0659C49.2677 21.594 49.6671 20.969 49.8634 20.27C50.0597 19.571 50.0441 18.8294 49.8186 18.1393ZM46.3943 19.3603L35.5231 28.7359C35.2751 28.9496 35.0907 29.2274 34.9899 29.5388C34.8892 29.8502 34.8759 30.1833 34.9516 30.5017L38.2732 44.5205C38.2818 44.5398 38.2827 44.5617 38.2756 44.5816C38.2686 44.6015 38.2541 44.618 38.2353 44.6276C38.1951 44.6589 38.1839 44.6522 38.1505 44.6276L25.9354 37.116C25.6541 36.943 25.3303 36.8514 25 36.8514C24.6698 36.8514 24.346 36.943 24.0647 37.116L11.8496 44.6321C11.8161 44.6522 11.8072 44.6589 11.7648 44.6321C11.746 44.6225 11.7315 44.606 11.7245 44.5861C11.7174 44.5661 11.7183 44.5443 11.7269 44.5249L15.0485 30.5062C15.1242 30.1877 15.1109 29.8546 15.0102 29.5432C14.9094 29.2318 14.725 28.9541 14.477 28.7404L3.60579 19.3648C3.579 19.3425 3.55444 19.3224 3.57677 19.2532C3.59909 19.184 3.61695 19.1929 3.65043 19.1884L17.9192 18.0366C18.2465 18.0085 18.5597 17.8907 18.8244 17.6962C19.089 17.5016 19.2949 17.2378 19.4193 16.9338L24.9152 3.62716C24.9331 3.58921 24.9398 3.57135 24.9933 3.57135C25.0469 3.57135 25.0536 3.58921 25.0715 3.62716L30.5808 16.9338C30.7064 17.2379 30.9136 17.5014 31.1795 17.6952C31.4453 17.8891 31.7596 18.0056 32.0876 18.0321L46.3564 19.184C46.3898 19.184 46.4099 19.184 46.43 19.2487C46.4501 19.3135 46.43 19.338 46.3943 19.3603Z" fill="#00C55B"/>
</svg>
