<svg width="61" height="46" viewBox="0 0 61 46" fill="none" xmlns="http://www.w3.org/2000/svg">
<path d="M54.4062 4.34424C54.9035 4.34424 55.3804 4.54178 55.7321 4.89341C56.0837 5.24504 56.2812 5.72196 56.2812 6.21924V39.9692C56.2812 40.4665 56.0837 40.9434 55.7321 41.2951C55.3804 41.6467 54.9035 41.8442 54.4062 41.8442H5.65625C5.15897 41.8442 4.68206 41.6467 4.33042 41.2951C3.97879 40.9434 3.78125 40.4665 3.78125 39.9692V6.21924C3.78125 5.72196 3.97879 5.24504 4.33042 4.89341C4.68206 4.54178 5.15897 4.34424 5.65625 4.34424H54.4062ZM5.65625 0.594238C4.16441 0.594238 2.73367 1.18687 1.67877 2.24176C0.623882 3.29665 0.03125 4.7274 0.03125 6.21924L0.03125 39.9692C0.03125 41.4611 0.623882 42.8918 1.67877 43.9467C2.73367 45.0016 4.16441 45.5942 5.65625 45.5942H54.4062C55.8981 45.5942 57.3288 45.0016 58.3837 43.9467C59.4386 42.8918 60.0312 41.4611 60.0312 39.9692V6.21924C60.0312 4.7274 59.4386 3.29665 58.3837 2.24176C57.3288 1.18687 55.8981 0.594238 54.4062 0.594238H5.65625Z" fill="#FFFFF3"/>
<path d="M26.2758 13.7194C26.2758 13.2221 26.4734 12.7452 26.825 12.3936C27.1766 12.042 27.6535 11.8444 28.1508 11.8444H46.9008C47.3981 11.8444 47.875 12.042 48.2266 12.3936C48.5783 12.7452 48.7758 13.2221 48.7758 13.7194C48.7758 14.2167 48.5783 14.6936 48.2266 15.0452C47.875 15.3969 47.3981 15.5944 46.9008 15.5944H28.1508C27.6535 15.5944 27.1766 15.3969 26.825 15.0452C26.4734 14.6936 26.2758 14.2167 26.2758 13.7194ZM20.6658 10.5169C20.8404 10.6911 20.979 10.898 21.0735 11.1258C21.168 11.3536 21.2167 11.5978 21.2167 11.8444C21.2167 12.091 21.168 12.3352 21.0735 12.563C20.979 12.7908 20.8404 12.9977 20.6658 13.1719L15.0408 18.7969C14.8666 18.9715 14.6597 19.1101 14.4319 19.2046C14.2041 19.2991 13.9599 19.3478 13.7133 19.3478C13.4667 19.3478 13.2225 19.2991 12.9947 19.2046C12.7669 19.1101 12.56 18.9715 12.3858 18.7969L10.5108 16.9219C10.3365 16.7476 10.1982 16.5406 10.1038 16.3129C10.0095 16.0851 9.96094 15.841 9.96094 15.5944C9.96094 15.0965 10.1587 14.619 10.5108 14.2669C10.8629 13.9148 11.3404 13.717 11.8383 13.717C12.3362 13.717 12.8137 13.9148 13.1658 14.2669L13.7133 14.8182L18.0108 10.5169C18.185 10.3423 18.3919 10.2038 18.6197 10.1092C18.8475 10.0147 19.0917 9.96606 19.3383 9.96606C19.5849 9.96606 19.8291 10.0147 20.0569 10.1092C20.2847 10.2038 20.4916 10.3423 20.6658 10.5169ZM26.2758 28.7194C26.2758 28.2221 26.4734 27.7452 26.825 27.3936C27.1766 27.042 27.6535 26.8444 28.1508 26.8444H46.9008C47.3981 26.8444 47.875 27.042 48.2266 27.3936C48.5783 27.7452 48.7758 28.2221 48.7758 28.7194C48.7758 29.2167 48.5783 29.6936 48.2266 30.0452C47.875 30.3969 47.3981 30.5944 46.9008 30.5944H28.1508C27.6535 30.5944 27.1766 30.3969 26.825 30.0452C26.4734 29.6936 26.2758 29.2167 26.2758 28.7194ZM20.6658 25.5169C20.8404 25.6911 20.979 25.898 21.0735 26.1258C21.168 26.3536 21.2167 26.5978 21.2167 26.8444C21.2167 27.091 21.168 27.3352 21.0735 27.563C20.979 27.7908 20.8404 27.9977 20.6658 28.1719L15.0408 33.7969C14.8666 33.9715 14.6597 34.1101 14.4319 34.2046C14.2041 34.2991 13.9599 34.3478 13.7133 34.3478C13.4667 34.3478 13.2225 34.2991 12.9947 34.2046C12.7669 34.1101 12.56 33.9715 12.3858 33.7969L10.5108 31.9219C10.3365 31.7476 10.1982 31.5406 10.1038 31.3129C10.0095 31.0851 9.96094 30.841 9.96094 30.5944C9.96094 30.3479 10.0095 30.1037 10.1038 29.876C10.1982 29.6482 10.3365 29.4412 10.5108 29.2669C10.6851 29.0926 10.8921 28.9543 11.1199 28.86C11.3476 28.7656 11.5918 28.717 11.8383 28.717C12.0848 28.717 12.329 28.7656 12.5567 28.86C12.7845 28.9543 12.9915 29.0926 13.1658 29.2669L13.7133 29.8182L18.0108 25.5169C18.185 25.3423 18.3919 25.2038 18.6197 25.1092C18.8475 25.0147 19.0917 24.9661 19.3383 24.9661C19.5849 24.9661 19.8291 25.0147 20.0569 25.1092C20.2847 25.2038 20.4916 25.3423 20.6658 25.5169Z" fill="#FFFFF3"/>
</svg>
