<svg width="50" height="39" viewBox="0 0 50 39" fill="none" xmlns="http://www.w3.org/2000/svg">
<path d="M4.48889 38.8889C3.20926 38.8889 2.14167 38.4611 1.28611 37.6056C0.430556 36.75 0.00185185 35.6815 0 34.4V4.48889C0 3.20926 0.428704 2.14167 1.28611 1.28611C2.14352 0.430555 3.21018 0.00185185 4.48611 0H16.4583C17.0565 0 17.638 0.120371 18.2028 0.361111C18.7676 0.605556 19.2509 0.928704 19.6528 1.33056L23.8778 5.55555H45.5139C46.7917 5.55555 47.8593 5.98426 48.7167 6.84167C49.5741 7.69907 50.0018 8.76667 50 10.0444V34.4028C50 35.6806 49.5722 36.7481 48.7167 37.6056C47.8611 38.463 46.7935 38.8907 45.5139 38.8889H4.48889ZM4.48889 36.1111H45.5139C46.012 36.1111 46.4213 35.9509 46.7417 35.6306C47.062 35.3102 47.2222 34.9009 47.2222 34.4028V10.0417C47.2222 9.54352 47.062 9.13426 46.7417 8.81389C46.4213 8.49352 46.012 8.33333 45.5139 8.33333H22.7639L17.6833 3.25833C17.5056 3.08055 17.3185 2.95648 17.1222 2.88611C16.9296 2.81389 16.7278 2.77778 16.5167 2.77778H4.48889C3.99074 2.77778 3.58148 2.93796 3.26111 3.25833C2.94074 3.5787 2.77963 3.98889 2.77778 4.48889V34.4028C2.77778 34.9009 2.93796 35.3102 3.25833 35.6306C3.5787 35.9509 3.98889 36.1111 4.48889 36.1111ZM31.9444 23.6111V27.7778C31.9444 28.1741 32.0768 28.5046 32.3417 28.7694C32.6065 29.0343 32.937 29.1667 33.3333 29.1667C33.7296 29.1667 34.0602 29.0343 34.325 28.7694C34.5898 28.5046 34.7222 28.1741 34.7222 27.7778V23.6111H38.8889C39.2852 23.6111 39.6157 23.4787 39.8806 23.2139C40.1454 22.9491 40.2778 22.6185 40.2778 22.2222C40.2778 21.8259 40.1454 21.4954 39.8806 21.2306C39.6157 20.9657 39.2852 20.8333 38.8889 20.8333H34.7222V16.6667C34.7222 16.2722 34.5898 15.9417 34.325 15.675C34.0602 15.4083 33.7296 15.2759 33.3333 15.2778C32.937 15.2796 32.6065 15.412 32.3417 15.675C32.0768 15.938 31.9444 16.2685 31.9444 16.6667V20.8333H27.7778C27.3833 20.8333 27.0528 20.9657 26.7861 21.2306C26.5194 21.4954 26.387 21.8259 26.3889 22.2222C26.3907 22.6185 26.5231 22.9491 26.7861 23.2139C27.0491 23.4787 27.3796 23.6111 27.7778 23.6111H31.9444Z" fill="black"/>
</svg>
