<svg width="50" height="46" viewBox="0 0 50 46" fill="none" xmlns="http://www.w3.org/2000/svg">
<path d="M27.3565 0.971808C26.7314 0.34956 25.8838 0 25 0C24.1162 0 23.2686 0.34956 22.6435 0.971808L0.488731 23.031C0.333784 23.1853 0.210874 23.3685 0.127017 23.5701C0.0431605 23.7717 0 23.9878 0 24.206C0 24.4242 0.0431605 24.6403 0.127017 24.8419C0.210874 25.0435 0.333784 25.2267 0.488731 25.381C0.80166 25.6926 1.22608 25.8677 1.66863 25.8677C1.88776 25.8677 2.10474 25.8247 2.30719 25.7412C2.50964 25.6577 2.69359 25.5353 2.84853 25.381L5.00168 23.2335V40.8018C5.00168 42.1223 5.52842 43.3887 6.46603 44.3223C7.40363 45.256 8.67529 45.7806 10.0013 45.7806H39.9987C41.3247 45.7806 42.5964 45.256 43.534 44.3223C44.4716 43.3887 44.9983 42.1223 44.9983 40.8018V23.2335L47.1515 25.381C47.4644 25.6926 47.8888 25.8677 48.3314 25.8677C48.7739 25.8677 49.1983 25.6926 49.5113 25.381C49.8242 25.0694 50 24.6467 50 24.206C50 23.7653 49.8242 23.3426 49.5113 23.031L41.6653 15.221V4.29098C41.6653 3.85083 41.4897 3.42871 41.1772 3.11747C40.8646 2.80624 40.4407 2.63139 39.9987 2.63139H36.6657C36.2237 2.63139 35.7998 2.80624 35.4873 3.11747C35.1747 3.42871 34.9992 3.85083 34.9992 4.29098V8.58266L27.3565 0.971808ZM41.6653 19.9143V40.8018C41.6653 41.242 41.4897 41.6641 41.1772 41.9753C40.8646 42.2866 40.4407 42.4614 39.9987 42.4614H10.0013C9.55927 42.4614 9.13539 42.2866 8.82285 41.9753C8.51032 41.6641 8.33474 41.242 8.33474 40.8018V19.9143L25 3.31846L41.6653 19.9143Z" fill="black"/>
</svg>
