<svg width="52" height="52" viewBox="0 0 52 52" fill="none" xmlns="http://www.w3.org/2000/svg">
<mask id="path-1-outside-1_572_228" maskUnits="userSpaceOnUse" x="0" y="0" width="52" height="52" fill="black">
<rect fill="white" width="52" height="52"/>
<path d="M21.5882 31.8824H28.8823C29.302 31.8824 29.6529 31.7422 29.9353 31.4618C30.2176 31.1814 30.3569 30.8314 30.3529 30.4118C30.349 29.9922 30.2088 29.6422 29.9324 29.3618C29.6559 29.0814 29.3059 28.9412 28.8823 28.9412H21.5882C21.1706 28.9412 20.8206 29.0814 20.5382 29.3618C20.2559 29.6422 20.1157 29.9922 20.1176 30.4118C20.1196 30.8314 20.2598 31.1814 20.5382 31.4618C20.8167 31.7422 21.1667 31.8824 21.5882 31.8824ZM21.5882 23.0588H39.1235C39.5412 23.0588 39.8902 22.9186 40.1706 22.6382C40.451 22.3578 40.5922 22.0078 40.5941 21.5882C40.5961 21.1686 40.4549 20.8186 40.1706 20.5382C39.8863 20.2578 39.5373 20.1177 39.1235 20.1177H21.5882C21.1706 20.1177 20.8206 20.2578 20.5382 20.5382C20.2559 20.8186 20.1157 21.1686 20.1176 21.5882C20.1196 22.0078 20.2598 22.3578 20.5382 22.6382C20.8167 22.9186 21.1667 23.0588 21.5882 23.0588ZM21.5882 14.2353H39.1235C39.5412 14.2353 39.8902 14.0951 40.1706 13.8147C40.451 13.5343 40.5922 13.1843 40.5941 12.7647C40.5961 12.3451 40.4549 11.9951 40.1706 11.7147C39.8863 11.4343 39.5373 11.2941 39.1235 11.2941H21.5882C21.1706 11.2941 20.8206 11.4343 20.5382 11.7147C20.2559 11.9951 20.1157 12.3451 20.1176 12.7647C20.1196 13.1843 20.2598 13.5343 20.5382 13.8147C20.8167 14.0951 21.1667 14.2353 21.5882 14.2353ZM14.5765 42.1765C13.2216 42.1765 12.0912 41.7235 11.1853 40.8176C10.2794 39.9118 9.82549 38.7814 9.82353 37.4265V5.75C9.82353 4.39706 10.2775 3.26667 11.1853 2.35883C12.0931 1.45099 13.2235 0.998046 14.5765 1.00001H46.25C47.6029 1.00001 48.7333 1.45295 49.6412 2.35883C50.549 3.26471 51.002 4.3951 51 5.75V37.4265C51 38.7794 50.5471 39.9088 49.6412 40.8147C48.7353 41.7206 47.6039 42.1745 46.2471 42.1765H14.5765ZM14.5765 39.2353H46.25C46.701 39.2353 47.1157 39.0471 47.4941 38.6706C47.8725 38.2941 48.0608 37.8794 48.0588 37.4265V5.75C48.0588 5.29902 47.8706 4.88432 47.4941 4.50589C47.1176 4.12746 46.702 3.93922 46.2471 3.94118H14.5765C14.1235 3.94118 13.7078 4.12942 13.3294 4.50589C12.951 4.88236 12.7627 5.29706 12.7647 5.75V37.4265C12.7647 37.8774 12.9529 38.2922 13.3294 38.6706C13.7059 39.049 14.1206 39.2373 14.5735 39.2353M5.75 51C4.39706 51 3.26667 50.5471 2.35883 49.6412C1.45099 48.7353 0.998046 47.6049 1.00001 46.25V13.1029C1.00001 12.6853 1.1402 12.3363 1.42059 12.0559C1.70099 11.7755 2.05099 11.6353 2.47059 11.6353C2.8902 11.6353 3.2402 11.7755 3.52059 12.0559C3.80099 12.3363 3.94118 12.6863 3.94118 13.1059V46.25C3.94118 46.701 4.12942 47.1157 4.50589 47.4941C4.88236 47.8725 5.29706 48.0608 5.75 48.0588H38.8971C39.3147 48.0588 39.6637 48.199 39.9441 48.4794C40.2245 48.7598 40.3657 49.1098 40.3676 49.5294C40.3696 49.949 40.2284 50.299 39.9441 50.5794C39.6598 50.8598 39.3108 51 38.8971 51H5.75Z"/>
</mask>
<path d="M21.5882 31.8824H28.8823C29.302 31.8824 29.6529 31.7422 29.9353 31.4618C30.2176 31.1814 30.3569 30.8314 30.3529 30.4118C30.349 29.9922 30.2088 29.6422 29.9324 29.3618C29.6559 29.0814 29.3059 28.9412 28.8823 28.9412H21.5882C21.1706 28.9412 20.8206 29.0814 20.5382 29.3618C20.2559 29.6422 20.1157 29.9922 20.1176 30.4118C20.1196 30.8314 20.2598 31.1814 20.5382 31.4618C20.8167 31.7422 21.1667 31.8824 21.5882 31.8824ZM21.5882 23.0588H39.1235C39.5412 23.0588 39.8902 22.9186 40.1706 22.6382C40.451 22.3578 40.5922 22.0078 40.5941 21.5882C40.5961 21.1686 40.4549 20.8186 40.1706 20.5382C39.8863 20.2578 39.5373 20.1177 39.1235 20.1177H21.5882C21.1706 20.1177 20.8206 20.2578 20.5382 20.5382C20.2559 20.8186 20.1157 21.1686 20.1176 21.5882C20.1196 22.0078 20.2598 22.3578 20.5382 22.6382C20.8167 22.9186 21.1667 23.0588 21.5882 23.0588ZM21.5882 14.2353H39.1235C39.5412 14.2353 39.8902 14.0951 40.1706 13.8147C40.451 13.5343 40.5922 13.1843 40.5941 12.7647C40.5961 12.3451 40.4549 11.9951 40.1706 11.7147C39.8863 11.4343 39.5373 11.2941 39.1235 11.2941H21.5882C21.1706 11.2941 20.8206 11.4343 20.5382 11.7147C20.2559 11.9951 20.1157 12.3451 20.1176 12.7647C20.1196 13.1843 20.2598 13.5343 20.5382 13.8147C20.8167 14.0951 21.1667 14.2353 21.5882 14.2353ZM14.5765 42.1765C13.2216 42.1765 12.0912 41.7235 11.1853 40.8176C10.2794 39.9118 9.82549 38.7814 9.82353 37.4265V5.75C9.82353 4.39706 10.2775 3.26667 11.1853 2.35883C12.0931 1.45099 13.2235 0.998046 14.5765 1.00001H46.25C47.6029 1.00001 48.7333 1.45295 49.6412 2.35883C50.549 3.26471 51.002 4.3951 51 5.75V37.4265C51 38.7794 50.5471 39.9088 49.6412 40.8147C48.7353 41.7206 47.6039 42.1745 46.2471 42.1765H14.5765ZM14.5765 39.2353H46.25C46.701 39.2353 47.1157 39.0471 47.4941 38.6706C47.8725 38.2941 48.0608 37.8794 48.0588 37.4265V5.75C48.0588 5.29902 47.8706 4.88432 47.4941 4.50589C47.1176 4.12746 46.702 3.93922 46.2471 3.94118H14.5765C14.1235 3.94118 13.7078 4.12942 13.3294 4.50589C12.951 4.88236 12.7627 5.29706 12.7647 5.75V37.4265C12.7647 37.8774 12.9529 38.2922 13.3294 38.6706C13.7059 39.049 14.1206 39.2373 14.5735 39.2353M5.75 51C4.39706 51 3.26667 50.5471 2.35883 49.6412C1.45099 48.7353 0.998046 47.6049 1.00001 46.25V13.1029C1.00001 12.6853 1.1402 12.3363 1.42059 12.0559C1.70099 11.7755 2.05099 11.6353 2.47059 11.6353C2.8902 11.6353 3.2402 11.7755 3.52059 12.0559C3.80099 12.3363 3.94118 12.6863 3.94118 13.1059V46.25C3.94118 46.701 4.12942 47.1157 4.50589 47.4941C4.88236 47.8725 5.29706 48.0608 5.75 48.0588H38.8971C39.3147 48.0588 39.6637 48.199 39.9441 48.4794C40.2245 48.7598 40.3657 49.1098 40.3676 49.5294C40.3696 49.949 40.2284 50.299 39.9441 50.5794C39.6598 50.8598 39.3108 51 38.8971 51H5.75Z" fill="black"/>
<path d="M12.5647 3.94118V39.2353H12.9647V3.94118H12.5647ZM9.82353 37.4265H9.42353V37.427L9.82353 37.4265ZM14.5765 1.00001L14.5759 1.40001H14.5765V1.00001ZM51 5.75L50.6 5.74943V5.75H51ZM46.2471 42.1765V42.5765H46.2476L46.2471 42.1765ZM48.0588 37.4265H47.6588L47.6588 37.4282L48.0588 37.4265ZM46.2471 3.94118V4.34119L46.2488 4.34118L46.2471 3.94118ZM12.7647 5.75H13.1647L13.1647 5.74827L12.7647 5.75ZM1.00001 46.25L1.40001 46.2506V46.25H1.00001ZM5.75 48.0588V47.6588L5.74827 47.6588L5.75 48.0588ZM21.5882 32.2824H28.8823V31.4824H21.5882V32.2824ZM28.8823 32.2824C29.4012 32.2824 29.8554 32.1048 30.2171 31.7456L29.6534 31.1779C29.4504 31.3795 29.2027 31.4824 28.8823 31.4824V32.2824ZM30.2171 31.7456C30.5806 31.3847 30.7578 30.9289 30.7529 30.408L29.953 30.4155C29.9559 30.7338 29.8547 30.9781 29.6534 31.1779L30.2171 31.7456ZM30.7529 30.408C30.7481 29.8921 30.5717 29.4404 30.2172 29.0809L29.6475 29.6426C29.846 29.8439 29.9499 30.0922 29.953 30.4155L30.7529 30.408ZM30.2172 29.0809C29.8595 28.7181 29.404 28.5412 28.8823 28.5412V29.3412C29.2078 29.3412 29.4523 29.4446 29.6475 29.6426L30.2172 29.0809ZM28.8823 28.5412H21.5882V29.3412H28.8823V28.5412ZM21.5882 28.5412C21.0708 28.5412 20.6177 28.7191 20.2564 29.0779L20.8201 29.6456C21.0235 29.4436 21.2704 29.3412 21.5882 29.3412V28.5412ZM20.2564 29.0779C19.8934 29.4383 19.7152 29.8933 19.7177 30.4136L20.5176 30.4099C20.5162 30.091 20.6183 29.846 20.8201 29.6456L20.2564 29.0779ZM19.7177 30.4136C19.7201 30.931 19.8971 31.3838 20.2544 31.7436L20.8221 31.1799C20.6225 30.979 20.5191 30.7317 20.5176 30.4099L19.7177 30.4136ZM20.2544 31.7436C20.6133 32.1051 21.068 32.2824 21.5882 32.2824V31.4824C21.2653 31.4824 21.02 31.3793 20.8221 31.1799L20.2544 31.7436ZM21.5882 23.4588H39.1235V22.6588H21.5882V23.4588ZM39.1235 23.4588C39.641 23.4588 40.0937 23.2808 40.4534 22.9211L39.8877 22.3554C39.6867 22.5564 39.4414 22.6588 39.1235 22.6588V23.4588ZM40.4534 22.9211C40.8131 22.5615 40.9917 22.1083 40.9941 21.5901L40.1941 21.5864C40.1926 21.9073 40.0889 22.1542 39.8877 22.3554L40.4534 22.9211ZM40.9941 21.5901C40.9965 21.0689 40.8167 20.6136 40.4515 20.2534L39.8897 20.823C40.0931 21.0236 40.1956 21.2683 40.1941 21.5864L40.9941 21.5901ZM40.4515 20.2534C40.0893 19.8963 39.6381 19.7177 39.1235 19.7177V20.5177C39.4364 20.5177 39.6832 20.6194 39.8897 20.823L40.4515 20.2534ZM39.1235 19.7177H21.5882V20.5177H39.1235V19.7177ZM21.5882 19.7177C21.0708 19.7177 20.6177 19.8956 20.2564 20.2544L20.8201 20.8221C21.0235 20.6201 21.2704 20.5177 21.5882 20.5177V19.7177ZM20.2564 20.2544C19.8934 20.6148 19.7152 21.0698 19.7177 21.5901L20.5176 21.5864C20.5162 21.2675 20.6183 21.0224 20.8201 20.8221L20.2564 20.2544ZM19.7177 21.5901C19.7201 22.1075 19.8971 22.5603 20.2544 22.9201L20.8221 22.3564C20.6225 22.1554 20.5191 21.9082 20.5176 21.5864L19.7177 21.5901ZM20.2544 22.9201C20.6133 23.2815 21.068 23.4588 21.5882 23.4588V22.6588C21.2653 22.6588 21.02 22.5557 20.8221 22.3564L20.2544 22.9201ZM21.5882 14.6353H39.1235V13.8353H21.5882V14.6353ZM39.1235 14.6353C39.641 14.6353 40.0937 14.4573 40.4534 14.0976L39.8877 13.5319C39.6867 13.7329 39.4414 13.8353 39.1235 13.8353V14.6353ZM40.4534 14.0976C40.8131 13.7379 40.9917 13.2848 40.9941 12.7666L40.1941 12.7628C40.1926 13.0838 40.0889 13.3307 39.8877 13.5319L40.4534 14.0976ZM40.9941 12.7666C40.9965 12.2454 40.8167 11.7901 40.4515 11.4299L39.8897 11.9995C40.0931 12.2001 40.1956 12.4448 40.1941 12.7628L40.9941 12.7666ZM40.4515 11.4299C40.0893 11.0728 39.6381 10.8941 39.1235 10.8941V11.6941C39.4364 11.6941 39.6832 11.7959 39.8897 11.9995L40.4515 11.4299ZM39.1235 10.8941H21.5882V11.6941H39.1235V10.8941ZM21.5882 10.8941C21.0708 10.8941 20.6177 11.0721 20.2564 11.4309L20.8201 11.9985C21.0235 11.7966 21.2704 11.6941 21.5882 11.6941V10.8941ZM20.2564 11.4309C19.8934 11.7913 19.7152 12.2463 19.7177 12.7666L20.5176 12.7628C20.5162 12.4439 20.6183 12.1989 20.8201 11.9985L20.2564 11.4309ZM19.7177 12.7666C19.7201 13.2839 19.8971 13.7367 20.2544 14.0966L20.8221 13.5329C20.6225 13.3319 20.5191 13.0847 20.5176 12.7628L19.7177 12.7666ZM20.2544 14.0966C20.6133 14.458 21.068 14.6353 21.5882 14.6353V13.8353C21.2653 13.8353 21.02 13.7322 20.8221 13.5329L20.2544 14.0966ZM14.5765 41.7765C13.3209 41.7765 12.2943 41.361 11.4681 40.5348L10.9025 41.1005C11.888 42.0861 13.1223 42.5765 14.5765 42.5765V41.7765ZM11.4681 40.5348C10.6418 39.7085 10.2254 38.6817 10.2235 37.4259L9.42353 37.427C9.42564 38.8811 9.91704 40.1151 10.9025 41.1005L11.4681 40.5348ZM10.2235 37.4265V5.75H9.42353V37.4265H10.2235ZM10.2235 5.75C10.2235 4.49681 10.6397 3.47013 11.4681 2.64167L10.9025 2.07599C9.91523 3.06321 9.42353 4.29732 9.42353 5.75H10.2235ZM11.4681 2.64167C12.2964 1.81337 13.3229 1.39819 14.5759 1.40001L14.5771 0.600007C13.1242 0.597901 11.8898 1.08861 10.9025 2.07599L11.4681 2.64167ZM14.5765 1.40001H46.25V0.600006H14.5765V1.40001ZM46.25 1.40001C47.5035 1.40001 48.5302 1.81537 49.3586 2.64198L49.9237 2.07568C48.9364 1.09053 47.7024 0.600006 46.25 0.600006V1.40001ZM49.3586 2.64198C50.1865 3.46809 50.6018 4.49428 50.6 5.74943L51.4 5.75058C51.4021 4.29593 50.9115 3.06134 49.9237 2.07568L49.3586 2.64198ZM50.6 5.75V37.4265H51.4V5.75H50.6ZM50.6 37.4265C50.6 38.6799 50.1846 39.7055 49.3583 40.5319L49.924 41.0975C50.9095 40.1121 51.4 38.8789 51.4 37.4265H50.6ZM49.3583 40.5319C48.5321 41.3581 47.5044 41.7747 46.2465 41.7765L46.2476 42.5765C47.7034 42.5744 48.9385 42.0831 49.924 41.0975L49.3583 40.5319ZM46.2471 41.7765H14.5765V42.5765H46.2471V41.7765ZM14.5765 39.6353H46.25V38.8353H14.5765V39.6353ZM46.25 39.6353C46.8259 39.6353 47.3376 39.3905 47.7762 38.9542L47.212 38.387C46.8937 38.7036 46.5761 38.8353 46.25 38.8353V39.6353ZM47.7762 38.9542C48.2159 38.5167 48.4613 38.0037 48.4588 37.4247L47.6588 37.4282C47.6602 37.7551 47.5292 38.0715 47.212 38.387L47.7762 38.9542ZM48.4588 37.4265V5.75H47.6588V37.4265H48.4588ZM48.4588 5.75C48.4588 5.17413 48.214 4.66238 47.7777 4.22378L47.2105 4.78799C47.5271 5.10626 47.6588 5.42392 47.6588 5.75H48.4588ZM47.7777 4.22378C47.3399 3.78368 46.8258 3.53868 46.2453 3.54119L46.2488 4.34118C46.5781 4.33976 46.8954 4.47124 47.2105 4.78799L47.7777 4.22378ZM46.2471 3.54118H14.5765V4.34118H46.2471V3.54118ZM14.5765 3.54118C13.9991 3.54118 13.4863 3.78559 13.0473 4.22231L13.6115 4.78946C13.9294 4.47324 14.248 4.34118 14.5765 4.34118V3.54118ZM13.0473 4.22231C12.6076 4.65974 12.3622 5.17276 12.3647 5.75174L13.1647 5.74827C13.1633 5.42137 13.2944 5.10498 13.6115 4.78946L13.0473 4.22231ZM12.3647 5.75V37.4265H13.1647V5.75H12.3647ZM12.3647 37.4265C12.3647 38.0023 12.6095 38.5141 13.0458 38.9527L13.613 38.3885C13.2964 38.0702 13.1647 37.7526 13.1647 37.4265H12.3647ZM13.0458 38.9527C13.4833 39.3924 13.9963 39.6378 14.5753 39.6353L14.5718 38.8353C14.2449 38.8367 13.9285 38.7056 13.613 38.3885L13.0458 38.9527ZM5.75 50.6C4.49654 50.6 3.46976 50.1846 2.64137 49.358L2.07629 49.9243C3.06358 50.9095 4.29759 51.4 5.75 51.4V50.6ZM2.64137 49.358C1.81347 48.5319 1.39819 47.5057 1.40001 46.2506L0.600007 46.2494C0.597902 47.7041 1.0885 48.9387 2.07629 49.9243L2.64137 49.358ZM1.40001 46.25V13.1029H0.600006V46.25H1.40001ZM1.40001 13.1029C1.40001 12.7851 1.50239 12.5398 1.70344 12.3387L1.13775 11.773C0.778017 12.1328 0.600006 12.5855 0.600006 13.1029H1.40001ZM1.70344 12.3387C1.9041 12.1381 2.15022 12.0353 2.47059 12.0353V11.2353C1.95176 11.2353 1.49787 11.4129 1.13775 11.773L1.70344 12.3387ZM2.47059 12.0353C2.79097 12.0353 3.03709 12.1381 3.23775 12.3387L3.80344 11.773C3.44332 11.4129 2.98943 11.2353 2.47059 11.2353V12.0353ZM3.23775 12.3387C3.43842 12.5394 3.54118 12.7855 3.54118 13.1059H4.34118C4.34118 12.587 4.16356 12.1332 3.80344 11.773L3.23775 12.3387ZM3.54118 13.1059V46.25H4.34118V13.1059H3.54118ZM3.54118 46.25C3.54118 46.8259 3.78598 47.3376 4.22231 47.7762L4.78946 47.212C4.47285 46.8937 4.34118 46.5761 4.34118 46.25H3.54118ZM4.22231 47.7762C4.65974 48.2159 5.17276 48.4613 5.75174 48.4588L5.74827 47.6588C5.42137 47.6602 5.10497 47.5292 4.78946 47.212L4.22231 47.7762ZM5.75 48.4588H38.8971V47.6588H5.75V48.4588ZM38.8971 48.4588C39.2149 48.4588 39.4602 48.5612 39.6613 48.7622L40.227 48.1966C39.8672 47.8368 39.4145 47.6588 38.8971 47.6588V48.4588ZM39.6613 48.7622C39.8624 48.9634 39.9661 49.2103 39.9676 49.5313L40.7676 49.5275C40.7652 49.0093 40.5866 48.5562 40.227 48.1966L39.6613 48.7622ZM39.9676 49.5313C39.9691 49.8493 39.8666 50.094 39.6632 50.2946L40.225 50.8642C40.5902 50.504 40.7701 50.0487 40.7676 49.5275L39.9676 49.5313ZM39.6632 50.2946C39.4567 50.4983 39.2099 50.6 38.8971 50.6V51.4C39.4117 51.4 39.8629 51.2213 40.225 50.8642L39.6632 50.2946ZM38.8971 50.6H5.75V51.4H38.8971V50.6Z" fill="black" mask="url(#path-1-outside-1_572_228)"/>
</svg>
