<svg width="52" height="52" viewBox="0 0 52 52" fill="none" xmlns="http://www.w3.org/2000/svg">
<path d="M27.8534 24.1429C27.8534 23.6503 27.6578 23.1779 27.3095 22.8297C26.9612 22.4814 26.4888 22.2857 25.9963 22.2857C25.5037 22.2857 25.0314 22.4814 24.6831 22.8297C24.3348 23.1779 24.1391 23.6503 24.1391 24.1429V35.2857C24.1391 35.7783 24.3348 36.2506 24.6831 36.5989C25.0314 36.9472 25.5037 37.1429 25.9963 37.1429C26.4888 37.1429 26.9612 36.9472 27.3095 36.5989C27.6578 36.2506 27.8534 35.7783 27.8534 35.2857V24.1429ZM28.782 16.7143C28.782 17.4526 28.4887 18.1607 27.9666 18.6828C27.4446 19.2048 26.7365 19.4981 25.9981 19.4981C25.2598 19.4981 24.5517 19.2048 24.0297 18.6828C23.5076 18.1607 23.2143 17.4526 23.2143 16.7143C23.2143 15.9765 23.5074 15.2688 24.0291 14.7471C24.5508 14.2254 25.2585 13.9323 25.9963 13.9323C26.7341 13.9323 27.4417 14.2254 27.9635 14.7471C28.4852 15.2688 28.782 15.9765 28.782 16.7143ZM26 0C19.1044 0 12.4912 2.73928 7.61522 7.61522C2.73928 12.4912 0 19.1044 0 26C0 32.8956 2.73928 39.5088 7.61522 44.3848C12.4912 49.2607 19.1044 52 26 52C32.8956 52 39.5088 49.2607 44.3848 44.3848C49.2607 39.5088 52 32.8956 52 26C52 19.1044 49.2607 12.4912 44.3848 7.61522C39.5088 2.73928 32.8956 0 26 0ZM3.71429 26C3.71429 23.0734 4.29072 20.1755 5.41068 17.4716C6.53065 14.7678 8.1722 12.311 10.2416 10.2416C12.311 8.1722 14.7678 6.53065 17.4716 5.41068C20.1755 4.29072 23.0734 3.71429 26 3.71429C28.9266 3.71429 31.8245 4.29072 34.5284 5.41068C37.2322 6.53065 39.689 8.1722 41.7584 10.2416C43.8278 12.311 45.4693 14.7678 46.5893 17.4716C47.7093 20.1755 48.2857 23.0734 48.2857 26C48.2857 31.9105 45.9378 37.579 41.7584 41.7584C37.579 45.9378 31.9105 48.2857 26 48.2857C20.0895 48.2857 14.421 45.9378 10.2416 41.7584C6.06224 37.579 3.71429 31.9105 3.71429 26Z" fill="black"/>
</svg>
