<svg width="60" height="61" viewBox="0 0 60 61" fill="none" xmlns="http://www.w3.org/2000/svg">
<path d="M24 0.505127C15.7155 0.505127 9 6.90057 9 14.7902C9 22.6799 15.7155 29.0753 24 29.0753C32.2845 29.0753 39 22.6799 39 14.7902C39 6.90057 32.2845 0.505127 24 0.505127ZM6.375 34.7894C4.6845 34.7894 3.06322 35.4288 1.86772 36.5671C0.672223 37.7053 0.000397763 39.2492 0 40.8591V41.9319C0 47.296 2.913 51.313 7.38 53.9029C11.775 56.4499 17.6775 57.6455 23.997 57.6455C23.999 57.176 24.065 56.6984 24.195 56.2128L25.452 51.5915C25.7826 50.3771 26.4433 49.2671 27.3675 48.3731L41.4135 34.7894H6.375ZM58.251 30.7438C57.6938 30.2129 57.0317 29.7923 56.303 29.5063C55.5743 29.2203 54.7933 29.0746 54.0051 29.0775C53.2169 29.0804 52.4371 29.2319 51.7108 29.5233C50.9844 29.8147 50.3258 30.2402 49.773 30.7753L29.5065 50.3787C28.9517 50.9147 28.5549 51.5803 28.356 52.3086L27.099 56.9284C26.5245 59.0383 28.5405 60.9568 30.7545 60.4111L35.607 59.2126C36.3716 59.0236 37.0705 58.6462 37.6335 58.1184L58.218 38.8178C58.7796 38.2913 59.2262 37.6642 59.532 36.9726C59.8378 36.281 59.9969 35.5385 60 34.7881C60.003 34.0376 59.8501 33.294 59.5499 32.6001C59.2497 31.9063 58.8082 31.2759 58.251 30.7453" fill="#FFFFF3"/>
</svg>
