<svg width="50" height="50" viewBox="0 0 50 50" fill="none" xmlns="http://www.w3.org/2000/svg">
<path d="M4.01667 12.5V12.65H4.16667H45.8333H45.9833V12.5V10.4167C45.9833 8.71928 45.309 7.09142 44.1088 5.89118C42.9086 4.69095 41.2807 4.01667 39.5833 4.01667H10.4167C8.71928 4.01667 7.09142 4.69095 5.89118 5.89118C4.69095 7.09142 4.01667 8.71928 4.01667 10.4167V12.5ZM45.9833 16.6667V16.5167H45.8333H4.16667H4.01667V16.6667V39.5833C4.01667 41.2807 4.69095 42.9086 5.89118 44.1088C7.09142 45.309 8.71928 45.9833 10.4167 45.9833H39.5833C41.2807 45.9833 42.9086 45.309 44.1088 44.1088C45.309 42.9086 45.9833 41.2807 45.9833 39.5833V16.6667ZM15.6453 28.1453C15.0874 28.7032 14.3307 29.0167 13.5417 29.0167C12.7526 29.0167 11.9959 28.7032 11.438 28.1453C10.8801 27.5874 10.5667 26.8307 10.5667 26.0417C10.5667 25.2526 10.8801 24.4959 11.438 23.938C11.9959 23.3801 12.7526 23.0667 13.5417 23.0667C14.3307 23.0667 15.0874 23.3801 15.6453 23.938C16.2032 24.4959 16.5167 25.2526 16.5167 26.0417C16.5167 26.8307 16.2032 27.5874 15.6453 28.1453ZM16.5167 36.4583C16.5167 37.2473 16.2032 38.0041 15.6453 38.562C15.0874 39.1199 14.3307 39.4333 13.5417 39.4333C12.7526 39.4333 11.9959 39.1199 11.438 38.562C10.8801 38.0041 10.5667 37.2473 10.5667 36.4583C10.5667 35.6693 10.8801 34.9126 11.438 34.3547C11.9959 33.7968 12.7526 33.4833 13.5417 33.4833C14.3307 33.4833 15.0874 33.7968 15.6453 34.3547C16.2032 34.9126 16.5167 35.6693 16.5167 36.4583ZM27.1036 38.562C26.5457 39.1199 25.789 39.4333 25 39.4333C24.211 39.4333 23.4543 39.1199 22.8964 38.562C22.3384 38.0041 22.025 37.2473 22.025 36.4583C22.025 35.6693 22.3384 34.9126 22.8964 34.3547C23.4543 33.7968 24.211 33.4833 25 33.4833C25.789 33.4833 26.5457 33.7968 27.1036 34.3547C27.6616 34.9126 27.975 35.6693 27.975 36.4583C27.975 37.2473 27.6616 38.0041 27.1036 38.562ZM27.975 26.0417C27.975 26.8307 27.6616 27.5874 27.1036 28.1453C26.5457 28.7032 25.789 29.0167 25 29.0167C24.211 29.0167 23.4543 28.7032 22.8964 28.1453C22.3384 27.5874 22.025 26.8307 22.025 26.0417C22.025 25.2526 22.3384 24.4959 22.8964 23.938C23.4543 23.3801 24.211 23.0667 25 23.0667C25.789 23.0667 26.5457 23.3801 27.1036 23.938C27.6616 24.4959 27.975 25.2526 27.975 26.0417ZM38.562 28.1453C38.0041 28.7032 37.2473 29.0167 36.4583 29.0167C35.6693 29.0167 34.9126 28.7032 34.3547 28.1453C33.7968 27.5874 33.4833 26.8307 33.4833 26.0417C33.4833 25.2526 33.7968 24.4959 34.3547 23.938C34.9126 23.3801 35.6693 23.0667 36.4583 23.0667C37.2473 23.0667 38.0041 23.3801 38.562 23.938C39.1199 24.4959 39.4333 25.2526 39.4333 26.0417C39.4333 26.8307 39.1199 27.5874 38.562 28.1453ZM0.15 10.4167C0.15 7.69378 1.23166 5.08241 3.15704 3.15704C5.08241 1.23166 7.69378 0.15 10.4167 0.15H39.5833C42.3062 0.15 44.9176 1.23166 46.843 3.15704C48.7683 5.08241 49.85 7.69378 49.85 10.4167V39.5833C49.85 42.3062 48.7683 44.9176 46.843 46.843C44.9176 48.7683 42.3062 49.85 39.5833 49.85H10.4167C7.69378 49.85 5.08241 48.7683 3.15704 46.843C1.23166 44.9176 0.15 42.3062 0.15 39.5833V10.4167Z" fill="black" stroke="#DCEFE1" stroke-width="0.3"/>
</svg>
