<svg width="61" height="61" viewBox="0 0 61 61" fill="none" xmlns="http://www.w3.org/2000/svg">
<path d="M35.8472 29.7173C39.6884 29.7173 43.3723 28.1908 46.0885 25.4736C48.8046 22.7564 50.3305 19.0711 50.3305 15.2284C50.3305 11.3857 48.8046 7.7004 46.0885 4.9832C43.3723 2.26601 39.6884 0.739502 35.8472 0.739502C32.006 0.739502 28.3221 2.26601 25.6059 4.9832C22.8898 7.7004 21.3639 11.3857 21.3639 15.2284C21.3639 19.0711 22.8898 22.7564 25.6059 25.4736C28.3221 28.1908 32.006 29.7173 35.8472 29.7173ZM35.8472 58.6951C35.1506 58.6951 34.4609 58.6765 33.7782 58.6392C33.7632 57.2868 33.2195 55.9941 32.2636 55.0377L27.091 49.8631C28.0634 47.8346 28.6055 45.564 28.6055 43.1713C28.61 39.8117 27.5206 36.542 25.502 33.857H53.4341C55.3547 33.857 57.1967 34.6202 58.5547 35.9788C59.9128 37.3374 60.6758 39.1801 60.6758 41.1014V42.1364C60.6758 47.0895 57.5246 51.2788 53.0513 54.1269C48.5532 56.9916 42.464 58.6951 35.8472 58.6951ZM13.0877 55.5903C15.7692 55.5903 18.252 54.7417 20.2797 53.2928L27.1427 60.1585C27.5329 60.5355 28.0556 60.7441 28.5981 60.7394C29.1406 60.7347 29.6595 60.517 30.0431 60.1333C30.4268 59.7495 30.6444 59.2303 30.6491 58.6876C30.6538 58.1449 30.4452 57.6221 30.0683 57.2317L23.2074 50.3681C24.8201 48.0992 25.624 45.354 25.49 42.5732C25.356 39.7924 24.2918 37.1373 22.4684 35.0342C20.645 32.931 18.168 31.5017 15.4352 30.9758C12.7023 30.4499 9.8721 30.8578 7.39883 32.1342C4.92555 33.4105 2.95269 35.4811 1.79695 38.0137C0.64121 40.5463 0.369629 43.394 1.0258 46.0995C1.68198 48.805 3.22785 51.2115 5.41525 52.9327C7.60265 54.6538 10.3047 55.5898 13.0877 55.5903ZM13.0877 51.4506C10.8927 51.4506 8.7876 50.5784 7.23551 49.0257C5.68343 47.473 4.81147 45.3671 4.81147 43.1713C4.81147 40.9754 5.68343 38.8696 7.23551 37.3169C8.7876 35.7642 10.8927 34.8919 13.0877 34.8919C15.2826 34.8919 17.3877 35.7642 18.9398 37.3169C20.4919 38.8696 21.3639 40.9754 21.3639 43.1713C21.3639 45.3671 20.4919 47.473 18.9398 49.0257C17.3877 50.5784 15.2826 51.4506 13.0877 51.4506Z" fill="#FFFFF3"/>
</svg>
