<svg width="366" height="223" viewBox="0 0 366 223" fill="none" xmlns="http://www.w3.org/2000/svg">
<rect width="366" height="223" rx="15" fill="#A9A9A9"/>
<path d="M109.253 58.16C107.664 58.16 106.437 57.664 105.573 56.672C104.72 55.6693 104.293 54.2453 104.293 52.4C104.293 50.5653 104.725 49.1467 105.589 48.144C106.453 47.1413 107.674 46.64 109.253 46.64C109.893 46.64 110.49 46.752 111.045 46.976C111.61 47.1893 112.085 47.4933 112.469 47.888C112.405 48.1333 112.298 48.3413 112.149 48.512C112 48.6827 111.845 48.768 111.685 48.768C111.536 48.768 111.397 48.72 111.269 48.624C110.949 48.3787 110.624 48.2027 110.293 48.096C109.973 47.9787 109.616 47.92 109.221 47.92C108.133 47.92 107.312 48.2987 106.757 49.056C106.202 49.8027 105.925 50.9173 105.925 52.4C105.925 53.8613 106.202 54.9707 106.757 55.728C107.322 56.4853 108.144 56.864 109.221 56.864C109.712 56.864 110.165 56.7893 110.581 56.64C110.997 56.48 111.392 56.2347 111.765 55.904C111.936 55.9467 112.08 56.0373 112.197 56.176C112.314 56.3147 112.373 56.4693 112.373 56.64C112.373 56.9067 112.229 57.1573 111.941 57.392C111.653 57.616 111.264 57.8027 110.773 57.952C110.293 58.0907 109.786 58.16 109.253 58.16ZM120.987 55.44C120.987 56.0587 121.024 56.528 121.099 56.848C121.184 57.168 121.328 57.4453 121.531 57.68C121.382 57.7973 121.2 57.8987 120.987 57.984C120.774 58.0587 120.576 58.096 120.395 58.096C119.904 58.096 119.611 57.6587 119.515 56.784C119.195 57.2213 118.784 57.5627 118.283 57.808C117.792 58.0427 117.238 58.16 116.619 58.16C115.819 58.16 115.174 57.952 114.683 57.536C114.203 57.12 113.963 56.5653 113.963 55.872C113.963 53.9093 115.798 52.8373 119.467 52.656V52.032C119.467 51.4133 119.312 50.9547 119.003 50.656C118.694 50.3573 118.214 50.208 117.563 50.208C117.136 50.208 116.736 50.2933 116.363 50.464C115.99 50.6347 115.563 50.9333 115.083 51.36C115.008 51.4133 114.939 51.44 114.875 51.44C114.736 51.44 114.587 51.3707 114.427 51.232C114.267 51.0827 114.118 50.88 113.979 50.624C114.427 50.1227 114.982 49.7333 115.643 49.456C116.304 49.1787 116.992 49.04 117.707 49.04C118.731 49.04 119.531 49.3067 120.107 49.84C120.694 50.3627 120.987 51.0933 120.987 52.032V55.44ZM116.955 57.056C117.446 57.056 117.904 56.912 118.331 56.624C118.758 56.3253 119.136 55.904 119.467 55.36V53.648C116.822 53.7653 115.499 54.4747 115.499 55.776C115.499 56.192 115.622 56.512 115.867 56.736C116.123 56.9493 116.486 57.056 116.955 57.056ZM127.236 49.088C128.078 49.088 128.5 49.4027 128.5 50.032C128.5 50.288 128.43 50.496 128.292 50.656C128.014 50.5173 127.652 50.448 127.204 50.448C126.5 50.448 125.945 50.7093 125.54 51.232C125.145 51.744 124.948 52.4533 124.948 53.36V58H123.428V49.2H124.948V50.672C125.182 50.192 125.502 49.808 125.908 49.52C126.324 49.232 126.766 49.088 127.236 49.088ZM133.845 49.088C134.688 49.088 135.109 49.4027 135.109 50.032C135.109 50.288 135.04 50.496 134.901 50.656C134.624 50.5173 134.261 50.448 133.813 50.448C133.109 50.448 132.554 50.7093 132.149 51.232C131.754 51.744 131.557 52.4533 131.557 53.36V58H130.037V49.2H131.557V50.672C131.792 50.192 132.112 49.808 132.517 49.52C132.933 49.232 133.376 49.088 133.845 49.088ZM143.878 52.992C143.878 53.2053 143.862 53.4827 143.83 53.824H137.686C137.729 54.8373 137.964 55.6267 138.39 56.192C138.817 56.7467 139.404 57.024 140.15 57.024C140.652 57.024 141.068 56.9227 141.398 56.72C141.74 56.5173 142.07 56.1653 142.39 55.664C142.476 55.5467 142.593 55.488 142.742 55.488C142.988 55.488 143.308 55.632 143.702 55.92C143.425 56.624 142.977 57.1733 142.358 57.568C141.74 57.9627 141.004 58.16 140.15 58.16C139.329 58.16 138.614 57.9787 138.006 57.616C137.409 57.2427 136.95 56.7147 136.63 56.032C136.31 55.3387 136.15 54.5227 136.15 53.584C136.15 52.1653 136.508 51.056 137.222 50.256C137.948 49.4453 138.945 49.04 140.214 49.04C141.377 49.04 142.278 49.3867 142.918 50.08C143.558 50.7733 143.878 51.744 143.878 52.992ZM142.326 52.8C142.326 51.04 141.606 50.16 140.166 50.16C139.452 50.16 138.886 50.384 138.47 50.832C138.054 51.28 137.804 51.936 137.718 52.8H142.326ZM152.909 48.576C153.154 48.576 153.33 48.6507 153.437 48.8C153.554 48.9387 153.613 49.1733 153.613 49.504C153.613 49.664 153.607 49.7867 153.597 49.872C152.829 49.872 152.29 49.9733 151.981 50.176C152.386 50.6773 152.589 51.28 152.589 51.984C152.589 52.9973 152.279 53.7653 151.661 54.288C151.042 54.8 150.135 55.056 148.941 55.056C148.29 55.056 147.821 55.104 147.533 55.2C147.255 55.2853 147.117 55.4293 147.117 55.632C147.117 55.856 147.293 56.0213 147.645 56.128C148.007 56.224 148.599 56.272 149.421 56.272C150.647 56.272 151.591 56.48 152.253 56.896C152.925 57.312 153.261 57.8987 153.261 58.656C153.261 59.4773 152.898 60.1173 152.173 60.576C151.447 61.0347 150.423 61.264 149.101 61.264C147.831 61.264 146.855 61.0613 146.173 60.656C145.501 60.2613 145.165 59.6853 145.165 58.928C145.165 58.48 145.319 58.1013 145.629 57.792C145.949 57.472 146.402 57.248 146.989 57.12V57.072C146.637 56.9867 146.354 56.832 146.141 56.608C145.938 56.3733 145.837 56.1013 145.837 55.792C145.837 55.5253 145.943 55.2853 146.157 55.072C146.381 54.8587 146.679 54.704 147.053 54.608C146.573 54.352 146.194 54.016 145.917 53.6C145.65 53.1733 145.517 52.6987 145.517 52.176C145.517 51.152 145.831 50.3733 146.461 49.84C147.101 49.3067 148.029 49.04 149.245 49.04C149.949 49.04 150.573 49.184 151.117 49.472C151.373 49.1947 151.661 48.976 151.981 48.816C152.301 48.656 152.61 48.576 152.909 48.576ZM149.037 53.952C149.741 53.952 150.247 53.8027 150.557 53.504C150.866 53.2053 151.021 52.72 151.021 52.048C151.021 51.376 150.861 50.8853 150.541 50.576C150.231 50.2667 149.73 50.112 149.037 50.112C148.365 50.112 147.869 50.272 147.549 50.592C147.229 50.9013 147.069 51.3867 147.069 52.048C147.069 53.3173 147.725 53.952 149.037 53.952ZM149.165 57.424C147.543 57.424 146.733 57.8667 146.733 58.752C146.733 59.68 147.522 60.144 149.101 60.144C149.975 60.144 150.637 60.0267 151.085 59.792C151.533 59.5573 151.757 59.2107 151.757 58.752C151.757 58.2933 151.549 57.9573 151.133 57.744C150.727 57.5307 150.071 57.424 149.165 57.424ZM161.612 55.44C161.612 56.0587 161.649 56.528 161.724 56.848C161.809 57.168 161.953 57.4453 162.156 57.68C162.007 57.7973 161.825 57.8987 161.612 57.984C161.399 58.0587 161.201 58.096 161.02 58.096C160.529 58.096 160.236 57.6587 160.14 56.784C159.82 57.2213 159.409 57.5627 158.908 57.808C158.417 58.0427 157.863 58.16 157.244 58.16C156.444 58.16 155.799 57.952 155.308 57.536C154.828 57.12 154.588 56.5653 154.588 55.872C154.588 53.9093 156.423 52.8373 160.092 52.656V52.032C160.092 51.4133 159.937 50.9547 159.628 50.656C159.319 50.3573 158.839 50.208 158.188 50.208C157.761 50.208 157.361 50.2933 156.988 50.464C156.615 50.6347 156.188 50.9333 155.708 51.36C155.633 51.4133 155.564 51.44 155.5 51.44C155.361 51.44 155.212 51.3707 155.052 51.232C154.892 51.0827 154.743 50.88 154.604 50.624C155.052 50.1227 155.607 49.7333 156.268 49.456C156.929 49.1787 157.617 49.04 158.332 49.04C159.356 49.04 160.156 49.3067 160.732 49.84C161.319 50.3627 161.612 51.0933 161.612 52.032V55.44ZM157.58 57.056C158.071 57.056 158.529 56.912 158.956 56.624C159.383 56.3253 159.761 55.904 160.092 55.36V53.648C157.447 53.7653 156.124 54.4747 156.124 55.776C156.124 56.192 156.247 56.512 156.492 56.736C156.748 56.9493 157.111 57.056 157.58 57.056ZM167.861 49.088C168.703 49.088 169.125 49.4027 169.125 50.032C169.125 50.288 169.055 50.496 168.917 50.656C168.639 50.5173 168.277 50.448 167.829 50.448C167.125 50.448 166.57 50.7093 166.165 51.232C165.77 51.744 165.573 52.4533 165.573 53.36V58H164.053V49.2H165.573V50.672C165.807 50.192 166.127 49.808 166.533 49.52C166.949 49.232 167.391 49.088 167.861 49.088ZM175.539 46.8H177.139V58H175.539V46.8ZM189.757 49.04C190.546 49.04 191.181 49.2853 191.661 49.776C192.141 50.2667 192.381 50.9173 192.381 51.728V58H190.845V51.776C190.845 51.1893 190.727 50.768 190.493 50.512C190.269 50.2453 189.895 50.112 189.373 50.112C188.583 50.112 187.853 50.48 187.181 51.216C187.191 51.2907 187.197 51.3973 187.197 51.536V58H185.693V51.616C185.693 51.136 185.57 50.768 185.325 50.512C185.079 50.2453 184.733 50.112 184.285 50.112C183.89 50.112 183.506 50.2133 183.133 50.416C182.77 50.608 182.397 50.912 182.013 51.328V58H180.493V52.24C180.493 50.6933 180.429 49.76 180.301 49.44C180.482 49.3547 180.669 49.2853 180.861 49.232C181.063 49.168 181.239 49.136 181.389 49.136C181.602 49.136 181.757 49.2213 181.853 49.392C181.949 49.552 182.002 49.8133 182.013 50.176C182.407 49.7813 182.818 49.4933 183.245 49.312C183.671 49.1307 184.157 49.04 184.701 49.04C185.191 49.04 185.629 49.152 186.013 49.376C186.397 49.5893 186.69 49.888 186.893 50.272C187.287 49.8453 187.714 49.536 188.173 49.344C188.642 49.1413 189.17 49.04 189.757 49.04ZM201.503 55.44C201.503 56.0587 201.54 56.528 201.615 56.848C201.7 57.168 201.844 57.4453 202.047 57.68C201.897 57.7973 201.716 57.8987 201.503 57.984C201.289 58.0587 201.092 58.096 200.911 58.096C200.42 58.096 200.127 57.6587 200.031 56.784C199.711 57.2213 199.3 57.5627 198.799 57.808C198.308 58.0427 197.753 58.16 197.135 58.16C196.335 58.16 195.689 57.952 195.199 57.536C194.719 57.12 194.479 56.5653 194.479 55.872C194.479 53.9093 196.313 52.8373 199.983 52.656V52.032C199.983 51.4133 199.828 50.9547 199.519 50.656C199.209 50.3573 198.729 50.208 198.079 50.208C197.652 50.208 197.252 50.2933 196.879 50.464C196.505 50.6347 196.079 50.9333 195.599 51.36C195.524 51.4133 195.455 51.44 195.391 51.44C195.252 51.44 195.103 51.3707 194.943 51.232C194.783 51.0827 194.633 50.88 194.495 50.624C194.943 50.1227 195.497 49.7333 196.159 49.456C196.82 49.1787 197.508 49.04 198.223 49.04C199.247 49.04 200.047 49.3067 200.623 49.84C201.209 50.3627 201.503 51.0933 201.503 52.032V55.44ZM197.471 57.056C197.961 57.056 198.42 56.912 198.847 56.624C199.273 56.3253 199.652 55.904 199.983 55.36V53.648C197.337 53.7653 196.015 54.4747 196.015 55.776C196.015 56.192 196.137 56.512 196.383 56.736C196.639 56.9493 197.001 57.056 197.471 57.056ZM211.127 48.576C211.373 48.576 211.549 48.6507 211.655 48.8C211.773 48.9387 211.831 49.1733 211.831 49.504C211.831 49.664 211.826 49.7867 211.815 49.872C211.047 49.872 210.509 49.9733 210.199 50.176C210.605 50.6773 210.807 51.28 210.807 51.984C210.807 52.9973 210.498 53.7653 209.879 54.288C209.261 54.8 208.354 55.056 207.159 55.056C206.509 55.056 206.039 55.104 205.751 55.2C205.474 55.2853 205.335 55.4293 205.335 55.632C205.335 55.856 205.511 56.0213 205.863 56.128C206.226 56.224 206.818 56.272 207.639 56.272C208.866 56.272 209.81 56.48 210.471 56.896C211.143 57.312 211.479 57.8987 211.479 58.656C211.479 59.4773 211.117 60.1173 210.391 60.576C209.666 61.0347 208.642 61.264 207.319 61.264C206.05 61.264 205.074 61.0613 204.391 60.656C203.719 60.2613 203.383 59.6853 203.383 58.928C203.383 58.48 203.538 58.1013 203.847 57.792C204.167 57.472 204.621 57.248 205.207 57.12V57.072C204.855 56.9867 204.573 56.832 204.359 56.608C204.157 56.3733 204.055 56.1013 204.055 55.792C204.055 55.5253 204.162 55.2853 204.375 55.072C204.599 54.8587 204.898 54.704 205.271 54.608C204.791 54.352 204.413 54.016 204.135 53.6C203.869 53.1733 203.735 52.6987 203.735 52.176C203.735 51.152 204.05 50.3733 204.679 49.84C205.319 49.3067 206.247 49.04 207.463 49.04C208.167 49.04 208.791 49.184 209.335 49.472C209.591 49.1947 209.879 48.976 210.199 48.816C210.519 48.656 210.829 48.576 211.127 48.576ZM207.255 53.952C207.959 53.952 208.466 53.8027 208.775 53.504C209.085 53.2053 209.239 52.72 209.239 52.048C209.239 51.376 209.079 50.8853 208.759 50.576C208.45 50.2667 207.949 50.112 207.255 50.112C206.583 50.112 206.087 50.272 205.767 50.592C205.447 50.9013 205.287 51.3867 205.287 52.048C205.287 53.3173 205.943 53.952 207.255 53.952ZM207.383 57.424C205.762 57.424 204.951 57.8667 204.951 58.752C204.951 59.68 205.741 60.144 207.319 60.144C208.194 60.144 208.855 60.0267 209.303 59.792C209.751 59.5573 209.975 59.2107 209.975 58.752C209.975 58.2933 209.767 57.9573 209.351 57.744C208.946 57.5307 208.29 57.424 207.383 57.424ZM220.535 52.992C220.535 53.2053 220.519 53.4827 220.487 53.824H214.343C214.385 54.8373 214.62 55.6267 215.047 56.192C215.473 56.7467 216.06 57.024 216.807 57.024C217.308 57.024 217.724 56.9227 218.055 56.72C218.396 56.5173 218.727 56.1653 219.047 55.664C219.132 55.5467 219.249 55.488 219.399 55.488C219.644 55.488 219.964 55.632 220.359 55.92C220.081 56.624 219.633 57.1733 219.015 57.568C218.396 57.9627 217.66 58.16 216.807 58.16C215.985 58.16 215.271 57.9787 214.663 57.616C214.065 57.2427 213.607 56.7147 213.287 56.032C212.967 55.3387 212.807 54.5227 212.807 53.584C212.807 52.1653 213.164 51.056 213.879 50.256C214.604 49.4453 215.601 49.04 216.871 49.04C218.033 49.04 218.935 49.3867 219.575 50.08C220.215 50.7733 220.535 51.744 220.535 52.992ZM218.983 52.8C218.983 51.04 218.263 50.16 216.823 50.16C216.108 50.16 215.543 50.384 215.127 50.832C214.711 51.28 214.46 51.936 214.375 52.8H218.983ZM231.757 49.04C232.546 49.04 233.181 49.2853 233.661 49.776C234.141 50.2667 234.381 50.9173 234.381 51.728V58H232.845V51.776C232.845 51.1893 232.727 50.768 232.493 50.512C232.269 50.2453 231.895 50.112 231.373 50.112C230.583 50.112 229.853 50.48 229.181 51.216C229.191 51.2907 229.197 51.3973 229.197 51.536V58H227.693V51.616C227.693 51.136 227.57 50.768 227.325 50.512C227.079 50.2453 226.733 50.112 226.285 50.112C225.89 50.112 225.506 50.2133 225.133 50.416C224.77 50.608 224.397 50.912 224.013 51.328V58H222.493V52.24C222.493 50.6933 222.429 49.76 222.301 49.44C222.482 49.3547 222.669 49.2853 222.861 49.232C223.063 49.168 223.239 49.136 223.389 49.136C223.602 49.136 223.757 49.2213 223.853 49.392C223.949 49.552 224.002 49.8133 224.013 50.176C224.407 49.7813 224.818 49.4933 225.245 49.312C225.671 49.1307 226.157 49.04 226.701 49.04C227.191 49.04 227.629 49.152 228.013 49.376C228.397 49.5893 228.69 49.888 228.893 50.272C229.287 49.8453 229.714 49.536 230.173 49.344C230.642 49.1413 231.17 49.04 231.757 49.04ZM238.111 58.032C237.513 58.032 237.215 57.7333 237.215 57.136V56.96C237.215 56.3627 237.513 56.064 238.111 56.064H238.271C238.868 56.064 239.167 56.3627 239.167 56.96V57.136C239.167 57.7333 238.868 58.032 238.271 58.032H238.111ZM243.048 58.032C242.451 58.032 242.152 57.7333 242.152 57.136V56.96C242.152 56.3627 242.451 56.064 243.048 56.064H243.208C243.805 56.064 244.104 56.3627 244.104 56.96V57.136C244.104 57.7333 243.805 58.032 243.208 58.032H243.048ZM247.986 58.032C247.388 58.032 247.09 57.7333 247.09 57.136V56.96C247.09 56.3627 247.388 56.064 247.986 56.064H248.146C248.743 56.064 249.042 56.3627 249.042 56.96V57.136C249.042 57.7333 248.743 58.032 248.146 58.032H247.986Z" fill="#606060"/>
<path d="M237 109.714V174C237 179.523 232.523 184 227 184H132C128.022 184 124.206 182.435 121.393 179.648C118.58 176.862 117 173.083 117 169.143V109.714M154.5 132L177 154.286M177 154.286L199.5 132M177 154.286V80" stroke="#606060" stroke-width="6" stroke-linecap="round" stroke-linejoin="round"/>
</svg>
