<svg xmlns="http://www.w3.org/2000/svg" xmlns:xlink="http://www.w3.org/1999/xlink" width="500" zoomAndPan="magnify" viewBox="0 0 375 374.999991" height="500" preserveAspectRatio="xMidYMid meet" version="1.0"><defs><clipPath id="d98c28ca80"><path d="M 117 44 L 262 44 L 262 179 L 117 179 Z M 117 44 " clip-rule="nonzero"/></clipPath><clipPath id="5dbbc3c3ec"><path d="M 153.871094 19.640625 L 285.097656 87.398438 L 225.488281 202.84375 L 94.261719 135.085938 Z M 153.871094 19.640625 " clip-rule="nonzero"/></clipPath><clipPath id="4a1eb722bd"><path d="M 219.339844 53.445312 C 183.179688 34.777344 140.527344 45.484375 124.066406 77.363281 C 107.605469 109.242188 123.574219 150.21875 159.730469 168.890625 C 195.886719 187.558594 238.542969 176.851562 255.003906 144.972656 C 271.464844 113.09375 255.496094 72.113281 219.339844 53.445312 Z M 219.339844 53.445312 " clip-rule="nonzero"/></clipPath><clipPath id="f01536bb0c"><path d="M 189 192 L 197 192 L 197 199 L 189 199 Z M 189 192 " clip-rule="nonzero"/></clipPath><clipPath id="10964f8f1a"><path d="M 188.480469 194.871094 L 195.21875 191.089844 L 197.855469 195.789062 L 191.121094 199.570312 Z M 188.480469 194.871094 " clip-rule="nonzero"/></clipPath><clipPath id="9213d0717b"><path d="M 191.847656 192.984375 C 189.988281 194.027344 189.070312 195.925781 189.800781 197.222656 C 190.527344 198.519531 192.625 198.726562 194.484375 197.683594 C 196.34375 196.636719 197.261719 194.738281 196.535156 193.441406 C 195.804688 192.144531 193.707031 191.9375 191.847656 192.984375 Z M 191.847656 192.984375 " clip-rule="nonzero"/></clipPath><clipPath id="a01ed3d850"><path d="M 255 122 L 261 122 L 261 139 L 255 139 Z M 255 122 " clip-rule="nonzero"/></clipPath><clipPath id="103eac0c09"><path d="M 254.375 138.34375 L 256.667969 122.164062 L 261.886719 122.902344 L 259.589844 139.082031 Z M 254.375 138.34375 " clip-rule="nonzero"/></clipPath><clipPath id="bb6d5c55c6"><path d="M 255.519531 130.261719 C 254.886719 134.722656 255.542969 138.507812 256.984375 138.710938 C 258.421875 138.917969 260.105469 135.464844 260.738281 131 C 261.371094 126.535156 260.714844 122.753906 259.273438 122.546875 C 257.835938 122.34375 256.152344 125.796875 255.519531 130.261719 Z M 255.519531 130.261719 " clip-rule="nonzero"/></clipPath><clipPath id="679ea1e099"><path d="M 197 43 L 227 43 L 227 56 L 197 56 Z M 197 43 " clip-rule="nonzero"/></clipPath><clipPath id="4e14412b83"><path d="M 225.9375 57.917969 L 196.5625 47.589844 L 198.578125 41.863281 L 227.949219 52.191406 Z M 225.9375 57.917969 " clip-rule="nonzero"/></clipPath><clipPath id="6190b2c93d"><path d="M 211.25 52.753906 C 219.363281 55.605469 226.386719 56.636719 226.945312 55.054688 C 227.5 53.472656 221.375 49.878906 213.265625 47.027344 C 205.152344 44.175781 198.128906 43.144531 197.570312 44.726562 C 197.015625 46.308594 203.140625 49.902344 211.25 52.753906 Z M 211.25 52.753906 " clip-rule="nonzero"/></clipPath><clipPath id="c36fb71964"><path d="M 127 56 L 143 56 L 143 70 L 127 70 Z M 127 56 " clip-rule="nonzero"/></clipPath><clipPath id="2d2543c6a8"><path d="M 143.9375 58.957031 L 129.824219 71.355469 L 126.1875 67.214844 L 140.300781 54.816406 Z M 143.9375 58.957031 " clip-rule="nonzero"/></clipPath><clipPath id="71bf24a86e"><path d="M 136.886719 65.152344 C 140.78125 61.730469 143.125 58.03125 142.121094 56.886719 C 141.117188 55.742188 137.144531 57.589844 133.25 61.015625 C 129.355469 64.4375 127.011719 68.136719 128.015625 69.28125 C 129.019531 70.421875 132.988281 68.574219 136.886719 65.152344 Z M 136.886719 65.152344 " clip-rule="nonzero"/></clipPath><clipPath id="a88611a9bf"><path d="M 121 60 L 254 60 L 254 188 L 121 188 Z M 121 60 " clip-rule="nonzero"/></clipPath><clipPath id="0d65b77758"><path d="M 112.566406 82.710938 L 237.867188 46.242188 L 271.402344 161.460938 L 146.101562 197.929688 Z M 112.566406 82.710938 " clip-rule="nonzero"/></clipPath><clipPath id="f6267c0500"><path d="M 112.566406 82.710938 L 237.867188 46.242188 L 274.335938 171.542969 L 149.035156 208.011719 Z M 112.566406 82.710938 " clip-rule="nonzero"/></clipPath><clipPath id="1666bb3e1d"><path d="M 210 163 L 224 163 L 224 177 L 210 177 Z M 210 163 " clip-rule="nonzero"/></clipPath><clipPath id="dc3e8ec1f3"><path d="M 210 165.507812 L 222.121094 163.839844 L 223.605469 174.621094 L 211.484375 176.292969 Z M 210 165.507812 " clip-rule="nonzero"/></clipPath><clipPath id="65833978fb"><path d="M 170 199 L 277 199 L 277 348 L 170 348 Z M 170 199 " clip-rule="nonzero"/></clipPath><clipPath id="1072fc814c"><path d="M 170.988281 340.234375 L 265.097656 199.027344 L 276.683594 206.75 L 182.574219 347.957031 Z M 170.988281 340.234375 " clip-rule="nonzero"/></clipPath><clipPath id="dba43972a1"><path d="M 268 173 L 296 173 L 296 208 L 268 208 Z M 268 173 " clip-rule="nonzero"/></clipPath><clipPath id="fcc9d6ac97"><path d="M 268.253906 201.738281 L 287.273438 173.203125 L 295.609375 178.757812 L 276.59375 207.296875 Z M 268.253906 201.738281 " clip-rule="nonzero"/></clipPath><clipPath id="7f64889ec9"><path d="M 126 176 L 289 176 L 289 266 L 126 266 Z M 126 176 " clip-rule="nonzero"/></clipPath><clipPath id="2e9ed58ccf"><path d="M 126.203125 249.570312 L 281.628906 176.292969 L 288.988281 191.902344 L 133.5625 265.179688 Z M 126.203125 249.570312 " clip-rule="nonzero"/></clipPath><clipPath id="f62b5fa019"><path d="M 77 133 L 201 133 L 201 342 L 77 342 Z M 77 133 " clip-rule="nonzero"/></clipPath><clipPath id="52024f10b5"><path d="M 172.117188 341.457031 L 77.871094 147.363281 L 106.121094 133.648438 L 200.367188 327.738281 Z M 172.117188 341.457031 " clip-rule="nonzero"/></clipPath><clipPath id="02e11bd9e1"><path d="M 126 167 L 219 167 L 219 312 L 126 312 Z M 126 167 " clip-rule="nonzero"/></clipPath><clipPath id="4cdb5f009a"><path d="M 189.898438 311.195312 L 126.617188 180.878906 L 154.867188 167.160156 L 218.148438 297.480469 Z M 189.898438 311.195312 " clip-rule="nonzero"/></clipPath><clipPath id="8d9a7199b4"><path d="M 194 192 L 272 192 L 272 289 L 194 289 Z M 194 192 " clip-rule="nonzero"/></clipPath><clipPath id="599ee982b3"><path d="M 194.332031 273.558594 L 248.71875 192.316406 L 271.488281 207.558594 L 217.101562 288.800781 Z M 194.332031 273.558594 " clip-rule="nonzero"/></clipPath><clipPath id="02d37ea2cd"><path d="M 173 202 L 232 202 L 232 268 L 173 268 Z M 173 202 " clip-rule="nonzero"/></clipPath><clipPath id="6ce78e26e8"><path d="M 173.417969 249.941406 L 205.050781 202.6875 L 231.527344 220.414062 L 199.894531 267.664062 Z M 173.417969 249.941406 " clip-rule="nonzero"/></clipPath><clipPath id="d73dcba415"><path d="M 163.285156 195.742188 L 239 195.742188 L 239 227.605469 L 163.285156 227.605469 Z M 163.285156 195.742188 " clip-rule="nonzero"/></clipPath><clipPath id="6b8a1df7e5"><path d="M 77 130 L 201 130 L 201 208 L 77 208 Z M 77 130 " clip-rule="nonzero"/></clipPath><clipPath id="692400226e"><path d="M 87.3125 130.632812 L 200.371094 189.226562 L 191.003906 207.300781 L 77.945312 148.710938 Z M 87.3125 130.632812 " clip-rule="nonzero"/></clipPath><clipPath id="ebd394b3bb"><path d="M 114 163 L 140 163 L 140 190 L 114 190 Z M 114 163 " clip-rule="nonzero"/></clipPath><clipPath id="1968396ec3"><path d="M 123.601562 163.222656 L 139.160156 171.285156 L 129.792969 189.359375 L 114.234375 181.300781 Z M 123.601562 163.222656 " clip-rule="nonzero"/></clipPath><clipPath id="96f531da01"><path d="M 181.789062 178.9375 L 205.363281 178.9375 L 205.363281 189.359375 L 181.789062 189.359375 Z M 181.789062 178.9375 " clip-rule="nonzero"/></clipPath><clipPath id="429bc6e862"><path d="M 200 177 L 214 177 L 214 188 L 200 188 Z M 200 177 " clip-rule="nonzero"/></clipPath><clipPath id="a1437db01a"><path d="M 212.339844 177.882812 L 213.632812 185.460938 L 201.65625 187.5 L 200.363281 179.925781 Z M 212.339844 177.882812 " clip-rule="nonzero"/></clipPath><clipPath id="8acc057cc7"><path d="M 82 78 L 137 78 L 137 166 L 82 166 Z M 82 78 " clip-rule="nonzero"/></clipPath><clipPath id="738c831245"><path d="M 101.382812 78.316406 L 136.210938 157.324219 L 117.582031 165.535156 L 82.753906 86.53125 Z M 101.382812 78.316406 " clip-rule="nonzero"/></clipPath><clipPath id="17c4f59da2"><path d="M 77 88 L 109 88 L 109 143 L 77 143 Z M 77 88 " clip-rule="nonzero"/></clipPath><clipPath id="9593072531"><path d="M 108.03125 88.859375 L 106.695312 143.011719 L 77.941406 142.300781 L 79.28125 88.148438 Z M 108.03125 88.859375 " clip-rule="nonzero"/></clipPath><clipPath id="d480621eca"><path d="M 77 49 L 131 49 L 131 113 L 77 113 Z M 77 49 " clip-rule="nonzero"/></clipPath><clipPath id="c019688403"><path d="M 130.851562 63.996094 L 107.5625 112.902344 L 77.941406 98.796875 L 101.230469 49.890625 Z M 130.851562 63.996094 " clip-rule="nonzero"/></clipPath><clipPath id="38d7f2ef07"><path d="M 102 88 L 120 88 L 120 118 L 102 118 Z M 102 88 " clip-rule="nonzero"/></clipPath><clipPath id="dd60d7b593"><path d="M 115.042969 88.144531 L 119.402344 115.433594 L 107.167969 117.390625 L 102.804688 90.101562 Z M 115.042969 88.144531 " clip-rule="nonzero"/></clipPath><clipPath id="4723368b1c"><path d="M 101 23 L 156 23 L 156 75 L 101 75 Z M 101 23 " clip-rule="nonzero"/></clipPath><clipPath id="648f5c0c96"><path d="M 155.664062 49.515625 L 121.34375 74.734375 L 101.917969 48.296875 L 136.238281 23.078125 Z M 155.664062 49.515625 " clip-rule="nonzero"/></clipPath><clipPath id="6a51b5aed0"><path d="M 135 10 L 192 10 L 192 55 L 135 55 Z M 135 10 " clip-rule="nonzero"/></clipPath><clipPath id="3e2ef53695"><path d="M 191.941406 41.792969 L 143.492188 54.808594 L 134.980469 23.125 L 183.429688 10.109375 Z M 191.941406 41.792969 " clip-rule="nonzero"/></clipPath><clipPath id="37c6fbe7d4"><path d="M 175 11 L 230 11 L 230 50 L 175 50 Z M 175 11 " clip-rule="nonzero"/></clipPath><clipPath id="9aebc734f6"><path d="M 225.425781 49.886719 L 175.613281 43.925781 L 179.511719 11.351562 L 229.324219 17.3125 Z M 225.425781 49.886719 " clip-rule="nonzero"/></clipPath><clipPath id="26e859dba9"><path d="M 210 19 L 271 19 L 271 73 L 210 73 Z M 210 19 " clip-rule="nonzero"/></clipPath><clipPath id="a613d33be2"><path d="M 253.792969 72.945312 L 210.296875 47.949219 L 226.644531 19.503906 L 270.140625 44.5 Z M 253.792969 72.945312 " clip-rule="nonzero"/></clipPath><clipPath id="9a7e435c89"><path d="M 239 45 L 294 45 L 294 106 L 239 106 Z M 239 45 " clip-rule="nonzero"/></clipPath><clipPath id="85428c141d"><path d="M 262.414062 105.566406 L 239.617188 60.878906 L 270.445312 45.152344 L 293.242188 89.839844 Z M 262.414062 105.566406 " clip-rule="nonzero"/></clipPath><clipPath id="217d7140ec"><path d="M 256 83 L 293 83 L 293 121 L 256 121 Z M 256 83 " clip-rule="nonzero"/></clipPath><clipPath id="2001d34261"><path d="M 257.992188 120.46875 L 256.425781 85.441406 L 290.996094 83.890625 L 292.566406 118.917969 Z M 257.992188 120.46875 " clip-rule="nonzero"/></clipPath><clipPath id="1f999af622"><path d="M 255 108 L 289 108 L 289 144 L 255 144 Z M 255 108 " clip-rule="nonzero"/></clipPath><clipPath id="b2493c6d58"><path d="M 255.324219 133.832031 L 266.882812 108.199219 L 288.984375 118.167969 L 277.425781 143.800781 Z M 255.324219 133.832031 " clip-rule="nonzero"/></clipPath><clipPath id="fc6756499b"><path d="M 244 131 L 275 131 L 275 164 L 244 164 Z M 244 131 " clip-rule="nonzero"/></clipPath><clipPath id="0264804bde"><path d="M 244.921875 153.972656 L 262.105469 131.71875 L 274.882812 141.585938 L 257.699219 163.839844 Z M 244.921875 153.972656 " clip-rule="nonzero"/></clipPath><clipPath id="678c83ed4d"><path d="M 232 150 L 260 150 L 260 175 L 232 175 Z M 232 150 " clip-rule="nonzero"/></clipPath><clipPath id="32b2ab0fac"><path d="M 232.914062 167.988281 L 255.039062 150.640625 L 259.902344 156.84375 L 237.777344 174.191406 Z M 232.914062 167.988281 " clip-rule="nonzero"/></clipPath></defs><path stroke-linecap="round" transform="matrix(0.417211, -0.623245, 0.623245, 0.417211, 179.970257, 349.49655)" fill="none" stroke-linejoin="miter" d="M 3.498939 3.502999 L 228.239599 3.498774 " stroke="#009846" stroke-width="7" stroke-opacity="1" stroke-miterlimit="4"/><path stroke-linecap="round" transform="matrix(0.361402, -0.657182, 0.657182, 0.361402, 274.380865, 208.663609)" fill="none" stroke-linejoin="miter" d="M 3.499 3.49964 L 42.31993 3.501586 " stroke="#009846" stroke-width="7" stroke-opacity="1" stroke-miterlimit="4"/><path stroke-linecap="round" transform="matrix(0.288304, -0.692373, 0.692373, 0.288304, 288.77603, 182.966429)" fill="none" stroke-linejoin="miter" d="M 3.501027 3.497594 L 17.633641 3.497204 " stroke="#009846" stroke-width="7" stroke-opacity="1" stroke-miterlimit="4"/><path stroke-linecap="round" transform="matrix(0.675645, -0.325583, 0.325583, 0.675645, 268.999352, 181.612181)" fill="none" stroke-linejoin="miter" d="M 3.501154 3.498395 L 38.399157 3.49678 " stroke="#009846" stroke-width="7" stroke-opacity="1" stroke-miterlimit="4"/><g clip-path="url(#d98c28ca80)"><g clip-path="url(#5dbbc3c3ec)"><g clip-path="url(#4a1eb722bd)"><path fill="#002279" d="M 153.871094 19.640625 L 284.648438 87.164062 L 225.039062 202.609375 L 94.261719 135.085938 Z M 153.871094 19.640625 " fill-opacity="1" fill-rule="nonzero"/></g></g></g><path stroke-linecap="round" transform="matrix(0.738348, -0.13169, 0.13169, 0.738348, 188.373844, 193.400978)" fill="none" stroke-linejoin="miter" d="M 4.460958 4.363311 C 42.498076 15.200064 80.539355 15.186686 118.577837 4.332519 " stroke="#009846" stroke-width="7" stroke-opacity="1" stroke-miterlimit="4"/><path stroke-linecap="round" transform="matrix(-0.378298, -0.647603, 0.647603, -0.378298, 257.11578, 133.357081)" fill="none" stroke-linejoin="miter" d="M 4.975143 4.910985 C 45.49947 34.717715 86.026619 34.698572 126.550223 4.843805 " stroke="#009846" stroke-width="7" stroke-opacity="1" stroke-miterlimit="4"/><path stroke-linecap="round" transform="matrix(-0.738046, 0.133371, -0.133371, -0.738046, 211.555654, 50.686816)" fill="none" stroke-linejoin="miter" d="M 4.723139 4.652737 C 35.898673 19.024655 67.075057 19.011192 98.253217 4.607223 " stroke="#009846" stroke-width="7" stroke-opacity="1" stroke-miterlimit="4"/><path stroke-linecap="round" transform="matrix(-0.184787, 0.72688, -0.72688, -0.184787, 138.832056, 61.051909)" fill="none" stroke-linejoin="miter" d="M 4.903772 4.815273 C 31.543057 20.882558 58.18296 20.865305 84.822198 4.758467 " stroke="#009846" stroke-width="7" stroke-opacity="1" stroke-miterlimit="4"/><path stroke-linecap="round" transform="matrix(0.470669, 0.583927, -0.583927, 0.470669, 120.589084, 118.131935)" fill="none" stroke-linejoin="miter" d="M 4.727577 4.618769 C 31.175038 15.627821 57.620679 15.617594 84.066982 4.576709 " stroke="#009846" stroke-width="7" stroke-opacity="1" stroke-miterlimit="4"/><g clip-path="url(#f01536bb0c)"><g clip-path="url(#10964f8f1a)"><g clip-path="url(#9213d0717b)"><path fill="#009846" d="M 188.480469 194.871094 L 195.21875 191.089844 L 197.855469 195.789062 L 191.121094 199.570312 Z M 188.480469 194.871094 " fill-opacity="1" fill-rule="nonzero"/></g></g></g><g clip-path="url(#a01ed3d850)"><g clip-path="url(#103eac0c09)"><g clip-path="url(#bb6d5c55c6)"><path fill="#009846" d="M 254.375 138.34375 L 256.664062 122.183594 L 261.882812 122.921875 L 259.589844 139.082031 Z M 254.375 138.34375 " fill-opacity="1" fill-rule="nonzero"/></g></g></g><g clip-path="url(#679ea1e099)"><g clip-path="url(#4e14412b83)"><g clip-path="url(#6190b2c93d)"><path fill="#009846" d="M 225.9375 57.917969 L 196.5625 47.589844 L 198.578125 41.863281 L 227.949219 52.191406 Z M 225.9375 57.917969 " fill-opacity="1" fill-rule="nonzero"/></g></g></g><g clip-path="url(#c36fb71964)"><g clip-path="url(#2d2543c6a8)"><g clip-path="url(#71bf24a86e)"><path fill="#009846" d="M 143.9375 58.957031 L 129.824219 71.355469 L 126.1875 67.214844 L 140.300781 54.816406 Z M 143.9375 58.957031 " fill-opacity="1" fill-rule="nonzero"/></g></g></g><path stroke-linecap="round" transform="matrix(-0.677053, -0.322643, 0.322643, -0.677053, 183.883322, 351.886177)" fill="none" stroke-linejoin="miter" d="M 3.498317 3.501571 L 21.441329 3.501388 " stroke="#009846" stroke-width="7" stroke-opacity="1" stroke-miterlimit="4"/><path stroke-linecap="round" transform="matrix(-0.327415, -0.674758, 0.674758, -0.327415, 168.626081, 345.619607)" fill="none" stroke-linejoin="miter" d="M 3.499589 3.496928 L 259.267946 3.497418 " stroke="#009846" stroke-width="7" stroke-opacity="1" stroke-miterlimit="4"/><path stroke-linecap="round" transform="matrix(0.0148118, 0.749854, -0.749854, 0.0148118, 87.39988, 77.696289)" fill="none" stroke-linejoin="miter" d="M 4.51563 4.461764 C 43.546639 17.782062 82.580603 17.766484 121.612108 4.42534 " stroke="#009846" stroke-width="7" stroke-opacity="1" stroke-miterlimit="4"/><path stroke-linecap="round" transform="matrix(-0.543486, 0.516839, -0.516839, -0.543486, 154.173614, 18.851685)" fill="none" stroke-linejoin="miter" d="M 4.715298 4.620893 C 44.550788 21.343563 84.396697 21.329509 124.234709 4.582877 " stroke="#009846" stroke-width="7" stroke-opacity="1" stroke-miterlimit="4"/><path stroke-linecap="round" transform="matrix(-0.749491, -0.0276302, 0.0276302, -0.749491, 240.576157, 26.809638)" fill="none" stroke-linejoin="miter" d="M 4.701745 4.612561 C 45.085538 21.35493 85.466616 21.341231 125.850182 4.571273 " stroke="#009846" stroke-width="7" stroke-opacity="1" stroke-miterlimit="4"/><path stroke-linecap="round" transform="matrix(-0.504853, -0.554638, 0.554638, -0.504853, 290.204107, 87.914973)" fill="none" stroke-linejoin="miter" d="M 4.687959 4.631624 C 41.169122 21.012765 77.650428 20.998203 114.131878 4.587939 " stroke="#009846" stroke-width="7" stroke-opacity="1" stroke-miterlimit="4"/><path stroke-linecap="round" transform="matrix(0.154571, -0.733899, 0.733899, 0.154571, 274.153491, 143.600952)" fill="none" stroke-linejoin="miter" d="M 4.776163 4.687678 C 31.072296 17.309983 57.368408 17.29644 83.668523 4.640881 " stroke="#009846" stroke-width="7" stroke-opacity="1" stroke-miterlimit="4"/><g clip-path="url(#a88611a9bf)"><g clip-path="url(#0d65b77758)"><g clip-path="url(#f6267c0500)"><path fill="#fffff3" d="M 218.753906 187.460938 C 218.488281 187.886719 217.925781 188.023438 217.496094 187.765625 C 217.066406 187.503906 216.933594 186.949219 217.199219 186.519531 C 222.085938 178.652344 223.875 172.730469 223.71875 168.078125 C 223.570312 163.523438 221.53125 160.15625 218.738281 157.351562 C 216.527344 155.132812 213.816406 153.238281 211.171875 151.390625 C 204.597656 146.789062 198.429688 142.476562 200.246094 133.941406 C 200.359375 133.414062 200.488281 132.886719 200.632812 132.355469 C 196.675781 133.726562 192.636719 136.734375 187.882812 142.46875 C 183.675781 147.542969 179.402344 149.332031 176.03125 149.222656 C 174.640625 149.175781 173.394531 148.808594 172.359375 148.207031 L 172.355469 148.207031 C 171.304688 147.601562 170.472656 146.753906 169.925781 145.765625 C 168.929688 143.976562 168.867188 141.742188 170.097656 139.621094 C 171.960938 136.40625 175.53125 135.023438 179.101562 133.636719 C 182.109375 132.472656 185.117188 131.304688 186.753906 129.070312 C 187.847656 127.578125 188.410156 125.679688 188.472656 123.636719 C 188.496094 122.851562 188.449219 122.050781 188.328125 121.242188 C 186.925781 122.277344 185.460938 122.847656 184.058594 123.046875 C 182.410156 123.277344 180.847656 122.996094 179.574219 122.34375 C 178.265625 121.675781 177.25 120.621094 176.734375 119.328125 C 175.949219 117.351562 176.320312 114.867188 178.582031 112.441406 C 179.324219 111.648438 180.269531 111.03125 181.386719 110.5625 C 179.242188 109.214844 176.628906 108.359375 173.582031 108.285156 C 165.988281 108.097656 161.058594 105.433594 158.921875 102.039062 C 157.886719 100.398438 157.496094 98.589844 157.757812 96.789062 C 158.015625 95.015625 158.914062 93.269531 160.460938 91.734375 C 162.578125 89.636719 165.953125 87.921875 170.597656 87.097656 C 169.046875 82.460938 169.292969 78.234375 170.761719 74.570312 C 167.441406 72.921875 163.664062 72.105469 160.046875 72.40625 C 160.035156 72.410156 160.023438 72.410156 160.015625 72.410156 L 159.980469 72.414062 C 155.308594 72.820312 150.894531 75.058594 147.738281 78.339844 C 145.671875 80.480469 144.152344 83.0625 143.453125 85.855469 C 144.199219 85.972656 144.941406 86.144531 145.675781 86.375 C 145.742188 86.394531 145.828125 86.425781 145.945312 86.464844 L 145.941406 86.464844 C 149.957031 87.808594 151.691406 89.910156 152.042969 91.957031 C 152.375 93.898438 151.460938 95.75 150.039062 96.910156 C 148.597656 98.085938 146.621094 98.558594 144.859375 97.714844 C 143.097656 96.871094 141.605469 94.703125 141.261719 90.566406 L 141.261719 90.542969 C 141.257812 90.53125 141.257812 90.519531 141.253906 90.507812 C 141.175781 89.488281 141.195312 88.476562 141.3125 87.488281 C 138.34375 87.4375 135.375 88.332031 132.726562 89.917969 C 128.902344 92.214844 125.75 95.941406 124.226562 100.34375 C 124.21875 100.359375 124.183594 100.472656 124.117188 100.675781 C 122.636719 105.230469 122.917969 110.503906 124.667969 114.988281 C 124.679688 115.011719 124.6875 115.035156 124.695312 115.058594 C 125.308594 116.609375 126.097656 118.0625 127.050781 119.351562 C 128.082031 117.332031 130.140625 115.679688 133.390625 114.75 C 137.089844 113.683594 139.519531 114.273438 140.898438 115.625 C 142.003906 116.714844 142.402344 118.261719 142.222656 119.847656 C 142.050781 121.351562 141.347656 122.910156 140.238281 124.121094 C 138.496094 126.015625 135.777344 127.085938 132.535156 125.859375 C 130.890625 125.234375 129.40625 124.316406 128.097656 123.171875 C 128.210938 124.84375 128.960938 126.632812 130.246094 128.328125 C 131.929688 130.550781 134.515625 132.589844 137.800781 134.003906 C 145.859375 137.476562 158.046875 137.140625 171.335938 126.519531 C 171.730469 126.207031 172.304688 126.265625 172.621094 126.65625 C 172.933594 127.042969 172.871094 127.613281 172.476562 127.925781 C 158.542969 139.058594 145.640625 139.359375 137.0625 135.660156 C 133.484375 134.121094 130.644531 131.875 128.785156 129.417969 C 126.867188 126.890625 125.972656 124.121094 126.335938 121.613281 C 126.34375 121.546875 126.355469 121.484375 126.367188 121.417969 C 124.960938 119.769531 123.828125 117.828125 123 115.726562 C 122.984375 115.699219 122.972656 115.675781 122.960938 115.648438 C 121.066406 110.796875 120.765625 105.082031 122.378906 100.128906 C 122.386719 100.101562 122.429688 99.980469 122.503906 99.769531 C 124.171875 94.953125 127.613281 90.878906 131.792969 88.371094 C 134.808594 86.5625 138.214844 85.566406 141.625 85.683594 C 142.371094 82.476562 144.082031 79.523438 146.421875 77.09375 C 149.871094 73.511719 154.707031 71.0625 159.832031 70.613281 L 159.867188 70.609375 C 159.878906 70.609375 159.890625 70.609375 159.902344 70.609375 C 163.828125 70.28125 167.921875 71.15625 171.519531 72.921875 C 172.472656 71.097656 173.738281 69.4375 175.226562 67.953125 C 178.046875 65.148438 181.6875 63.007812 185.574219 61.6875 C 189.453125 60.367188 193.585938 59.863281 197.402344 60.328125 C 201.71875 60.855469 205.621094 62.609375 208.304688 65.800781 C 210.472656 64.867188 212.851562 64.375 215.285156 64.308594 C 220.15625 64.179688 225.246094 65.773438 229.238281 68.941406 C 229.414062 69.082031 229.511719 69.160156 229.539062 69.179688 C 233.554688 72.492188 236.371094 77.476562 237.371094 82.585938 C 237.683594 84.164062 237.820312 85.757812 237.769531 87.320312 C 241.089844 88.128906 244.167969 89.625 246.71875 91.746094 C 250.28125 94.714844 252.800781 98.886719 253.492188 104.078125 C 253.695312 105.613281 253.738281 107.242188 253.597656 108.960938 C 253.523438 109.875 253.375 110.777344 253.140625 111.660156 C 252.375 114.542969 250.707031 117.121094 247.808594 118.871094 C 246.636719 119.578125 245.269531 120.148438 243.683594 120.542969 C 243.703125 120.828125 243.714844 121.113281 243.71875 121.398438 C 243.726562 122.316406 243.644531 123.246094 243.46875 124.160156 C 242.945312 126.84375 241.597656 129.46875 239.25 131.441406 C 236.925781 133.394531 233.636719 134.695312 229.226562 134.761719 C 227.507812 134.785156 225.628906 134.625 223.578125 134.242188 C 221.566406 133.871094 219.570312 133.441406 217.679688 133.03125 C 211.984375 131.804688 207.328125 130.796875 202.703125 131.777344 C 202.4375 132.625 202.210938 133.46875 202.035156 134.304688 C 200.464844 141.679688 206.160156 145.664062 212.234375 149.910156 C 214.9375 151.804688 217.714844 153.746094 220.042969 156.082031 C 223.128906 159.175781 225.378906 162.910156 225.546875 168 C 225.710938 172.992188 223.851562 179.257812 218.753906 187.460938 Z M 217.84375 178.40625 C 217.703125 178.683594 217.363281 178.800781 217.078125 178.664062 C 216.796875 178.523438 216.683594 178.1875 216.824219 177.90625 C 217.472656 176.621094 217.980469 175.425781 218.367188 174.304688 C 218.746094 173.1875 219.003906 172.160156 219.148438 171.207031 C 219.195312 170.898438 219.484375 170.683594 219.796875 170.726562 C 220.105469 170.773438 220.320312 171.058594 220.273438 171.367188 C 220.117188 172.398438 219.847656 173.492188 219.445312 174.660156 C 219.050781 175.824219 218.519531 177.070312 217.84375 178.40625 Z M 201.324219 130.160156 C 202.03125 128.183594 202.949219 126.210938 204.042969 124.328125 C 205.792969 121.320312 207.996094 118.539062 210.488281 116.328125 C 210.949219 115.921875 211.410156 115.527344 211.863281 115.152344 C 206.285156 113.597656 199.996094 112.082031 194.390625 111.410156 C 194.089844 112.265625 193.777344 113.117188 193.453125 113.957031 C 192.480469 116.480469 191.257812 118.40625 189.917969 119.824219 C 190.207031 121.121094 190.335938 122.421875 190.296875 123.679688 C 190.222656 126.082031 189.546875 128.335938 188.230469 130.128906 C 186.273438 132.796875 183.019531 134.0625 179.757812 135.328125 C 176.488281 136.59375 173.214844 137.863281 171.675781 140.515625 C 170.789062 142.042969 170.824219 143.628906 171.523438 144.886719 C 171.914062 145.59375 172.519531 146.203125 173.285156 146.648438 C 174.0625 147.097656 175.015625 147.375 176.097656 147.414062 C 178.972656 147.507812 182.691406 145.890625 186.476562 141.324219 C 192.058594 134.589844 196.707031 131.390625 201.324219 130.160156 Z M 205.621094 125.222656 C 204.773438 126.683594 204.035156 128.203125 203.433594 129.730469 C 207.941406 129.078125 212.542969 130.074219 218.074219 131.269531 C 219.867188 131.65625 221.761719 132.0625 223.921875 132.464844 C 225.863281 132.824219 227.621094 132.976562 229.207031 132.953125 C 233.148438 132.898438 236.054688 131.765625 238.074219 130.066406 C 240.074219 128.386719 241.222656 126.136719 241.675781 123.828125 C 241.832031 123.019531 241.902344 122.214844 241.894531 121.425781 C 241.894531 121.253906 241.890625 121.078125 241.878906 120.902344 C 240.027344 121.1875 237.925781 121.261719 235.539062 121.085938 C 232.90625 120.890625 229.925781 120.390625 226.554688 119.53125 C 225.558594 119.277344 223.949219 118.777344 221.894531 118.140625 C 219.699219 117.460938 216.984375 116.617188 213.992188 115.753906 C 213.242188 116.351562 212.476562 116.992188 211.703125 117.675781 C 209.351562 119.757812 207.273438 122.382812 205.621094 125.222656 Z M 213.601562 113.765625 C 214.957031 112.730469 216.277344 111.832031 217.558594 111.0625 C 219.960938 109.617188 222.230469 108.628906 224.347656 108.027344 C 225.960938 107.566406 227.511719 107.34375 228.984375 107.324219 C 232.589844 107.269531 235.726562 108.421875 238.171875 110.308594 C 240.617188 112.195312 242.363281 114.820312 243.1875 117.71875 C 243.28125 118.054688 243.367188 118.398438 243.4375 118.742188 C 244.753906 118.394531 245.894531 117.914062 246.867188 117.328125 C 249.316406 115.84375 250.726562 113.660156 251.378906 111.207031 C 251.585938 110.4375 251.714844 109.640625 251.78125 108.828125 C 251.90625 107.25 251.867188 105.746094 251.679688 104.328125 C 251.050781 99.609375 248.769531 95.820312 245.542969 93.132812 C 243.285156 91.253906 240.5625 89.90625 237.617188 89.152344 C 237.269531 91.761719 236.351562 94.230469 234.773438 96.339844 C 230.890625 101.53125 226.863281 103.148438 223.679688 102.78125 C 221.355469 102.515625 219.484375 101.195312 218.414062 99.410156 C 217.339844 97.625 217.066406 95.371094 217.929688 93.234375 C 219.097656 90.351562 222.347656 87.703125 228.523438 86.863281 C 230.28125 86.621094 232.050781 86.570312 233.785156 86.699219 C 234.515625 86.75 235.238281 86.839844 235.949219 86.953125 C 235.96875 85.632812 235.839844 84.285156 235.578125 82.945312 C 234.652344 78.222656 232.058594 73.621094 228.363281 70.574219 C 228.199219 70.4375 228.109375 70.363281 228.09375 70.351562 C 224.445312 67.453125 219.785156 66 215.328125 66.117188 C 213.269531 66.171875 211.253906 66.5625 209.40625 67.300781 C 210.421875 68.894531 211.179688 70.769531 211.609375 72.953125 C 211.859375 74.234375 211.949219 75.375 211.898438 76.390625 C 213.199219 77.066406 214.328125 78.105469 215.136719 79.332031 C 216.3125 81.113281 216.808594 83.300781 216.160156 85.34375 C 215.371094 87.839844 212.902344 90.070312 207.910156 90.960938 C 205.28125 91.429688 202.699219 91.496094 200.140625 91.335938 C 199.902344 92.25 199.65625 93.199219 199.402344 94.171875 C 198.15625 98.996094 196.746094 104.4375 194.972656 109.726562 C 201.078125 110.460938 207.804688 112.125 213.601562 113.765625 Z M 218.496094 112.609375 C 217.613281 113.136719 216.710938 113.730469 215.789062 114.394531 C 218.289062 115.125 220.558594 115.828125 222.453125 116.417969 C 224.476562 117.046875 226.066406 117.539062 227.019531 117.78125 C 230.277344 118.613281 233.152344 119.097656 235.683594 119.285156 C 237.949219 119.449219 239.929688 119.378906 241.648438 119.113281 C 241.589844 118.8125 241.515625 118.515625 241.433594 118.21875 C 240.714844 115.679688 239.183594 113.382812 237.046875 111.734375 C 234.914062 110.085938 232.167969 109.082031 229.003906 109.128906 C 227.683594 109.148438 226.292969 109.347656 224.84375 109.761719 C 222.882812 110.316406 220.761719 111.246094 218.496094 112.609375 Z M 188.597656 116.039062 C 188.867188 116.597656 189.105469 117.171875 189.316406 117.746094 C 190.21875 116.597656 191.046875 115.136719 191.75 113.316406 C 192.015625 112.625 192.277344 111.921875 192.53125 111.21875 C 189.832031 110.984375 187.34375 110.980469 185.234375 111.308594 C 186.640625 112.710938 187.765625 114.328125 188.597656 116.039062 Z M 186.949219 116.828125 C 186.042969 114.960938 184.746094 113.21875 183.078125 111.800781 C 181.773438 112.222656 180.699219 112.828125 179.914062 113.667969 C 178.203125 115.503906 177.886719 117.285156 178.433594 118.65625 C 178.78125 119.535156 179.492188 120.265625 180.414062 120.738281 C 181.367188 121.222656 182.546875 121.433594 183.804688 121.253906 C 185.140625 121.066406 186.554688 120.445312 187.890625 119.269531 Z M 183.199219 109.582031 C 183.328125 109.675781 183.457031 109.769531 183.582031 109.867188 C 186.257812 109.253906 189.546875 109.210938 193.117188 109.53125 C 194.9375 104.171875 196.371094 98.632812 197.636719 93.734375 C 197.863281 92.863281 198.085938 92.011719 198.300781 91.179688 C 195.550781 90.902344 192.820312 90.398438 190.085938 89.898438 C 187.980469 89.515625 185.871094 89.128906 183.785156 88.847656 C 183.308594 88.785156 182.835938 88.726562 182.371094 88.675781 C 182.304688 90.617188 181.773438 92.167969 180.960938 93.230469 C 180.378906 93.996094 179.644531 94.519531 178.824219 94.773438 C 177.992188 95.03125 177.089844 95.007812 176.183594 94.675781 C 174.617188 94.097656 173.011719 92.566406 171.746094 89.917969 C 171.566406 89.546875 171.398438 89.175781 171.242188 88.804688 C 166.839844 89.53125 163.6875 91.085938 161.75 93.011719 C 160.492188 94.253906 159.769531 95.644531 159.566406 97.039062 C 159.363281 98.410156 159.667969 99.804688 160.472656 101.082031 C 162.316406 104.007812 166.726562 106.308594 173.636719 106.476562 C 177.441406 106.570312 180.648438 107.753906 183.199219 109.582031 Z M 172.4375 86.824219 C 174.8125 86.542969 177.480469 86.480469 180.445312 86.6875 C 179.882812 82.492188 177.242188 78.851562 173.636719 76.289062 C 173.230469 76 172.8125 75.722656 172.382812 75.464844 C 171.125 78.792969 170.96875 82.625 172.4375 86.824219 Z M 182.300781 86.851562 C 182.871094 86.910156 183.449219 86.976562 184.039062 87.058594 C 186.199219 87.347656 188.3125 87.734375 190.425781 88.121094 C 193.207031 88.632812 195.984375 89.140625 198.773438 89.410156 C 199.699219 85.953125 200.570312 83.019531 201.503906 80.957031 C 200.976562 80.449219 200.535156 79.839844 200.214844 79.144531 C 199.203125 76.929688 199.453125 73.859375 202.28125 70.34375 C 202.292969 70.328125 202.304688 70.308594 202.320312 70.292969 C 202.394531 70.199219 202.457031 70.125 202.5 70.074219 C 203.675781 68.675781 205.066406 67.539062 206.601562 66.65625 C 204.222656 64.027344 200.867188 62.570312 197.171875 62.117188 C 193.632812 61.6875 189.78125 62.160156 186.152344 63.394531 C 182.527344 64.628906 179.132812 66.621094 176.511719 69.230469 C 175.148438 70.585938 173.992188 72.117188 173.128906 73.792969 C 173.667969 74.117188 174.195312 74.457031 174.707031 74.820312 C 178.742188 77.691406 181.695312 81.824219 182.273438 86.617188 C 182.285156 86.695312 182.292969 86.773438 182.300781 86.851562 Z M 180.554688 88.503906 C 177.804688 88.296875 175.328125 88.328125 173.125 88.554688 C 173.210938 88.746094 173.300781 88.941406 173.394531 89.136719 C 174.4375 91.320312 175.671875 92.550781 176.828125 92.976562 C 177.351562 93.167969 177.847656 93.1875 178.292969 93.050781 C 178.742188 92.910156 179.164062 92.601562 179.515625 92.140625 C 180.128906 91.335938 180.523438 90.101562 180.554688 88.503906 Z M 200.617188 89.550781 C 202.933594 89.675781 205.257812 89.597656 207.59375 89.179688 C 211.792969 88.433594 213.820312 86.710938 214.421875 84.8125 C 214.894531 83.320312 214.503906 81.683594 213.609375 80.320312 C 213.085938 79.527344 212.394531 78.835938 211.605469 78.320312 C 211.226562 79.742188 210.515625 80.796875 209.628906 81.53125 C 208.144531 82.75 206.183594 83.042969 204.398438 82.574219 C 203.917969 82.449219 203.449219 82.269531 203.007812 82.039062 C 202.214844 83.882812 201.441406 86.484375 200.617188 89.550781 Z M 209.921875 77.550781 C 209.847656 77.53125 209.769531 77.511719 209.695312 77.496094 C 207.84375 77.074219 205.753906 77.707031 204.023438 80.128906 C 203.957031 80.21875 203.894531 80.316406 203.828125 80.417969 C 204.160156 80.59375 204.511719 80.730469 204.871094 80.824219 C 206.121094 81.152344 207.472656 80.964844 208.472656 80.144531 C 209.144531 79.589844 209.671875 78.738281 209.921875 77.550781 Z M 202.535156 79.089844 C 204.765625 75.960938 207.566406 75.164062 210.085938 75.722656 C 210.074219 75.003906 209.992188 74.203125 209.8125 73.3125 C 209.414062 71.285156 208.695312 69.554688 207.722656 68.097656 C 206.285156 68.894531 204.988281 69.9375 203.898438 71.226562 C 203.832031 71.3125 203.777344 71.375 203.742188 71.417969 C 203.730469 71.433594 203.714844 71.449219 203.703125 71.460938 C 201.386719 74.34375 201.125 76.734375 201.882812 78.394531 C 202.027344 78.710938 202.207031 79 202.417969 79.261719 C 202.457031 79.203125 202.496094 79.144531 202.535156 79.089844 Z M 235.828125 88.769531 C 235.109375 88.644531 234.378906 88.554688 233.640625 88.5 C 232.039062 88.382812 230.402344 88.433594 228.761719 88.65625 C 223.351562 89.394531 220.566406 91.558594 219.621094 93.898438 C 218.980469 95.480469 219.183594 97.152344 219.980469 98.480469 C 220.777344 99.808594 222.167969 100.789062 223.902344 100.988281 C 226.503906 101.289062 229.886719 99.84375 233.308594 95.269531 C 234.722656 93.378906 235.535156 91.144531 235.828125 88.769531 Z M 143.125 87.640625 C 143.019531 88.53125 143 89.4375 143.074219 90.355469 C 143.074219 90.367188 143.074219 90.375 143.074219 90.386719 L 143.074219 90.40625 C 143.355469 93.796875 144.421875 95.5 145.660156 96.089844 C 146.71875 96.597656 147.957031 96.273438 148.890625 95.511719 C 149.839844 94.738281 150.457031 93.523438 150.242188 92.273438 C 149.992188 90.8125 148.613281 89.265625 145.351562 88.175781 L 145.347656 88.175781 C 145.296875 88.160156 145.214844 88.132812 145.109375 88.101562 C 144.457031 87.894531 143.792969 87.742188 143.125 87.640625 Z M 128.367188 120.917969 C 129.738281 122.34375 131.355469 123.472656 133.199219 124.171875 C 135.605469 125.082031 137.613281 124.300781 138.890625 122.90625 C 139.742188 121.980469 140.277344 120.792969 140.410156 119.652344 C 140.53125 118.589844 140.292969 117.582031 139.609375 116.910156 C 138.667969 115.988281 136.847656 115.632812 133.894531 116.480469 C 130.78125 117.371094 129.011719 118.992188 128.367188 120.917969 Z M 128.367188 120.917969 " fill-opacity="1" fill-rule="nonzero"/></g></g></g><g clip-path="url(#1666bb3e1d)"><g clip-path="url(#dc3e8ec1f3)"><path fill="#002279" d="M 210 165.507812 L 222.128906 163.839844 L 223.613281 174.621094 L 211.484375 176.292969 Z M 210 165.507812 " fill-opacity="1" fill-rule="nonzero"/></g></g><path stroke-linecap="round" transform="matrix(0.746196, 0.0754372, -0.0754372, 0.746196, 156.325542, 166.784564)" fill="none" stroke-linejoin="miter" d="M 4.441367 4.388821 C 32.941608 13.155181 61.434405 13.148631 89.934258 4.357238 " stroke="#009846" stroke-width="7" stroke-opacity="1" stroke-miterlimit="4"/><path stroke-linecap="round" transform="matrix(0.629079, -0.408363, 0.408363, 0.629079, 220.366029, 174.811145)" fill="none" stroke-linejoin="miter" d="M 4.655761 4.558156 C 32.503174 15.35143 60.348451 15.338825 88.195963 4.523176 " stroke="#009846" stroke-width="7" stroke-opacity="1" stroke-miterlimit="4"/><path stroke-linecap="round" transform="matrix(0.535811, -0.524791, 0.524791, 0.535811, 189.639894, 194.480817)" fill="none" stroke-linejoin="miter" d="M 4.458828 4.381054 C 59.2325 20.628729 98.301976 20.95571 121.671053 5.373007 " stroke="#009846" stroke-width="7" stroke-opacity="1" stroke-miterlimit="4"/><g clip-path="url(#65833978fb)"><g clip-path="url(#1072fc814c)"><path fill="#009846" d="M 170.988281 340.234375 L 265.09375 199.03125 L 276.679688 206.75 L 182.574219 347.957031 Z M 170.988281 340.234375 " fill-opacity="1" fill-rule="nonzero"/></g></g><g clip-path="url(#dba43972a1)"><g clip-path="url(#fcc9d6ac97)"><path fill="#009846" d="M 268.253906 201.738281 L 287.265625 173.210938 L 295.605469 178.769531 L 276.59375 207.296875 Z M 268.253906 201.738281 " fill-opacity="1" fill-rule="nonzero"/></g></g><g clip-path="url(#7f64889ec9)"><g clip-path="url(#2e9ed58ccf)"><path fill="#009846" d="M 126.203125 249.570312 L 281.632812 176.289062 L 288.992188 191.898438 L 133.5625 265.179688 Z M 126.203125 249.570312 " fill-opacity="1" fill-rule="nonzero"/></g></g><g clip-path="url(#f62b5fa019)"><g clip-path="url(#52024f10b5)"><path fill="#009846" d="M 172.117188 341.457031 L 77.863281 147.347656 L 106.113281 133.628906 L 200.367188 327.738281 Z M 172.117188 341.457031 " fill-opacity="1" fill-rule="nonzero"/></g></g><g clip-path="url(#02e11bd9e1)"><g clip-path="url(#4cdb5f009a)"><path fill="#009846" d="M 189.898438 311.195312 L 126.613281 180.871094 L 154.863281 167.152344 L 218.148438 297.480469 Z M 189.898438 311.195312 " fill-opacity="1" fill-rule="nonzero"/></g></g><g clip-path="url(#8d9a7199b4)"><g clip-path="url(#599ee982b3)"><path fill="#009846" d="M 194.332031 273.558594 L 248.695312 192.347656 L 271.46875 207.59375 L 217.101562 288.800781 Z M 194.332031 273.558594 " fill-opacity="1" fill-rule="nonzero"/></g></g><g clip-path="url(#02d37ea2cd)"><g clip-path="url(#6ce78e26e8)"><path fill="#009846" d="M 173.417969 249.941406 L 205.058594 202.675781 L 231.535156 220.398438 L 199.894531 267.664062 Z M 173.417969 249.941406 " fill-opacity="1" fill-rule="nonzero"/></g></g><g clip-path="url(#d73dcba415)"><path fill="#009846" d="M 163.285156 195.742188 L 238.957031 195.742188 L 238.957031 227.605469 L 163.285156 227.605469 Z M 163.285156 195.742188 " fill-opacity="1" fill-rule="nonzero"/></g><g clip-path="url(#6b8a1df7e5)"><g clip-path="url(#692400226e)"><path fill="#009846" d="M 87.3125 130.632812 L 200.355469 189.21875 L 190.988281 207.292969 L 77.945312 148.710938 Z M 87.3125 130.632812 " fill-opacity="1" fill-rule="nonzero"/></g></g><g clip-path="url(#ebd394b3bb)"><g clip-path="url(#1968396ec3)"><path fill="#009846" d="M 123.601562 163.222656 L 139.160156 171.285156 L 129.804688 189.332031 L 114.25 181.269531 Z M 123.601562 163.222656 " fill-opacity="1" fill-rule="nonzero"/></g></g><g clip-path="url(#96f531da01)"><path fill="#009846" d="M 205.363281 178.9375 L 205.363281 189.359375 L 181.792969 189.359375 L 181.792969 178.9375 Z M 205.363281 178.9375 " fill-opacity="1" fill-rule="nonzero"/></g><g clip-path="url(#429bc6e862)"><g clip-path="url(#a1437db01a)"><path fill="#009846" d="M 212.339844 177.882812 L 213.632812 185.460938 L 201.648438 187.5 L 200.355469 179.925781 Z M 212.339844 177.882812 " fill-opacity="1" fill-rule="nonzero"/></g></g><g clip-path="url(#8acc057cc7)"><g clip-path="url(#738c831245)"><path fill="#009846" d="M 101.382812 78.316406 L 136.222656 157.34375 L 117.59375 165.558594 L 82.753906 86.53125 Z M 101.382812 78.316406 " fill-opacity="1" fill-rule="nonzero"/></g></g><g clip-path="url(#17c4f59da2)"><g clip-path="url(#9593072531)"><path fill="#009846" d="M 108.03125 88.859375 L 106.695312 142.992188 L 77.945312 142.28125 L 79.28125 88.148438 Z M 108.03125 88.859375 " fill-opacity="1" fill-rule="nonzero"/></g></g><g clip-path="url(#d480621eca)"><g clip-path="url(#c019688403)"><path fill="#009846" d="M 130.851562 63.996094 L 107.542969 112.941406 L 77.921875 98.835938 L 101.230469 49.890625 Z M 130.851562 63.996094 " fill-opacity="1" fill-rule="nonzero"/></g></g><g clip-path="url(#38d7f2ef07)"><g clip-path="url(#dd60d7b593)"><path fill="#009846" d="M 115.042969 88.144531 L 119.40625 115.441406 L 107.167969 117.398438 L 102.804688 90.101562 Z M 115.042969 88.144531 " fill-opacity="1" fill-rule="nonzero"/></g></g><g clip-path="url(#4723368b1c)"><g clip-path="url(#648f5c0c96)"><path fill="#009846" d="M 155.664062 49.515625 L 121.378906 74.707031 L 101.953125 48.269531 L 136.238281 23.078125 Z M 155.664062 49.515625 " fill-opacity="1" fill-rule="nonzero"/></g></g><g clip-path="url(#6a51b5aed0)"><g clip-path="url(#3e2ef53695)"><path fill="#009846" d="M 191.941406 41.792969 L 143.546875 54.792969 L 135.035156 23.109375 L 183.429688 10.109375 Z M 191.941406 41.792969 " fill-opacity="1" fill-rule="nonzero"/></g></g><g clip-path="url(#37c6fbe7d4)"><g clip-path="url(#9aebc734f6)"><path fill="#009846" d="M 225.425781 49.886719 L 175.671875 43.933594 L 179.570312 11.359375 L 229.324219 17.3125 Z M 225.425781 49.886719 " fill-opacity="1" fill-rule="nonzero"/></g></g><g clip-path="url(#26e859dba9)"><g clip-path="url(#a613d33be2)"><path fill="#009846" d="M 253.792969 72.945312 L 210.347656 47.976562 L 226.695312 19.53125 L 270.140625 44.5 Z M 253.792969 72.945312 " fill-opacity="1" fill-rule="nonzero"/></g></g><g clip-path="url(#9a7e435c89)"><g clip-path="url(#85428c141d)"><path fill="#009846" d="M 262.414062 105.566406 L 239.621094 60.890625 L 270.453125 45.164062 L 293.242188 89.839844 Z M 262.414062 105.566406 " fill-opacity="1" fill-rule="nonzero"/></g></g><g clip-path="url(#217d7140ec)"><g clip-path="url(#2001d34261)"><path fill="#009846" d="M 257.992188 120.46875 L 256.425781 85.488281 L 291 83.941406 L 292.566406 118.917969 Z M 257.992188 120.46875 " fill-opacity="1" fill-rule="nonzero"/></g></g><g clip-path="url(#1f999af622)"><g clip-path="url(#b2493c6d58)"><path fill="#009846" d="M 255.324219 133.832031 L 266.886719 108.1875 L 288.992188 118.15625 L 277.425781 143.800781 Z M 255.324219 133.832031 " fill-opacity="1" fill-rule="nonzero"/></g></g><g clip-path="url(#fc6756499b)"><g clip-path="url(#0264804bde)"><path fill="#009846" d="M 244.921875 153.972656 L 262.113281 131.710938 L 274.890625 141.578125 L 257.699219 163.839844 Z M 244.921875 153.972656 " fill-opacity="1" fill-rule="nonzero"/></g></g><g clip-path="url(#678c83ed4d)"><g clip-path="url(#32b2ab0fac)"><path fill="#009846" d="M 232.914062 167.988281 L 255.035156 150.640625 L 259.898438 156.84375 L 237.777344 174.191406 Z M 232.914062 167.988281 " fill-opacity="1" fill-rule="nonzero"/></g></g></svg>