<svg width="26" height="26" viewBox="0 0 26 26" fill="none" xmlns="http://www.w3.org/2000/svg">
<path d="M13 25.5C11.3585 25.5 9.73303 25.1767 8.21646 24.5485C6.69989 23.9203 5.3219 22.9996 4.16117 21.8388C1.81696 19.4946 0.5 16.3152 0.5 13C0.5 9.68479 1.81696 6.50537 4.16117 4.16117C6.50537 1.81696 9.68479 0.5 13 0.5C19.875 0.5 25.5 5.5 25.5 11.75C25.5 13.7391 24.7098 15.6468 23.3033 17.0533C21.8968 18.4598 19.9891 19.25 18 19.25H15.75C15.375 19.25 15.125 19.5 15.125 19.875C15.125 20 15.25 20.125 15.25 20.25C15.75 20.875 16 21.625 16 22.375C16.125 24.125 14.75 25.5 13 25.5ZM13 3C10.3478 3 7.8043 4.05357 5.92893 5.92893C4.05357 7.8043 3 10.3478 3 13C3 15.6522 4.05357 18.1957 5.92893 20.0711C7.8043 21.9464 10.3478 23 13 23C13.375 23 13.625 22.75 13.625 22.375C13.625 22.125 13.5 22 13.5 21.875C13 21.25 12.75 20.625 12.75 19.875C12.75 18.125 14.125 16.75 15.875 16.75H18C19.3261 16.75 20.5979 16.2232 21.5355 15.2855C22.4732 14.3479 23 13.0761 23 11.75C23 6.875 18.5 3 13 3ZM6.125 10.5C7.125 10.5 8 11.375 8 12.375C8 13.375 7.125 14.25 6.125 14.25C5.125 14.25 4.25 13.375 4.25 12.375C4.25 11.375 5.125 10.5 6.125 10.5ZM9.875 5.5C10.875 5.5 11.75 6.375 11.75 7.375C11.75 8.375 10.875 9.25 9.875 9.25C8.875 9.25 8 8.375 8 7.375C8 6.375 8.875 5.5 9.875 5.5ZM16.125 5.5C17.125 5.5 18 6.375 18 7.375C18 8.375 17.125 9.25 16.125 9.25C15.125 9.25 14.25 8.375 14.25 7.375C14.25 6.375 15.125 5.5 16.125 5.5ZM19.875 10.5C20.875 10.5 21.75 11.375 21.75 12.375C21.75 13.375 20.875 14.25 19.875 14.25C18.875 14.25 18 13.375 18 12.375C18 11.375 18.875 10.5 19.875 10.5Z" fill="black"/>
</svg>
