<svg width="78" height="78" viewBox="0 0 78 78" fill="none" xmlns="http://www.w3.org/2000/svg">
<g filter="url(#filter0_dd_499_255)">
<circle cx="39" cy="33" r="25" fill="#FFFFF3"/>
</g>
<path d="M26 44V44C33.5368 36.7423 45.4632 36.7423 53 44V44" stroke="black" stroke-width="2.4" stroke-linecap="round"/>
<circle cx="39" cy="28" r="9.8" stroke="black" stroke-width="2.4"/>
<rect x="30" y="38" width="19" height="5" fill="#FFFFF3"/>
<rect x="35" y="40" width="11" height="6" rx="3" fill="#FFFFF3"/>
<rect x="32" y="35" width="14" height="6" rx="3" fill="#FFFFF3"/>
<path d="M47.7189 44.5009C49.3205 44.5009 49.8907 43.2004 49.9099 42.3099L49.9099 38.466C49.9035 36.858 48.6094 36.2943 47.7189 36.2751L45.7423 36.2809C45.6092 36.2812 45.4814 36.2285 45.3873 36.1344L43.8751 34.6222C42.6872 33.4343 41.3772 33.3447 40.2965 33.6924C40.2437 33.7094 40.1887 33.7189 40.1332 33.7189L34.7353 33.7189C34.6027 33.7189 34.4755 33.7716 34.3817 33.8654L32.1135 36.1335C32.0189 36.2282 31.8903 36.2809 31.7564 36.28L31.0623 36.2751C29.4543 36.2815 28.8905 37.5756 28.8713 38.466L28.8713 42.3099C28.8713 43.0018 29.1148 43.5015 29.4671 43.8538C29.922 44.3087 30.5626 44.5009 31.0623 44.5009L34.3205 44.4949C34.4534 44.4946 34.581 44.5473 34.675 44.6413L36.8281 46.7944C37.8151 47.7814 38.918 47.7687 39.7598 47.4094C39.9199 47.3411 40.1024 47.3444 40.2613 47.4155C40.9903 47.7417 41.7233 47.6633 42.3201 47.4102C42.4816 47.3417 42.6656 47.3458 42.8254 47.4181C43.9963 47.9479 45.1812 47.4102 45.797 46.7944L47.6101 44.9813C47.6702 44.9212 47.6697 44.8232 47.6096 44.7631C47.5124 44.6659 47.5815 44.4985 47.7189 44.5009ZM44.5157 45.5131C44.2275 45.8014 43.7534 46.032 43.2345 45.5131L42.9474 45.226C42.7521 45.0307 42.4355 45.0307 42.2403 45.226L41.9532 45.5131C41.6649 45.8014 41.1908 46.032 40.6719 45.5131L40.3848 45.226C40.1896 45.0307 39.873 45.0307 39.6777 45.226L39.3906 45.5131C39.1023 45.8014 38.6283 46.032 38.1093 45.5131L35.4306 42.8343C35.3368 42.7405 35.2096 42.6879 35.077 42.6879L31.0815 42.6879C30.6971 42.6751 30.6907 42.4508 30.6907 42.3099L30.6843 38.4853C30.6971 38.1009 30.9214 38.0945 31.0623 38.0945L32.5156 38.0889C32.6475 38.0884 32.7739 38.0357 32.8672 37.9424L35.1377 35.672C35.2314 35.5782 35.3586 35.5255 35.4912 35.5255L36.6396 35.5255C37.085 35.5255 37.3081 36.0641 36.9931 36.3791L36.8281 36.5441C36.0529 37.3193 35.4187 38.9786 36.8281 40.388C38.0356 41.5956 39.4267 41.3029 40.2878 40.7067C40.5149 40.5495 40.8302 40.5463 41.0255 40.7415L44.8028 44.5189C44.9981 44.7142 44.9981 45.0307 44.8028 45.226L44.5157 45.5131ZM47.7189 42.6815L45.7423 42.6873C45.6092 42.6876 45.4814 42.6349 45.3873 42.5408L41.0255 38.179C40.8302 37.9837 40.5136 37.9837 40.3184 38.179L39.3906 39.1067C39.1023 39.395 38.6283 39.6256 38.1093 39.1067C37.5904 38.5878 37.8211 38.1137 38.1093 37.8254L40.0313 35.9035C40.326 35.6088 41.4215 34.7311 42.5938 35.9035L44.632 37.9416C44.7257 38.0354 44.8529 38.0881 44.9855 38.0881L47.6997 38.0881C48.0841 38.1009 48.0905 38.3251 48.0905 38.4661L48.0969 42.2907C48.0841 42.6751 47.8599 42.6815 47.7189 42.6815Z" fill="black"/>
<defs>
<filter id="filter0_dd_499_255" x="0" y="0" width="78" height="78" filterUnits="userSpaceOnUse" color-interpolation-filters="sRGB">
<feFlood flood-opacity="0" result="BackgroundImageFix"/>
<feColorMatrix in="SourceAlpha" type="matrix" values="0 0 0 0 0 0 0 0 0 0 0 0 0 0 0 0 0 0 127 0" result="hardAlpha"/>
<feOffset dy="2"/>
<feGaussianBlur stdDeviation="1.5"/>
<feColorMatrix type="matrix" values="0 0 0 0 0 0 0 0 0 0 0 0 0 0 0 0 0 0 0.3 0"/>
<feBlend mode="normal" in2="BackgroundImageFix" result="effect1_dropShadow_499_255"/>
<feColorMatrix in="SourceAlpha" type="matrix" values="0 0 0 0 0 0 0 0 0 0 0 0 0 0 0 0 0 0 127 0" result="hardAlpha"/>
<feMorphology radius="4" operator="dilate" in="SourceAlpha" result="effect2_dropShadow_499_255"/>
<feOffset dy="6"/>
<feGaussianBlur stdDeviation="5"/>
<feColorMatrix type="matrix" values="0 0 0 0 0 0 0 0 0 0 0 0 0 0 0 0 0 0 0.15 0"/>
<feBlend mode="normal" in2="effect1_dropShadow_499_255" result="effect2_dropShadow_499_255"/>
<feBlend mode="normal" in="SourceGraphic" in2="effect2_dropShadow_499_255" result="shape"/>
</filter>
</defs>
</svg>
