<svg width="78" height="78" viewBox="0 0 78 78" fill="none" xmlns="http://www.w3.org/2000/svg">
<g filter="url(#filter0_dd_4_16)">
<circle cx="39" cy="33" r="25" fill="#FFFFF3"/>
</g>
<path d="M52.1041 25.7198V34.7043C52.1041 35.0883 52.0282 35.4686 51.8809 35.8233C51.7336 36.178 51.5177 36.5001 51.2456 36.7712L42.7711 45.2457C42.4999 45.5179 42.1775 45.7339 41.8226 45.8812C41.4677 46.0285 41.0871 46.1043 40.7028 46.1042H31.7211C30.9562 46.1046 30.1986 45.9542 29.4918 45.6616C28.7849 45.3691 28.1427 44.9402 27.6017 44.3993C27.0607 43.8585 26.6316 43.2163 26.3389 42.5095C26.0462 41.8028 25.8956 41.0452 25.8958 40.2803V25.7183C25.8958 24.9536 26.0465 24.1964 26.3392 23.4898C26.6319 22.7833 27.0609 22.1414 27.6017 21.6007C28.1425 21.06 28.7845 20.6312 29.4911 20.3386C30.1977 20.0461 30.955 19.8957 31.7197 19.8958H46.2816C47.0465 19.8957 47.8039 20.0462 48.5106 20.3388C49.2173 20.6314 49.8594 21.0604 50.4002 21.6012C50.941 22.1421 51.37 22.7841 51.6626 23.4908C51.9552 24.1975 52.1043 24.9549 52.1041 25.7198Z" stroke="black" stroke-width="3" stroke-linecap="round" stroke-linejoin="round"/>
<path d="M41.9127 45.8563L41.1845 40.0338C41.1011 39.3733 41.1698 38.7025 41.3854 38.0726C41.601 37.4428 41.9578 36.8706 42.4285 36.3998C42.8991 35.929 43.4712 35.572 44.101 35.3562C44.7308 35.1405 45.4016 35.0715 46.0621 35.1548L51.8846 35.8829" stroke="black" stroke-width="3" stroke-linecap="round" stroke-linejoin="round"/>
<defs>
<filter id="filter0_dd_4_16" x="0" y="0" width="78" height="78" filterUnits="userSpaceOnUse" color-interpolation-filters="sRGB">
<feFlood flood-opacity="0" result="BackgroundImageFix"/>
<feColorMatrix in="SourceAlpha" type="matrix" values="0 0 0 0 0 0 0 0 0 0 0 0 0 0 0 0 0 0 127 0" result="hardAlpha"/>
<feOffset dy="2"/>
<feGaussianBlur stdDeviation="1.5"/>
<feColorMatrix type="matrix" values="0 0 0 0 0 0 0 0 0 0 0 0 0 0 0 0 0 0 0.3 0"/>
<feBlend mode="normal" in2="BackgroundImageFix" result="effect1_dropShadow_4_16"/>
<feColorMatrix in="SourceAlpha" type="matrix" values="0 0 0 0 0 0 0 0 0 0 0 0 0 0 0 0 0 0 127 0" result="hardAlpha"/>
<feMorphology radius="4" operator="dilate" in="SourceAlpha" result="effect2_dropShadow_4_16"/>
<feOffset dy="6"/>
<feGaussianBlur stdDeviation="5"/>
<feColorMatrix type="matrix" values="0 0 0 0 0 0 0 0 0 0 0 0 0 0 0 0 0 0 0.15 0"/>
<feBlend mode="normal" in2="effect1_dropShadow_4_16" result="effect2_dropShadow_4_16"/>
<feBlend mode="normal" in="SourceGraphic" in2="effect2_dropShadow_4_16" result="shape"/>
</filter>
</defs>
</svg>
