<svg width="78" height="78" viewBox="0 0 78 78" fill="none" xmlns="http://www.w3.org/2000/svg">
<g filter="url(#filter0_dd_367_515)">
<circle cx="39" cy="33" r="25" fill="#FFFFF3"/>
<path d="M57.053 21.5071L40.4377 16.0698C40.1535 15.9767 39.8462 15.9767 39.562 16.0698L22.9467 21.5071C22.671 21.5974 22.4312 21.7705 22.2613 22.002C22.0914 22.2334 22 22.5115 22 22.7968V36.3903C22 36.7508 22.1459 37.0965 22.4055 37.3515C22.6652 37.6064 23.0174 37.7496 23.3846 37.7496C23.7518 37.7496 24.104 37.6064 24.3637 37.3515C24.6233 37.0965 24.7692 36.7508 24.7692 36.3903V24.6829L30.5828 26.5843C29.0382 29.0342 28.547 31.9857 29.2171 34.7908C29.8872 37.5959 31.6638 40.0253 34.1568 41.5456C31.0415 42.7452 28.3484 44.9151 26.3788 47.8818C26.2764 48.0313 26.2052 48.1993 26.1695 48.376C26.1338 48.5527 26.1342 48.7346 26.1707 48.9111C26.2072 49.0877 26.2791 49.2553 26.3822 49.4044C26.4852 49.5534 26.6175 49.6808 26.7712 49.7792C26.9249 49.8776 27.097 49.9451 27.2774 49.9776C27.4579 50.0102 27.6432 50.0072 27.8225 49.9688C28.0017 49.9305 28.1715 49.8575 28.3218 49.7542C28.4721 49.6508 28.6 49.5192 28.698 49.3669C31.3063 45.4384 35.4255 43.187 39.9998 43.187C44.5742 43.187 48.6934 45.4384 51.3017 49.3669C51.5048 49.6632 51.8185 49.8692 52.175 49.9402C52.5315 50.0113 52.9022 49.9418 53.2069 49.7466C53.5116 49.5515 53.7258 49.2465 53.8033 48.8976C53.8808 48.5486 53.8152 48.1837 53.6209 47.8818C51.6513 44.9151 48.9478 42.7452 45.8429 41.5456C48.3335 40.0254 50.1084 37.5976 50.7784 34.7945C51.4484 31.9915 50.9587 29.042 49.4169 26.5928L57.053 24.095C57.3287 24.0048 57.5686 23.8317 57.7386 23.6003C57.9085 23.3688 58 23.0907 58 22.8053C58 22.52 57.9085 22.2419 57.7386 22.0104C57.5686 21.7789 57.3287 21.6058 57.053 21.5156V21.5071ZM48.3075 32.3122C48.3078 33.6017 47.9968 34.8728 47.3999 36.0214C46.803 37.1699 45.9372 38.1632 44.8735 38.9196C43.8099 39.6761 42.5787 40.1742 41.281 40.373C39.9834 40.5719 38.6562 40.4659 37.4083 40.0636C36.1604 39.6614 35.0275 38.9744 34.1025 38.0591C33.1774 37.1437 32.4866 36.0261 32.0867 34.7979C31.6868 33.5697 31.5892 32.2659 31.8019 30.9935C32.0147 29.7211 32.5316 28.5163 33.3105 27.4781L39.562 29.5171C39.8462 29.6101 40.1535 29.6101 40.4377 29.5171L46.6892 27.4781C47.741 28.8782 48.3082 30.5725 48.3075 32.3122ZM39.9998 26.8018L27.7634 22.7968L39.9998 18.7919L52.2363 22.7968L39.9998 26.8018Z" fill="black"/>
</g>
<defs>
<filter id="filter0_dd_367_515" x="0" y="0" width="78" height="78" filterUnits="userSpaceOnUse" color-interpolation-filters="sRGB">
<feFlood flood-opacity="0" result="BackgroundImageFix"/>
<feColorMatrix in="SourceAlpha" type="matrix" values="0 0 0 0 0 0 0 0 0 0 0 0 0 0 0 0 0 0 127 0" result="hardAlpha"/>
<feOffset dy="2"/>
<feGaussianBlur stdDeviation="1.5"/>
<feColorMatrix type="matrix" values="0 0 0 0 0 0 0 0 0 0 0 0 0 0 0 0 0 0 0.3 0"/>
<feBlend mode="normal" in2="BackgroundImageFix" result="effect1_dropShadow_367_515"/>
<feColorMatrix in="SourceAlpha" type="matrix" values="0 0 0 0 0 0 0 0 0 0 0 0 0 0 0 0 0 0 127 0" result="hardAlpha"/>
<feMorphology radius="4" operator="dilate" in="SourceAlpha" result="effect2_dropShadow_367_515"/>
<feOffset dy="6"/>
<feGaussianBlur stdDeviation="5"/>
<feColorMatrix type="matrix" values="0 0 0 0 0 0 0 0 0 0 0 0 0 0 0 0 0 0 0.15 0"/>
<feBlend mode="normal" in2="effect1_dropShadow_367_515" result="effect2_dropShadow_367_515"/>
<feBlend mode="normal" in="SourceGraphic" in2="effect2_dropShadow_367_515" result="shape"/>
</filter>
</defs>
</svg>
