<svg width="112" height="100" viewBox="0 0 112 100" fill="none" xmlns="http://www.w3.org/2000/svg">
<path d="M49.3209 4.46407L49.3209 4.46391C52.2549 -0.62093 59.5931 -0.62182 62.5329 4.46434L110.182 86.9915C110.851 88.151 111.204 89.4664 111.204 90.8055C111.204 92.1445 110.851 93.4599 110.182 94.6195C109.512 95.7791 108.549 96.7421 107.39 97.4116C106.23 98.0811 104.915 98.4336 103.576 98.4336H8.27792C6.93893 98.4336 5.62353 98.0811 4.46394 97.4116C3.30434 96.7421 2.34141 95.7791 1.67193 94.6195C1.00244 93.4599 0.649991 92.1445 0.65 90.8055C0.650008 89.4665 1.00248 88.151 1.67197 86.9914L49.3209 4.46407ZM58.2217 16.4717C57.2017 14.7051 54.6519 14.7051 53.6319 16.4717L14.2264 84.7211C13.2064 86.4878 14.4813 88.6961 16.5213 88.6961H95.3323C97.3723 88.6961 98.6472 86.4878 97.6272 84.7211L58.2217 16.4717ZM55.9268 70.1973C57.2181 70.1973 58.4565 70.7102 59.3695 71.6233C60.2826 72.5364 60.7956 73.7748 60.7956 75.066C60.7956 76.3573 60.2826 77.5957 59.3695 78.5088C58.4565 79.4218 57.2181 79.9348 55.9268 79.9348C54.6355 79.9348 53.3971 79.4218 52.4841 78.5088C51.571 77.5957 51.0581 76.3573 51.0581 75.066C51.0581 73.7748 51.571 72.5364 52.4841 71.6233C53.3971 70.7102 54.6355 70.1973 55.9268 70.1973ZM55.9268 31.566C57.2181 31.566 58.4565 32.079 59.3695 32.9921C60.2826 33.9051 60.7956 35.1435 60.7956 36.4348V58.5098C60.7956 59.8011 60.2826 61.0394 59.3695 61.9525C58.4565 62.8656 57.2181 63.3785 55.9268 63.3785C54.6355 63.3785 53.3971 62.8656 52.4841 61.9525C51.571 61.0394 51.0581 59.8011 51.0581 58.5098V36.4348C51.0581 35.1435 51.571 33.9051 52.4841 32.9921C53.3971 32.079 54.6355 31.566 55.9268 31.566Z" fill="#C50003" stroke="#FFFFF3" stroke-width="1.3"/>
</svg>
