<svg width="30" height="30" viewBox="0 0 30 30" fill="none" xmlns="http://www.w3.org/2000/svg">
<g clip-path="url(#clip0_763_366)">
<path d="M15 29.0625C22.7665 29.0625 29.0625 22.7665 29.0625 15C29.0625 7.2335 22.7665 0.9375 15 0.9375C7.2335 0.9375 0.9375 7.2335 0.9375 15C0.9375 22.7665 7.2335 29.0625 15 29.0625Z" fill="#699635"/>
<path d="M14.8594 12.5156C14.8125 12.0938 15.0469 11.6719 15.4687 11.7656C15.7969 11.8125 16.1719 12.1406 15.9844 12.4688C15.7031 12.9844 14.9531 12.9844 14.4844 13.2656C14.5312 13.5469 15.8906 13.2188 16.125 13.2188C16.3594 13.2188 16.5937 13.3125 16.4531 13.5938C16.3125 13.875 15.8438 13.875 15.5625 13.9219C15.2812 13.9688 14.8125 13.9687 14.6719 14.2031C14.3906 14.5781 14.9531 14.625 15.1406 14.7187C15.6094 14.9531 14.8594 15.1875 14.6719 15.1406C13.9687 15 13.8281 14.625 13.4062 14.1563C12.9844 14.7188 11.6719 15.9844 11.3906 14.6719C10.9219 14.8594 10.4531 15.0937 9.9375 15.1406C10.1719 14.8125 10.6406 14.6719 11.0156 14.4844C11.4844 14.25 11.4844 13.8281 11.7656 13.4531C11.8594 13.5938 11.7656 13.7812 11.8125 13.9687C12.1875 13.7812 12.6562 13.4063 12.4687 12.9375C12.4687 12.8906 11.9062 11.7656 12.375 11.9531C12.7969 12.1406 12.6562 12.5625 12.75 12.8906C12.8906 13.5 12.6094 13.8281 12.1406 14.2031C11.9531 14.3437 11.4375 14.9062 12.0469 14.9062C12.4687 14.9062 12.8437 14.4375 13.0781 14.1563C13.3594 13.7813 13.2656 13.4063 13.0781 12.9844C12.9375 12.6563 12.6094 11.9531 13.0312 11.7188C13.3594 12.2344 13.5 12.8438 13.6406 13.4531C13.7344 13.9688 13.8281 14.4844 14.3906 14.625C14.3437 14.25 14.5781 13.9688 14.9062 13.8281C14.6719 13.6406 13.3594 13.875 13.875 13.1719C13.9219 12.8438 14.8594 12.7031 14.8594 12.5156Z" fill="white"/>
<path d="M7.68864 14.2519C7.92301 14.9082 8.71989 14.6738 9.18864 14.4863C9.93864 14.1113 9.93864 13.5488 9.93864 12.7988C9.65739 12.9394 9.70426 13.4551 9.61051 13.6894C9.42301 14.0644 8.81364 14.3926 8.39176 14.3457C7.78239 14.2519 7.50114 13.2207 7.96989 12.8457C8.06364 13.1738 7.82926 13.8769 8.39176 13.9238C8.81364 13.9707 9.65739 13.4551 9.51676 12.9863C8.95426 13.1738 8.62614 12.9863 8.81364 12.3769C8.95426 11.8144 9.51676 12.2363 9.75114 12.5176C10.6418 12.0019 9.04801 10.0332 9.98551 9.51756C10.173 9.84568 10.4543 10.2676 10.2199 10.5957C9.93864 10.9707 10.2199 11.7676 10.2668 12.1894C10.7355 11.7676 10.3605 12.5176 10.7355 12.5644C10.9699 12.6113 11.0636 12.0019 11.2043 12.0019C11.2511 12.1426 11.2511 12.5644 11.4855 12.5176C11.7668 12.4238 11.4386 12.0488 11.7199 11.9551C11.8136 12.1894 11.7668 12.8926 11.4386 12.8457C11.1574 12.7988 11.2043 12.6113 10.8761 12.7988C10.5949 12.9394 10.5011 12.7988 10.3136 12.6582C10.2668 13.2207 10.4543 13.8301 10.1261 14.3457C9.84489 14.7676 9.28239 15.0019 8.81364 15.0957C7.59489 15.3301 7.26676 14.1113 7.68864 13.1269C7.78239 13.4082 7.59489 13.9238 7.68864 14.2519ZM19.1261 14.4863C19.3605 15.0957 19.8293 13.8301 19.9699 13.6426C20.3449 13.0801 20.9074 14.5332 21.1418 13.5957C21.2824 12.9863 21.0949 12.3769 21.048 11.7676C21.0011 11.3457 20.8605 10.9707 20.5793 10.6426C20.298 10.2676 20.0168 9.93943 20.1574 9.47068C20.6261 9.65818 20.6261 10.0332 20.8605 10.4082C20.9074 10.1269 20.7199 9.75193 20.9074 9.51756C21.1418 9.18943 21.3293 10.0801 21.3293 10.1738C21.3761 10.4082 21.1418 10.5019 21.2824 10.8769C21.3761 11.1582 21.5636 11.4394 21.7511 11.6738C21.7043 11.3926 21.2824 9.47068 21.7511 9.47068C21.8918 9.47068 22.0324 10.0332 22.0324 10.1269C22.1261 10.4082 21.9386 10.6426 21.9386 10.9707C21.8918 11.5332 21.9855 12.1894 22.3605 12.6113C22.548 12.8457 23.2511 13.6894 22.8761 13.9707C22.5949 13.6426 22.4074 13.2676 22.173 12.9394C22.173 13.3144 22.2668 13.7363 22.0793 14.0176C21.8918 13.9238 21.9855 13.3144 21.9855 13.1738C21.9855 12.6582 21.6574 12.2363 21.3761 11.8144C21.2824 12.5176 21.8449 13.8301 21.1886 14.3457C20.7668 14.7207 20.2043 13.8769 20.0636 14.2051C19.923 14.4394 19.5949 15.2832 19.2199 15.1894C18.7511 15.0957 18.423 13.7832 18.9386 13.6426C18.9855 13.8769 18.9855 14.2051 19.1261 14.4863Z" fill="white"/>
<path d="M9.09415 11.2978C9.42228 11.3447 9.09415 10.2197 9.09415 10.0322C9.14103 9.84471 9.28165 9.75096 9.3754 9.93846C9.51603 10.2197 9.51603 10.5478 9.5629 10.8291C9.5629 11.0635 9.60978 11.3447 9.42228 11.5322C9.14103 11.8135 8.76603 11.6728 8.6254 11.2978C7.96915 11.8603 8.8129 12.8447 8.2504 13.4072C8.15665 12.8916 8.2504 12.3291 8.0629 11.8603C7.96915 11.626 7.54728 11.7197 7.5004 11.2978C7.5004 11.1103 7.64103 10.5947 7.45353 10.4541C7.35978 10.6416 7.26603 12.0947 6.79728 11.6728C6.42228 11.3916 6.51603 10.4541 6.65665 10.0791C6.9379 10.2197 6.60978 11.251 6.98478 11.2978C7.17228 11.3447 7.21915 10.5478 7.26603 10.4072C7.40665 10.1728 7.8754 9.51658 7.78165 10.1728C7.73478 10.4541 7.5004 11.3447 8.0629 11.2978C8.01603 10.8291 7.96915 10.3603 7.8754 9.89158C7.82853 9.65721 7.96915 9.18846 8.15665 9.61033C8.29728 9.89158 8.20353 10.0322 8.15665 10.3135C8.10978 10.6416 8.2504 10.9697 8.29728 11.251C8.57853 11.0166 8.20353 10.126 8.4379 9.75096C9.0004 10.0791 8.39103 11.2041 9.09415 11.2978ZM15.141 11.3916C14.9067 11.7197 14.4848 11.4385 14.2973 11.2041C14.0629 11.4853 13.5942 11.9541 13.2192 11.5791C12.9379 11.2978 13.266 10.7822 13.0317 10.5478C12.891 10.7822 12.6567 11.9072 12.2348 11.3916C12.0004 11.1103 11.6723 10.126 12.1879 9.89158C12.141 10.2666 12.0473 10.6885 12.2817 11.0166C12.516 11.3447 12.7504 10.501 12.8442 10.3135C12.9848 9.98533 13.4535 9.42283 13.3598 10.126C13.3129 10.4072 13.2192 11.0635 13.5004 11.251C13.6879 11.3916 13.9223 11.1572 14.016 11.0166C14.2035 10.7822 14.1098 10.4072 14.0629 10.126C14.016 9.89158 13.9223 9.61033 14.0629 9.37596C14.2504 9.09471 14.391 9.75096 14.391 9.89158C14.391 10.0322 14.5785 11.4853 14.9067 11.0166C15.2348 10.5947 14.3442 9.65721 14.9535 9.42283C15.1879 9.32908 15.6098 10.2666 15.141 9.98533C15.2817 10.4072 15.4692 11.0166 15.141 11.3916ZM16.9223 11.9541C16.9692 12.5635 17.4848 14.251 16.7817 14.626C16.6879 14.4385 16.7817 14.1572 16.8285 13.9228C16.8754 13.501 16.7817 13.0791 16.7348 12.7041C16.641 11.8135 16.5473 11.1572 15.9379 10.4541C15.7973 10.2666 15.5629 10.126 15.516 9.84471C15.516 9.75096 15.4692 9.32908 15.6567 9.42283C15.7973 9.46971 16.5942 10.1728 16.1723 10.1728C16.2192 10.2666 16.4067 10.6416 16.5004 10.6416C16.5004 10.4072 16.2192 9.70408 16.5004 9.56346C16.7348 9.42283 17.016 10.3135 16.9223 10.501C16.8285 10.7353 16.8285 10.876 16.9223 11.2041C17.016 11.5791 17.2504 11.9072 17.4379 12.2353C17.7192 12.7041 18.2817 13.3603 18.141 13.9697C17.8598 13.8291 17.6723 13.1728 17.5317 12.8916C17.4379 12.6572 17.3442 12.4228 17.2035 12.2353C17.1567 12.1885 16.8754 11.8135 16.9223 12.0478V11.9541ZM23.4379 12.8447C23.4848 13.8291 23.1567 15.0947 21.9379 15.0947C21.9379 14.8135 22.5473 14.5322 22.7348 14.3916C23.2035 14.0166 23.1567 13.3135 23.1098 12.7978C23.0629 12.0947 23.016 11.3916 22.8754 10.6885C22.8285 10.2666 22.5942 9.65721 22.9692 9.37596C23.2035 9.56346 23.5317 10.0791 23.391 10.2666C23.1567 10.5478 23.391 12.6572 23.4379 12.8447Z" fill="white"/>
<path d="M17.4375 14.954C18.6563 14.2509 18.2813 12.7509 18.1875 11.579C18.1406 11.2509 18.1406 10.9228 18.0937 10.5946C18.0937 10.3603 17.9063 10.0321 18 9.79775C18.2344 9.18838 18.4219 9.75088 18.4688 10.1259C18.5156 10.3603 18.3281 10.4071 18.375 10.5946C18.4219 10.9696 18.4219 11.3446 18.4688 11.7196C18.5156 12.329 18.6094 12.9384 18.5625 13.5009C18.4687 14.3915 18 15.3759 16.9219 15.1884C16.9687 15.0946 17.2969 15.0478 17.4375 14.954ZM19.4063 12.6103C19.4531 13.079 19.6406 13.9228 19.4063 14.3446C19.2188 14.6259 19.2188 14.1571 19.1719 14.1103C19.125 13.7353 19.125 13.3603 19.125 12.9384C19.0312 11.9071 18.7031 10.8759 18.7031 9.8915C18.7031 8.62588 19.7813 10.5946 19.1719 10.5009C19.2188 11.204 19.3125 11.9071 19.4063 12.6103ZM11.7656 10.2196C11.8594 10.454 10.6875 11.0634 10.5469 11.0634C10.5 10.829 11.0625 10.5009 11.2031 10.4071C11.3437 10.2665 11.4375 10.2665 11.3906 10.079C11.2969 9.8915 11.3438 9.56338 11.5781 9.46963C12.0469 9.329 11.7188 10.0321 11.7656 10.2196ZM6.9375 14.3915C6.9375 14.7665 7.07812 14.579 7.26562 14.4853C7.35937 14.6728 7.125 15.1884 6.89062 14.954C6.5625 14.6259 6.84375 13.8759 6.98437 13.5478C7.07812 13.7821 6.89062 14.1571 6.9375 14.3915ZM20.1563 11.4853C20.2031 11.2978 20.0625 11.1103 20.2031 10.9228C20.3906 10.6884 20.5781 10.9696 20.4844 11.0634C20.3906 11.1571 20.25 10.9696 20.25 11.2509C20.25 11.3915 20.3437 11.6728 20.2031 11.8134C20.1094 11.7665 19.6875 11.1571 19.7344 11.0634C19.9219 10.8759 20.1094 11.4384 20.1563 11.4853ZM7.92187 12.2821C7.82812 12.4696 6.75 13.079 6.70312 12.9384C6.70312 12.7978 8.0625 12.0009 7.92187 12.2821ZM15.8906 14.6728C15.75 15.0946 16.3594 14.7196 16.5 14.6728C16.3125 15.0009 15.6562 15.2821 15.75 14.6728C15.7031 14.6728 15.6094 14.7196 15.5625 14.7196C15.4688 14.6259 16.0313 14.2509 15.8906 14.6728ZM21 14.5321C21.1406 14.5321 21.375 14.954 21.2344 15.0478C21.1406 15.1415 20.7188 15.1884 20.9531 15.0009C21.2344 14.7196 21 14.5321 21 14.5321ZM14.3906 12.1415C14.4375 12.0478 14.4375 11.9071 14.4844 11.8134C14.9531 12.1884 13.7344 12.7978 13.9687 11.9071C14.0625 12.0009 14.0625 12.1415 14.1563 12.1884C14.1563 12.0946 14.2031 11.954 14.2031 11.8603C14.2969 11.954 14.2969 12.0946 14.3906 12.1415ZM19.875 12.7509C19.7344 12.5634 20.5781 12.0478 20.7188 11.954C20.8125 12.0946 20.1563 12.6103 19.875 12.7509ZM22.5 10.8759C22.4063 10.5946 22.125 10.0321 22.4062 9.79775C22.5938 9.93838 22.6875 10.6415 22.5 10.8759ZM17.3906 9.93838C17.3437 9.84463 17.2031 9.75088 17.2031 9.61025C17.25 9.42275 17.3438 9.46963 17.4375 9.56338C17.5781 9.75088 17.6719 10.2665 17.4375 10.4071C17.4375 10.2665 17.4844 10.079 17.3906 9.93838ZM11.6719 11.204C11.6719 11.4853 11.2031 11.7665 11.1562 11.3915C11.1094 11.2509 11.3437 10.7353 11.4375 10.8759C11.25 11.2978 11.25 11.4384 11.6719 11.204Z" fill="white"/>
<path d="M17.531 10.6894C17.7185 11.1581 17.6248 10.7362 17.8123 10.6425C18.1404 11.2519 17.1091 11.1112 17.3435 10.7362C17.3904 10.7831 17.4373 10.8769 17.4373 10.9237C17.4841 10.8769 17.4841 10.7831 17.531 10.6894ZM20.531 12.8456C20.2966 12.6581 20.5779 12.4237 20.7185 12.6581C20.8123 12.7987 20.8123 13.1737 20.6248 13.2675C20.6248 13.1269 20.6716 12.9394 20.531 12.8456ZM10.9216 13.8769C10.9216 13.7831 10.8748 13.08 11.0154 13.1737C11.2029 13.2675 11.156 13.7831 10.9216 13.8769ZM8.9529 9.4706C8.99977 9.61123 9.04665 9.79873 9.1404 9.56435C9.5154 9.98623 8.20289 9.8456 8.67165 9.42373C8.67165 9.4706 8.7654 9.75185 8.9529 9.4706ZM13.7341 10.5019C13.7341 10.3144 13.4529 9.51748 13.6873 9.51748C13.9685 9.56435 13.9216 10.2675 13.7341 10.5019ZM7.17164 10.08C7.03102 10.0331 7.26539 9.79873 7.17164 9.61123C7.07789 9.6581 6.98415 9.51748 7.0779 9.42373C7.4529 9.14248 7.31227 10.08 7.17164 10.08ZM19.3123 19.5956L19.1248 19.0331L18.9373 19.5956H8.67165C8.67165 19.5956 8.76539 20.4394 9.79664 20.4394H18.8904V21.0956H21.3748V19.5956H19.3123ZM20.906 20.7206H19.2185V20.2519H20.906V20.7206Z" fill="white"/>
</g>
<defs>
<clipPath id="clip0_763_366">
<rect width="30" height="30" fill="white"/>
</clipPath>
</defs>
</svg>
