<svg width="30" height="30" viewBox="0 0 30 30" fill="none" xmlns="http://www.w3.org/2000/svg">
<g clip-path="url(#clip0_763_437)">
<path d="M0.9375 15C0.9375 17.7656 1.73437 20.3438 3.09375 22.5H26.8594C28.2187 20.3438 29.0156 17.7656 29.0156 15C29.0156 12.2344 28.2187 9.65625 26.8594 7.5H3.09375C1.73437 9.65625 0.9375 12.2344 0.9375 15Z" fill="#F9F9F9"/>
<path d="M26.9063 7.5C24.4219 3.5625 20.0156 0.9375 15 0.9375C9.98437 0.9375 5.57813 3.5625 3.09375 7.5H26.9063ZM3.09375 22.5C5.57813 26.4375 9.98437 29.0625 15 29.0625C20.0156 29.0625 24.4219 26.4375 26.9063 22.5H3.09375Z" fill="#B4D7EE"/>
<path d="M21.4219 14.9062L17.5781 14.7656V14.7187C18.1875 14.625 18.6563 14.25 19.3125 14.2969C20.1094 14.3906 20.5781 13.9219 20.8594 13.8281C21.1875 13.7344 21.375 13.9219 21.375 13.8281C21.4219 13.7344 21.1875 13.5469 20.7188 13.5938C20.2969 13.6406 20.1563 14.0156 19.1719 13.9219C18.3281 13.875 18.0469 14.2031 17.4375 14.2031V14.1563L20.9062 12.5625C20.9062 12.5625 21 12.5156 21 12.4219C20.9531 12.3281 20.8594 12.375 20.8594 12.375L17.3438 13.7812V13.7344C17.8594 13.4062 18.1406 12.8906 18.7969 12.7031C19.5469 12.4688 19.8281 11.9062 20.0625 11.6719C20.2969 11.4375 20.5781 11.5781 20.5781 11.4844C20.5781 11.3906 20.2969 11.2969 19.9219 11.5313C19.5469 11.7656 19.5469 12.1406 18.6094 12.4219C17.8125 12.6562 17.6719 13.0781 17.1094 13.3594L17.0625 13.3125L19.6875 10.5C19.6875 10.5 19.7812 10.4063 19.7344 10.3594C19.6875 10.3125 19.5937 10.4063 19.5937 10.4063L16.7812 13.0312L16.7344 12.9844C17.1094 12.4688 17.1563 11.9062 17.6719 11.4844C18.2813 10.9687 18.2812 10.3594 18.4219 10.0781C18.5625 9.79687 18.8437 9.79688 18.7969 9.70313C18.75 9.60938 18.4687 9.65625 18.1875 9.98437C17.9062 10.3594 18.0469 10.6875 17.3438 11.2969C16.7344 11.8125 16.7344 12.2813 16.3594 12.7031C16.3594 12.7031 16.3125 12.7031 16.3125 12.6562L17.625 9.04687C17.625 9.04687 17.6719 8.95313 17.5781 8.90625C17.4844 8.85937 17.4375 9 17.4375 9L15.8437 12.4688H15.7969C15.9375 11.8594 15.7969 11.2969 16.0781 10.7344C16.4531 10.0312 16.2187 9.42188 16.2187 9.14062C16.2656 8.8125 16.5 8.71875 16.4531 8.67188C16.4062 8.57812 16.125 8.76563 15.9844 9.1875C15.8906 9.60938 16.125 9.89062 15.7031 10.7344C15.3281 11.4844 15.5156 11.8594 15.3281 12.4219H15.2812L15.1406 8.57812C15.1406 8.57812 15.1406 8.4375 15.0469 8.4375C14.9531 8.4375 14.9531 8.57812 14.9531 8.57812L14.8125 12.4219H14.7656C14.6719 11.8125 14.2969 11.3437 14.3438 10.6875C14.4375 9.89062 13.9688 9.42188 13.875 9.14062C13.7813 8.85937 13.9688 8.625 13.875 8.625C13.7813 8.57812 13.5938 8.8125 13.6406 9.28125C13.6875 9.70312 14.0625 9.84375 13.9687 10.8281C13.9219 11.6719 14.25 11.9531 14.25 12.5625H14.2031L12.6094 9.09375C12.6094 9.09375 12.5625 9 12.4688 9C12.375 9.04688 12.4219 9.14062 12.4219 9.14062L13.7344 12.75H13.6875C13.3594 12.2344 12.8438 11.9531 12.6563 11.2969C12.4219 10.5469 11.8594 10.2656 11.625 10.0312C11.3906 9.79687 11.5313 9.51562 11.4375 9.51562C11.3437 9.51562 11.25 9.79688 11.4844 10.1719C11.7188 10.5469 12.0937 10.5469 12.375 11.4844C12.6094 12.2813 13.0312 12.4219 13.3125 12.9844L13.2656 13.0312L10.4531 10.4063C10.4531 10.4063 10.3594 10.3125 10.3125 10.3594C10.2656 10.4063 10.3594 10.5 10.3594 10.5L12.9844 13.3125L12.9375 13.3594C12.4219 12.9844 11.8594 12.9375 11.4375 12.4219C10.9219 11.8125 10.3125 11.8125 10.0312 11.6719C9.75 11.5312 9.75 11.25 9.65625 11.2969C9.5625 11.3438 9.60938 11.625 9.9375 11.9062C10.3125 12.1875 10.6406 12.0469 11.25 12.75C11.7656 13.3594 12.2344 13.3594 12.6563 13.7344C12.6563 13.7344 12.6563 13.7812 12.6094 13.7812L9 12.4688C9 12.4688 8.90625 12.4219 8.85938 12.5156C8.8125 12.6094 8.95313 12.6562 8.95313 12.6562L12.4219 14.25V14.2969C11.8125 14.1562 11.25 14.2969 10.6875 14.0156C9.98437 13.6406 9.375 13.875 9.09375 13.875C8.76563 13.8281 8.67188 13.5938 8.625 13.6406C8.53125 13.6875 8.71875 13.9688 9.14063 14.1094C9.5625 14.2031 9.84375 13.9688 10.6875 14.3906C11.4375 14.7656 11.8125 14.5781 12.375 14.7656V14.8125L8.53125 14.9531C8.53125 14.9531 8.39062 14.9531 8.39062 15.0469C8.39062 15.1406 8.53125 15.1406 8.53125 15.1406L12.375 15.2812V15.3281C11.7656 15.4219 11.2969 15.7969 10.6406 15.75C9.84375 15.6562 9.375 16.125 9.09375 16.2187C8.76563 16.3125 8.57812 16.125 8.57812 16.2187C8.53125 16.3125 8.76563 16.5 9.23438 16.4531C9.70313 16.4062 9.79688 16.0781 10.7813 16.125C11.625 16.1719 11.9063 15.8437 12.5156 15.8437V15.8906L9.04687 17.4844C9.04687 17.4844 8.95313 17.5312 8.95313 17.625C8.95313 17.7187 9.09375 17.6719 9.09375 17.6719L12.7031 16.3594V16.4062C12.1875 16.7344 11.9063 17.25 11.25 17.4375C10.5 17.6719 10.2187 18.2344 9.98437 18.4688C9.75 18.7031 9.46875 18.5625 9.46875 18.6562C9.46875 18.75 9.75 18.8438 10.125 18.6094C10.5 18.375 10.5 18 11.4375 17.7187C12.2344 17.4844 12.375 17.0625 12.9375 16.7812L12.9844 16.8281L10.3594 19.6406C10.3594 19.6406 10.2656 19.7344 10.3125 19.7813C10.3594 19.8281 10.4531 19.7344 10.4531 19.7344L13.2656 17.1094L13.3125 17.1562C12.9375 17.6719 12.8906 18.2344 12.375 18.6562C11.7656 19.1719 11.7656 19.7812 11.625 20.0625C11.4844 20.3437 11.2031 20.3437 11.25 20.4375C11.2969 20.5312 11.5781 20.4844 11.8594 20.1562C12.1406 19.8281 12 19.4531 12.7031 18.8438C13.3125 18.3281 13.3125 17.8594 13.6875 17.4375C13.6875 17.4375 13.7344 17.4375 13.7344 17.4844L12.4219 21.0938C12.4219 21.0938 12.375 21.1875 12.4688 21.2344C12.5625 21.2812 12.6094 21.1406 12.6094 21.1406L14.2031 17.6719H14.25C14.1094 18.2813 14.25 18.8438 13.9687 19.4063C13.5937 20.1094 13.8281 20.7187 13.7812 21C13.7344 21.3281 13.5 21.4219 13.5469 21.4687C13.5938 21.5625 13.875 21.375 14.0156 20.9531C14.1094 20.5313 13.875 20.2969 14.2969 19.4063C14.6719 18.6563 14.4844 18.2812 14.6719 17.7187H14.7188L14.8594 21.5625C14.8594 21.5625 14.8594 21.7031 14.9531 21.7031C15.0469 21.7031 15.0469 21.5625 15.0469 21.5625L15.1875 17.7187H15.2344C15.3281 18.3281 15.7031 18.7969 15.6563 19.4531C15.5625 20.25 16.0313 20.7187 16.125 21C16.2188 21.3281 16.0313 21.5156 16.125 21.5156C16.2188 21.5625 16.4063 21.3281 16.3594 20.8594C16.3125 20.4375 15.9375 20.2969 16.0313 19.3125C16.0781 18.4688 15.75 18.1875 15.75 17.5781H15.7969L17.3906 21.0469C17.3906 21.0469 17.4375 21.1406 17.5313 21.1406C17.625 21.0937 17.5781 21 17.5781 21L16.2187 17.3438H16.2656C16.5938 17.8594 17.1094 18.1406 17.2969 18.7969C17.5313 19.5469 18.0937 19.8281 18.3281 20.0625C18.5625 20.2969 18.4219 20.5781 18.5156 20.5781C18.6094 20.5781 18.7031 20.2969 18.4688 19.9219C18.2344 19.5469 17.8594 19.5469 17.5781 18.6094C17.3438 17.8125 16.9219 17.6719 16.6406 17.1094L16.6875 17.0625L19.5 19.6875C19.5 19.6875 19.5938 19.7812 19.6406 19.7344C19.6875 19.6875 19.5937 19.5937 19.5937 19.5937L16.9688 16.7812L17.0156 16.7344C17.5312 17.1094 18.0938 17.1563 18.5156 17.6719C19.0313 18.2813 19.6406 18.2812 19.9219 18.4219C20.2031 18.5625 20.2031 18.8437 20.2969 18.7969C20.3906 18.75 20.3438 18.4687 20.0156 18.1875C19.6406 17.9062 19.3125 18.0469 18.7031 17.3438C18.1875 16.7344 17.7188 16.7344 17.2969 16.3125C17.2969 16.3125 17.2969 16.2656 17.3438 16.2656L20.9531 17.5781C20.9531 17.5781 21.0469 17.625 21.0938 17.5313C21.1406 17.4375 21 17.3906 21 17.3906L17.5313 15.7969V15.75C18.1406 15.8906 18.7031 15.75 19.2656 16.0313C19.9687 16.4063 20.5781 16.1719 20.8594 16.1719C21.1875 16.2188 21.2813 16.4531 21.3281 16.4062C21.4219 16.3594 21.2344 16.0781 20.8125 15.9375C20.3906 15.8437 20.1094 16.0781 19.2656 15.6563C18.5156 15.2813 18.1406 15.4687 17.5781 15.2812V15.2344L21.4219 15.0938C21.4219 15.0938 21.5625 15.0938 21.5625 15C21.5625 14.9062 21.4219 14.9062 21.4219 14.9062Z" fill="#F6B40E"/>
<path d="M16.4062 14.6719C16.2656 14.5312 16.0781 14.4375 15.8906 14.4375C15.7031 14.4375 15.5625 14.5312 15.4219 14.6719C15.6562 14.8594 16.0781 14.8594 16.4062 14.6719ZM16.2656 14.625C16.1719 14.7188 16.0781 14.7656 15.9844 14.7656C16.0312 14.7188 16.0781 14.6719 16.0781 14.625C16.0781 14.5781 16.0312 14.5313 15.9844 14.4844C16.125 14.5313 16.2187 14.5781 16.2656 14.625ZM15.75 14.4844C15.7031 14.5313 15.7031 14.5781 15.7031 14.625C15.7031 14.6719 15.75 14.7656 15.7969 14.7656C15.7031 14.7656 15.6094 14.7188 15.5156 14.625C15.6094 14.5781 15.6562 14.5313 15.75 14.4844Z" fill="#85340A"/>
<path d="M15.9375 14.2969C15.6562 14.2969 15.6094 14.3437 15.5156 14.4375C15.375 14.5312 15.3281 14.5312 15.3281 14.5312C15.3281 14.5312 15.3281 14.625 15.375 14.5781C15.4219 14.5781 15.5156 14.5312 15.6094 14.4375C15.75 14.3437 15.8437 14.3438 15.9844 14.3438C16.3594 14.3438 16.5469 14.625 16.5938 14.625C16.6406 14.625 16.3125 14.2969 15.9375 14.2969Z" fill="#85340A"/>
<path d="M15.14 14.2499C15.0931 14.3437 15.0931 14.3906 15.0931 14.4843C15.0462 14.7656 15.0931 15.0937 15.2806 15.4218C15.2806 15.4218 15.3275 15.3749 15.3743 15.3749C15.1868 15.1406 15.14 14.8593 15.14 14.6249C15.14 14.4843 15.2337 14.3906 15.2806 14.2968C15.6087 14.0156 16.1712 14.0624 16.64 14.4374C16.2181 13.8281 15.6087 13.8749 15.14 14.2499Z" fill="#85340A"/>
<path d="M15.6094 14.8594C15.4687 14.7656 15.4219 14.7188 15.375 14.7188C15.3281 14.7188 15.3281 14.7656 15.5156 14.8594C15.7031 14.9531 16.0781 15 16.4062 14.7188C16.0312 14.9063 15.75 14.9063 15.6094 14.8594ZM15.375 15.6094C15.3281 15.6094 15.2812 15.5625 15.2344 15.5156C15.2344 15.5625 15.1406 15.6563 15 15.6563C14.8594 15.6563 14.7656 15.5156 14.7656 15.5156C14.7656 15.5625 14.7188 15.6094 14.625 15.6094C14.5781 15.6094 14.4844 15.5625 14.4844 15.4688C14.4844 15.4219 14.5312 15.375 14.5781 15.375C14.4844 15.375 14.4375 15.4688 14.4375 15.5625C14.4375 15.6563 14.5313 15.75 14.625 15.75C14.6719 15.75 14.7187 15.7031 14.7656 15.6563C14.8125 15.7031 14.9531 15.7031 15 15.7031H15.0469C15.0937 15.7031 15.1875 15.7031 15.2812 15.6563C15.3281 15.7031 15.375 15.75 15.4219 15.75C15.5156 15.75 15.6094 15.6563 15.6094 15.5625C15.6094 15.4688 15.5625 15.4219 15.4687 15.375C15.5156 15.375 15.5625 15.4219 15.5625 15.4688C15.5156 15.5625 15.4687 15.6094 15.375 15.6094ZM15 16.0313C15.0937 16.0313 15.1875 15.9375 15.3281 16.0313C15.4688 16.125 15.5625 16.1719 15.6563 16.2187C15.4688 16.0781 15.375 15.9375 15.1875 15.9375C15.1406 15.9375 15.0469 15.9375 15 15.9844C14.9062 15.9375 14.8594 15.9375 14.8125 15.9375C14.625 15.9375 14.5313 16.125 14.3438 16.2187C14.4375 16.1719 14.5312 16.0781 14.6719 16.0313C14.8125 15.9844 14.9062 16.0313 15 16.0313Z" fill="#85340A"/>
<path d="M15 16.1718C14.9062 16.1718 14.8594 16.1249 14.7187 16.1718C14.625 16.1718 14.5313 16.1718 14.3906 16.2187H14.3438C14.7656 16.2656 14.5781 16.4999 15 16.4999C15.4219 16.4999 15.2344 16.2656 15.6563 16.2187H15.5625C15.1875 16.0781 15.1406 16.1718 15 16.1718ZM15 16.4062C14.6719 16.4062 14.7656 16.1718 14.3906 16.1718C14.7656 16.0781 14.8125 16.2187 15 16.2187C15.1406 16.2187 15.2344 16.1249 15.6094 16.1718C15.2344 16.2187 15.3281 16.4062 15 16.4062ZM15 16.4999C14.8125 16.4999 14.625 16.6406 14.625 16.8749C14.6719 16.6874 14.8125 16.5937 15 16.5937C15.1875 16.5937 15.3281 16.7343 15.375 16.8749C15.375 16.6406 15.1875 16.4999 15 16.4999ZM14.7187 14.2968C14.8125 14.3906 14.8594 14.5312 14.8594 14.6249C14.9063 14.8593 14.8125 15.0937 14.625 15.3749C14.625 15.3749 14.6719 15.3749 14.7187 15.4218C14.8594 15.0937 14.9531 14.8124 14.9062 14.4843C14.9062 14.3906 14.8594 14.3437 14.8594 14.2499C14.4375 13.8749 13.8281 13.8281 13.3594 14.4374C13.8281 14.0156 14.4375 13.9687 14.7187 14.2968Z" fill="#85340A"/>
<path d="M14.4376 14.4844C14.5782 14.5781 14.6251 14.625 14.6719 14.625C14.7188 14.625 14.7188 14.5781 14.7188 14.5781C14.7188 14.5781 14.6251 14.5781 14.5313 14.4844C14.3907 14.3906 14.3438 14.3438 14.1094 14.3438C13.6876 14.3438 13.4532 14.6719 13.5001 14.6719C13.5469 14.6719 13.7344 14.3906 14.1094 14.3906C14.2032 14.3906 14.3438 14.3906 14.4376 14.4844Z" fill="#85340A"/>
<path d="M13.6406 14.6719C13.7344 14.7656 13.9219 14.8125 14.1094 14.8125C14.25 14.8125 14.4375 14.7656 14.5781 14.6719C14.4375 14.5312 14.25 14.4375 14.0625 14.4375C13.9219 14.4375 13.7344 14.5312 13.6406 14.6719ZM13.7344 14.6719C13.8281 14.5781 13.9219 14.4844 14.0156 14.4844C13.9687 14.5313 13.9219 14.5781 13.9219 14.625C13.9219 14.7188 13.9687 14.7656 14.0156 14.7656C13.9219 14.8125 13.7812 14.7656 13.7344 14.6719ZM14.4375 14.625C14.3906 14.6719 14.2969 14.7188 14.2031 14.7656C14.25 14.7188 14.25 14.6719 14.25 14.625C14.25 14.5781 14.2031 14.5313 14.2031 14.4844C14.3437 14.5313 14.4375 14.5781 14.4375 14.625Z" fill="#85340A"/>
<path d="M14.6719 14.7188C14.625 14.7188 14.5781 14.7656 14.4375 14.8594C14.2969 14.9531 14.0156 14.9531 13.6406 14.7656C13.9687 15.0469 14.3437 15 14.5312 14.9062C14.7187 14.7656 14.7187 14.7188 14.6719 14.7188Z" fill="#85340A"/>
</g>
<defs>
<clipPath id="clip0_763_437">
<rect width="30" height="30" fill="white"/>
</clipPath>
</defs>
</svg>
