<svg width="30" height="30" viewBox="0 0 30 30" fill="none" xmlns="http://www.w3.org/2000/svg">
<g clip-path="url(#clip0_763_281)">
<path d="M15 0.9375V5.625H5.625V15H0.9375C0.9375 22.7813 7.21875 29.0625 15 29.0625C22.7813 29.0625 29.0625 22.7813 29.0625 15C29.0625 7.21875 22.7813 0.9375 15 0.9375Z" fill="#2A5F9E"/>
<path d="M15 0.9375C12.7969 0.9375 10.7344 1.45313 8.85937 2.34375V5.15625H5.15625V8.85937H2.34375C1.45313 10.7344 0.9375 12.7969 0.9375 15H6.5625V7.96875L12.1875 15H15V11.4844L11.0625 6.5625H15V0.9375Z" fill="white"/>
<path d="M7.21875 6.5625L14.0625 15H15V12.7031L10.0312 6.5625H7.21875Z" fill="#ED4C5C"/>
<path d="M15 2.34375H8.85937C6.04687 3.70313 3.70313 6.04687 2.34375 8.85937V15H5.15625V5.15625H15V2.34375Z" fill="#ED4C5C"/>
<path d="M3.75 16.7344L4.78125 15.4688L4.45312 17.1094L6.09375 17.1562L4.64062 17.9063L5.625 19.2188L4.17187 18.5625L3.75 20.1562L3.32812 18.5625L1.875 19.2188L2.85937 17.9063L1.40625 17.1562L3.04688 17.1094L2.71875 15.4688L3.75 16.7344ZM24.375 9.46875L25.2187 8.4375L24.9375 9.75L26.25 9.79687L25.0781 10.4063L25.875 11.4375L24.7031 10.875L24.375 12.1875L24.0469 10.875L22.875 11.4375L23.6719 10.4063L22.5 9.79687L23.8125 9.75L23.5313 8.4375L24.375 9.46875ZM24.375 18.8438L25.2187 17.8125L24.9375 19.125L26.25 19.1719L25.0781 19.7813L25.875 20.8125L24.7031 20.25L24.375 21.5625L24.0469 20.25L22.875 20.8125L23.6719 19.7813L22.5 19.1719L23.8125 19.125L23.5313 17.8125L24.375 18.8438ZM19.6875 12.2813L20.5312 11.25L20.25 12.5625L21.5625 12.6094L20.3906 13.2188L21.1875 14.25L20.0156 13.6875L19.6875 15L19.3594 13.6875L18.1875 14.25L18.9844 13.2188L17.8125 12.6094L19.125 12.5625L18.8438 11.25L19.6875 12.2813Z" fill="white"/>
</g>
<defs>
<clipPath id="clip0_763_281">
<rect width="30" height="30" fill="white"/>
</clipPath>
</defs>
</svg>
