<svg width="30" height="30" viewBox="0 0 30 30" fill="none" xmlns="http://www.w3.org/2000/svg">
<g clip-path="url(#clip0_763_275)">
<path d="M15 29.0625C22.7665 29.0625 29.0625 22.7665 29.0625 15C29.0625 7.2335 22.7665 0.9375 15 0.9375C7.2335 0.9375 0.9375 7.2335 0.9375 15C0.9375 22.7665 7.2335 29.0625 15 29.0625Z" fill="#F5F5F5"/>
<path d="M10.9682 15.7975C12.2807 16.6881 14.1088 16.3131 14.9994 15.0006C15.8901 13.6881 17.6713 13.3131 19.0307 14.2037C20.2963 15.0475 20.6713 16.6881 19.9682 17.9537C21.5151 15.3287 20.8119 11.9069 18.1869 10.1725C15.5151 8.39123 11.9057 9.09436 10.1244 11.7662C10.0776 11.86 10.0307 11.9537 9.98382 12.0006C9.32757 13.36 9.74944 14.9537 10.9682 15.7975Z" fill="#ED4C5C"/>
<path d="M19.0315 14.2031C17.719 13.3125 15.8908 13.6875 15.0002 15C14.1096 16.3125 12.3283 16.6875 10.969 15.7969C9.70334 14.9531 9.32834 13.3125 10.0315 12.0469C8.43771 14.6719 9.18771 18.0937 11.8127 19.8281C14.4846 21.6094 18.094 20.9062 19.8752 18.2344C19.9221 18.1406 19.969 18.0469 20.0158 18C20.6721 16.6406 20.2502 15.0469 19.0315 14.2031Z" fill="#428BC1"/>
<path d="M3.65625 10.9219L6.89062 6.09375L6.5625 5.85937L6.23438 5.67188L3 10.5L3.32812 10.6875L3.65625 10.9219ZM4.54687 11.5312L4.875 11.7187L8.0625 6.89062L7.78125 6.70312L7.45312 6.46875L4.21875 11.2969L4.54687 11.5312ZM8.625 7.26562L5.4375 12.0937L5.76563 12.3281L6.09375 12.5156L9.28125 7.6875L8.95313 7.5L8.625 7.26562ZM22.7344 19.9219L23.0625 20.1562L24.5625 17.9063L24.2344 17.6719L23.9062 17.4844L22.4062 19.7344L22.7344 19.9219ZM26.3437 19.0781L24.8437 21.3281L25.1719 21.5625L25.5 21.75L27 19.5L26.6719 19.3125L26.3437 19.0781ZM24.2812 20.9531L25.7812 18.7031L25.4531 18.4688L25.125 18.2812L23.625 20.5312L23.9531 20.7187L24.2812 20.9531ZM22.5469 20.25L22.2188 20.0625L20.7187 22.3125L21.0469 22.5L21.375 22.7344L22.875 20.4844L22.5469 20.25ZM23.7187 21.0469L23.4375 20.8594L21.9375 23.1094L22.2188 23.2969L22.5469 23.5312L24.0469 21.2813L23.7187 21.0469ZM24.6094 21.6562L23.1094 23.9063L23.4375 24.1406L23.7656 24.3281L25.2656 22.0781L24.9375 21.8438L24.6094 21.6562ZM3.32812 19.3125L3 19.5L6.23438 24.3281L6.5625 24.1406L6.89062 23.9063L3.65625 19.0781L3.32812 19.3125ZM6.28125 21.0469L5.95312 21.2813L7.45312 23.5312L7.78125 23.2969L8.0625 23.1094L6.5625 20.8594L6.28125 21.0469ZM5.76563 17.6719L5.4375 17.9063L8.625 22.7344L8.95313 22.5L9.28125 22.3125L6.09375 17.4844L5.76563 17.6719ZM4.21875 18.7031L5.71875 20.9531L6.04687 20.7187L6.375 20.5312L4.875 18.2812L4.54687 18.4688L4.21875 18.7031ZM24.9375 8.15625L25.2656 7.92187L23.7656 5.67188L23.4375 5.85937L23.1094 6.09375L24.6094 8.34375L24.9375 8.15625ZM22.5469 9.75L22.875 9.51562L21.375 7.26562L21.0469 7.5L20.7187 7.6875L22.2188 9.9375L22.5469 9.75ZM24.8437 8.67187L26.3437 10.9219L26.6719 10.6875L27 10.5L25.5 8.25L25.1719 8.4375L24.8437 8.67187ZM25.4531 11.5312L25.7812 11.2969L22.5469 6.46875L22.2188 6.70312L21.9375 6.89062L25.125 11.7187L25.4531 11.5312ZM24.2344 12.3281L24.5625 12.0937L23.0625 9.84375L22.7344 10.0781L22.4062 10.2656L23.9062 12.5156L24.2344 12.3281Z" fill="#3E4347"/>
</g>
<defs>
<clipPath id="clip0_763_275">
<rect width="30" height="30" fill="white"/>
</clipPath>
</defs>
</svg>
