<svg width="30" height="30" viewBox="0 0 30 30" fill="none" xmlns="http://www.w3.org/2000/svg">
<g clip-path="url(#clip0_763_197)">
<path d="M14.9062 0.9375C8.8125 0.9375 3.60937 4.875 1.6875 10.3125H28.2188C26.25 4.875 21.0469 0.9375 14.9062 0.9375Z" fill="#F2B200"/>
<path d="M14.9062 29.0625C21.0469 29.0625 26.25 25.1719 28.1719 19.6875H1.6875C3.60937 25.1719 8.8125 29.0625 14.9062 29.0625Z" fill="#83BF4F"/>
<path d="M1.6875 10.3125C1.17187 11.7656 0.890625 13.3594 0.890625 15C0.890625 16.6406 1.17187 18.2344 1.6875 19.6875H28.2187C28.7344 18.2344 29.0156 16.6406 29.0156 15C29.0156 13.3594 28.7344 11.7656 28.2187 10.3125H1.6875Z" fill="white"/>
<path d="M14.9062 18.75C16.9773 18.75 18.6562 17.0711 18.6562 15C18.6562 12.9289 16.9773 11.25 14.9062 11.25C12.8352 11.25 11.1562 12.9289 11.1562 15C11.1562 17.0711 12.8352 18.75 14.9062 18.75Z" fill="#428BC1"/>
<path d="M14.9062 18.2812C16.7184 18.2812 18.1875 16.8122 18.1875 15C18.1875 13.1878 16.7184 11.7188 14.9062 11.7188C13.0941 11.7188 11.625 13.1878 11.625 15C11.625 16.8122 13.0941 18.2812 14.9062 18.2812Z" fill="white"/>
<path d="M13.6875 12.1875C13.8169 12.1875 13.9219 12.0826 13.9219 11.9531C13.9219 11.8237 13.8169 11.7188 13.6875 11.7188C13.5581 11.7188 13.4531 11.8237 13.4531 11.9531C13.4531 12.0826 13.5581 12.1875 13.6875 12.1875Z" fill="#428BC1"/>
<path d="M12.9375 12.6094C13.0669 12.6094 13.1719 12.5044 13.1719 12.375C13.1719 12.2456 13.0669 12.1406 12.9375 12.1406C12.8081 12.1406 12.7031 12.2456 12.7031 12.375C12.7031 12.5044 12.8081 12.6094 12.9375 12.6094Z" fill="#428BC1"/>
<path d="M12.3281 13.2188C12.4576 13.2188 12.5625 13.1138 12.5625 12.9844C12.5625 12.8549 12.4576 12.75 12.3281 12.75C12.1987 12.75 12.0938 12.8549 12.0938 12.9844C12.0938 13.1138 12.1987 13.2188 12.3281 13.2188Z" fill="#428BC1"/>
<path d="M11.9062 13.9688C12.0357 13.9688 12.1406 13.8638 12.1406 13.7344C12.1406 13.6049 12.0357 13.5 11.9062 13.5C11.7768 13.5 11.6719 13.6049 11.6719 13.7344C11.6719 13.8638 11.7768 13.9688 11.9062 13.9688Z" fill="#428BC1"/>
<path d="M11.6719 14.8125C11.8013 14.8125 11.9062 14.7076 11.9062 14.5781C11.9062 14.4487 11.8013 14.3438 11.6719 14.3438C11.5424 14.3438 11.4375 14.4487 11.4375 14.5781C11.4375 14.7076 11.5424 14.8125 11.6719 14.8125Z" fill="#428BC1"/>
<path d="M11.6719 15.6562C11.8013 15.6562 11.9062 15.5513 11.9062 15.4219C11.9062 15.2924 11.8013 15.1875 11.6719 15.1875C11.5424 15.1875 11.4375 15.2924 11.4375 15.4219C11.4375 15.5513 11.5424 15.6562 11.6719 15.6562Z" fill="#428BC1"/>
<path d="M11.9062 16.5C12.0357 16.5 12.1406 16.3951 12.1406 16.2656C12.1406 16.1362 12.0357 16.0312 11.9062 16.0312C11.7768 16.0312 11.6719 16.1362 11.6719 16.2656C11.6719 16.3951 11.7768 16.5 11.9062 16.5Z" fill="#428BC1"/>
<path d="M12.3281 17.25C12.4576 17.25 12.5625 17.1451 12.5625 17.0156C12.5625 16.8862 12.4576 16.7812 12.3281 16.7812C12.1987 16.7812 12.0938 16.8862 12.0938 17.0156C12.0938 17.1451 12.1987 17.25 12.3281 17.25Z" fill="#428BC1"/>
<path d="M12.9375 17.8594C13.0669 17.8594 13.1719 17.7544 13.1719 17.625C13.1719 17.4956 13.0669 17.3906 12.9375 17.3906C12.8081 17.3906 12.7031 17.4956 12.7031 17.625C12.7031 17.7544 12.8081 17.8594 12.9375 17.8594Z" fill="#428BC1"/>
<path d="M13.6875 18.2812C13.8169 18.2812 13.9219 18.1763 13.9219 18.0469C13.9219 17.9174 13.8169 17.8125 13.6875 17.8125C13.5581 17.8125 13.4531 17.9174 13.4531 18.0469C13.4531 18.1763 13.5581 18.2812 13.6875 18.2812Z" fill="#428BC1"/>
<path d="M14.4844 18.4688C14.6138 18.4688 14.7188 18.3638 14.7188 18.2344C14.7188 18.1049 14.6138 18 14.4844 18C14.3549 18 14.25 18.1049 14.25 18.2344C14.25 18.3638 14.3549 18.4688 14.4844 18.4688Z" fill="#428BC1"/>
<path d="M15.1406 18.2812C15.1406 18.1406 15.2344 18.0469 15.3281 18C15.4688 18 15.5625 18.0937 15.6094 18.1875C15.6094 18.3281 15.5156 18.4219 15.4219 18.4688C15.2344 18.5156 15.1406 18.4219 15.1406 18.2812Z" fill="#428BC1"/>
<path d="M16.1719 18.2812C16.3013 18.2812 16.4062 18.1763 16.4062 18.0469C16.4062 17.9174 16.3013 17.8125 16.1719 17.8125C16.0424 17.8125 15.9375 17.9174 15.9375 18.0469C15.9375 18.1763 16.0424 18.2812 16.1719 18.2812Z" fill="#428BC1"/>
<path d="M16.9219 17.8594C17.0513 17.8594 17.1562 17.7544 17.1562 17.625C17.1562 17.4956 17.0513 17.3906 16.9219 17.3906C16.7924 17.3906 16.6875 17.4956 16.6875 17.625C16.6875 17.7544 16.7924 17.8594 16.9219 17.8594Z" fill="#428BC1"/>
<path d="M17.5312 17.25C17.6607 17.25 17.7656 17.1451 17.7656 17.0156C17.7656 16.8862 17.6607 16.7812 17.5312 16.7812C17.4018 16.7812 17.2969 16.8862 17.2969 17.0156C17.2969 17.1451 17.4018 17.25 17.5312 17.25Z" fill="#428BC1"/>
<path d="M17.9531 16.5C18.0826 16.5 18.1875 16.3951 18.1875 16.2656C18.1875 16.1362 18.0826 16.0312 17.9531 16.0312C17.8237 16.0312 17.7188 16.1362 17.7188 16.2656C17.7188 16.3951 17.8237 16.5 17.9531 16.5Z" fill="#428BC1"/>
<path d="M18.1875 15.6562C18.3169 15.6562 18.4219 15.5513 18.4219 15.4219C18.4219 15.2924 18.3169 15.1875 18.1875 15.1875C18.0581 15.1875 17.9531 15.2924 17.9531 15.4219C17.9531 15.5513 18.0581 15.6562 18.1875 15.6562Z" fill="#428BC1"/>
<path d="M18.1875 14.8125C18.0469 14.8125 17.9531 14.7188 17.9062 14.625C17.9062 14.4844 18 14.3906 18.0937 14.3438C18.2344 14.3438 18.3281 14.4375 18.375 14.5312C18.4219 14.6719 18.3281 14.7656 18.1875 14.8125Z" fill="#428BC1"/>
<path d="M17.9531 13.9688C18.0826 13.9688 18.1875 13.8638 18.1875 13.7344C18.1875 13.6049 18.0826 13.5 17.9531 13.5C17.8237 13.5 17.7188 13.6049 17.7188 13.7344C17.7188 13.8638 17.8237 13.9688 17.9531 13.9688Z" fill="#428BC1"/>
<path d="M17.5312 13.2188C17.6607 13.2188 17.7656 13.1138 17.7656 12.9844C17.7656 12.8549 17.6607 12.75 17.5312 12.75C17.4018 12.75 17.2969 12.8549 17.2969 12.9844C17.2969 13.1138 17.4018 13.2188 17.5312 13.2188Z" fill="#428BC1"/>
<path d="M16.9219 12.6094C17.0513 12.6094 17.1562 12.5044 17.1562 12.375C17.1562 12.2456 17.0513 12.1406 16.9219 12.1406C16.7924 12.1406 16.6875 12.2456 16.6875 12.375C16.6875 12.5044 16.7924 12.6094 16.9219 12.6094Z" fill="#428BC1"/>
<path d="M16.4063 12.0474C16.3594 12.188 16.2187 12.2348 16.0781 12.188C15.9375 12.1411 15.8906 12.0005 15.9375 11.8598C15.9844 11.7192 16.125 11.6723 16.2656 11.7192C16.4063 11.813 16.4531 11.9536 16.4063 12.0474ZM15.5625 11.7661C15.5625 11.9067 15.4219 12.0005 15.2812 11.9536C15.1406 11.9536 15.0469 11.813 15.0938 11.6723C15.0938 11.5317 15.2344 11.438 15.375 11.4848C15.5156 11.5317 15.6094 11.6724 15.5625 11.7661ZM14.7188 11.7192C14.7188 11.8598 14.625 11.9536 14.5313 12.0005C14.3906 12.0005 14.2969 11.9067 14.25 11.813C14.25 11.6724 14.3437 11.5786 14.4375 11.5317C14.5781 11.4849 14.7188 11.5786 14.7188 11.7192Z" fill="#428BC1"/>
<path d="M14.9062 15.7031C15.2946 15.7031 15.6094 15.3883 15.6094 15C15.6094 14.6117 15.2946 14.2969 14.9062 14.2969C14.5179 14.2969 14.2031 14.6117 14.2031 15C14.2031 15.3883 14.5179 15.7031 14.9062 15.7031Z" fill="#428BC1"/>
<path d="M14.9062 11.7188L14.8125 13.7344L14.9062 15L15.0469 13.7344L14.9062 11.7188ZM14.0625 11.8125L14.4844 13.8281L14.9062 15L14.7187 13.7344L14.0625 11.8125Z" fill="#428BC1"/>
<path d="M13.2656 12.1406L14.2031 13.9687L14.9062 15L14.3906 13.8281L13.2656 12.1406ZM12.6094 12.6563L13.9687 14.2031L14.9062 15L14.1094 14.0156L12.6094 12.6563Z" fill="#428BC1"/>
<path d="M12.0938 13.3594L13.7813 14.4844L14.9062 15L13.875 14.25L12.0938 13.3594Z" fill="#428BC1"/>
<path d="M11.7656 14.1562L13.6875 14.7656L14.9062 15L13.7344 14.5781L11.7656 14.1562ZM11.625 15L13.6875 15.0938L14.9062 15L13.6875 14.9062L11.625 15Z" fill="#428BC1"/>
<path d="M11.7656 15.8437L13.7344 15.4219L14.9062 15L13.6875 15.2344L11.7656 15.8437ZM12.0937 16.6406L13.875 15.75L14.9062 15L13.7812 15.5156L12.0937 16.6406Z" fill="#428BC1"/>
<path d="M12.6094 17.2969L14.1094 15.9844L14.9062 15L13.9687 15.7969L12.6094 17.2969ZM13.2656 17.8594L14.3906 16.125L14.9062 15L14.2031 16.0313L13.2656 17.8594Z" fill="#428BC1"/>
<path d="M14.0625 18.1875L14.7187 16.2656L14.9062 15L14.4844 16.1719L14.0625 18.1875ZM14.9062 18.2812L15.0469 16.2656L14.9062 15L14.8125 16.2656L14.9062 18.2812ZM15.75 18.1875L15.375 16.1719L14.9062 15L15.1406 16.2656L15.75 18.1875Z" fill="#428BC1"/>
<path d="M16.5469 17.8594L15.6563 16.0313L14.9062 15L15.4688 16.1719L16.5469 17.8594ZM17.25 17.2969L15.8906 15.7969L14.9062 15L15.75 15.9844L17.25 17.2969Z" fill="#428BC1"/>
<path d="M17.7656 16.6406L16.0781 15.5156L14.9062 15L15.9375 15.75L17.7656 16.6406ZM18.0937 15.8437L16.1719 15.2344L14.9062 15L16.125 15.4219L18.0937 15.8437ZM18.1875 15L16.1719 14.8594L14.9062 15L16.1719 15.0937L18.1875 15ZM18.0937 14.1562L16.125 14.5781L14.9062 15L16.1719 14.7656L18.0937 14.1562Z" fill="#428BC1"/>
<path d="M17.7656 13.3594L15.9375 14.25L14.9062 15L16.0781 14.4844L17.7656 13.3594ZM17.25 12.7031L15.75 14.0156L14.9062 15L15.8906 14.2031L17.25 12.7031Z" fill="#428BC1"/>
<path d="M16.5469 12.1406L15.4688 13.875L14.9062 15L15.6563 13.9687L16.5469 12.1406Z" fill="#428BC1"/>
<path d="M15.7969 11.8125L15.1406 13.7344L14.9062 15L15.375 13.8281L15.7969 11.8125Z" fill="#428BC1"/>
</g>
<defs>
<clipPath id="clip0_763_197">
<rect width="30" height="30" fill="white"/>
</clipPath>
</defs>
</svg>
