<svg width="30" height="30" viewBox="0 0 30 30" fill="none" xmlns="http://www.w3.org/2000/svg">
<path d="M0.84375 15C0.84375 21.1406 4.78125 26.3437 10.2188 28.2656V1.73438C4.73438 3.65625 0.84375 8.85937 0.84375 15Z" fill="#83BF4F"/>
<path d="M28.9688 15C28.9688 8.85937 25.0313 3.65625 19.5938 1.73438V28.2656C25.0313 26.3437 28.9688 21.1406 28.9688 15Z" fill="#FF8736"/>
<path d="M10.2188 28.2656C11.6719 28.7812 13.2656 29.0625 14.9062 29.0625C16.5469 29.0625 18.1406 28.7812 19.5938 28.2656V1.73438C18.0937 1.21875 16.5469 0.9375 14.9062 0.9375C13.2656 0.9375 11.6719 1.21875 10.2188 1.73438V28.2656Z" fill="white"/>
</svg>
