<svg width="30" height="30" viewBox="0 0 30 30" fill="none" xmlns="http://www.w3.org/2000/svg">
<g clip-path="url(#clip0_763_262)">
<path d="M29.0625 15C29.0625 8.85937 25.1719 3.65625 19.6875 1.73438V28.2656C25.1719 26.3437 29.0625 21.1406 29.0625 15Z" fill="#ED4C5C"/>
<path d="M0.9375 15C0.9375 21.1406 4.875 26.3437 10.3125 28.2656V1.73438C4.875 3.65625 0.9375 8.85937 0.9375 15Z" fill="#75A843"/>
<path d="M19.6875 1.73438C18.2344 1.21875 16.6406 0.9375 15 0.9375C13.3594 0.9375 11.7656 1.21875 10.3125 1.73438V28.2656C11.7656 28.7812 13.3594 29.0625 15 29.0625C16.6406 29.0625 18.2344 28.7812 19.6875 28.2656V1.73438Z" fill="white"/>
<path d="M19.0778 14.8594C19.0309 14.7188 18.984 14.9062 18.984 14.9531C18.984 14.8125 18.9371 14.7188 18.8434 14.5781C18.7028 14.7188 18.6559 14.9063 18.6559 15.0938C18.609 14.9531 18.5621 14.8125 18.4215 14.7656C18.5153 14.9062 18.4684 15 18.4684 15.1406C18.4684 15.3281 18.609 15.4688 18.609 15.6563C18.609 15.8438 18.5153 15.9844 18.3746 16.125V15.9844C17.9059 16.1719 17.9996 16.4063 17.9996 16.8281C17.9996 17.25 17.7653 17.1562 17.484 17.3906C17.5309 17.2969 17.5309 17.1563 17.484 17.0625C17.484 17.3438 17.109 17.3437 17.0621 17.5781C17.0153 17.6719 17.0621 17.8594 16.9215 17.9063C16.8278 17.9531 16.6871 18.0469 16.6871 18.1406C16.5934 18.0938 16.4996 18.0937 16.359 18.0937C16.4059 18.0469 16.4528 18.0469 16.4996 18C16.0309 17.7656 15.8903 18.2812 15.4684 18.3281C15.3278 18.3281 14.9996 18.1406 14.9996 18.3281C15.4215 18.3281 15.609 18.7031 15.9371 18.7031C16.2184 18.7031 16.4528 18.4688 16.734 18.4688C16.6871 18.4688 16.5465 18.375 16.4059 18.375C16.6403 18.2344 16.7809 17.9531 17.0621 17.9531C17.5309 17.9531 17.7653 17.8594 17.9059 17.3906C17.859 17.3906 17.8121 17.3906 17.7653 17.4375C17.7653 17.25 17.9528 17.0156 18.1403 16.9219C18.609 16.8281 18.5621 16.4531 18.8434 16.125C18.7496 16.125 18.6559 16.1719 18.5621 16.2656C18.5621 15.9844 18.5153 15.7031 18.7496 15.5156C19.2184 15.2812 19.1715 15.1875 19.0778 14.8594ZM10.9215 14.8594C10.8278 15.2344 10.7809 15.3281 11.1559 15.5625C11.4371 15.75 11.3434 16.0312 11.3434 16.3125C11.2496 16.2187 11.2028 16.1719 11.0621 16.1719C11.3434 16.4531 11.2965 16.875 11.7653 16.9688C11.9059 17.0625 12.1403 17.2969 12.1403 17.4844C12.0934 17.4844 12.0465 17.4375 11.9996 17.4375C12.1403 17.9063 12.3746 18 12.8434 18C13.1246 18 13.2653 18.2812 13.4996 18.4219C13.359 18.4219 13.2184 18.4687 13.1715 18.5156C13.4528 18.5156 13.6871 18.7969 13.9684 18.75C14.2965 18.75 14.5309 18.375 14.9059 18.375C14.9059 18.1875 14.5778 18.375 14.4371 18.375C14.0621 18.2813 13.9215 17.8125 13.4059 18C13.4528 18.0469 13.4996 18.0937 13.5465 18.0937C13.4528 18.0937 13.3121 18.0469 13.2184 18.1406C13.1715 18.0469 13.0778 17.9531 12.984 17.9063C12.8903 17.8125 12.8903 17.6719 12.8434 17.5781C12.7496 17.3437 12.4215 17.2969 12.4215 17.0625C12.3746 17.1563 12.3746 17.2969 12.4215 17.3906C12.1403 17.1562 11.9059 17.25 11.9059 16.8281C11.9059 16.4531 11.9996 16.1719 11.5309 15.9844V16.125C11.3903 15.9844 11.2965 15.8906 11.2965 15.6563C11.2965 15.4688 11.484 15.3281 11.4371 15.1406C11.4371 15 11.3903 14.9062 11.484 14.7656C11.3434 14.8125 11.2965 14.9531 11.2496 15.0938C11.2496 14.9063 11.2028 14.7188 11.0621 14.5781C11.0153 14.6719 10.9684 14.8125 10.9215 14.9531C10.9684 14.8594 10.9215 14.7188 10.9215 14.8594Z" fill="#75A843"/>
<path d="M16.2656 17.6719C16.1719 17.6719 16.125 17.5781 16.0781 17.5313C16.0781 17.4375 16.4531 17.3438 16.5 17.3438V17.25C15.8906 17.4375 14.0625 17.5781 13.6875 16.9219C13.5 17.2031 13.1719 17.0156 12.8438 16.7812C12.8906 16.875 13.0781 17.3438 13.0781 17.2969C13.1719 17.3438 13.7812 17.4844 13.7812 17.625L13.6406 17.7656C14.625 18.0938 15.2344 18.1875 16.2656 17.6719Z" fill="#428BC1"/>
<path d="M15.6563 17.671C15.7031 17.6241 15.7031 17.5772 15.7031 17.4835L15.6563 17.3429C15.75 17.2491 15.6562 17.0147 15.5156 17.0616C15.4219 17.1085 15.4687 17.1085 15.375 17.0616C15.3281 17.0616 15.3281 17.0147 15.2812 17.0147H14.4375C14.3437 17.0147 14.3437 16.9679 14.25 16.9679C14.1562 16.921 14.1094 17.0147 14.0625 17.0616C14.0625 17.1554 14.1094 17.1554 14.1094 17.2022C14.1094 17.2491 14.0625 17.296 14.0625 17.3897C14.0625 17.4835 14.1094 17.5304 14.1563 17.5772C13.9688 17.7179 14.1563 17.9522 14.3438 17.8116C14.3906 17.9054 14.5312 17.9054 14.6719 17.9054H15.1875C15.2813 17.9054 15.4687 17.9522 15.5156 17.8116C15.6562 18.046 15.8438 17.7647 15.6563 17.671Z" fill="#ED4C5C"/>
<path d="M17.1557 16.4528C16.7807 15.9841 16.5932 16.6872 16.1714 16.6403C16.2651 16.0778 15.4214 16.2653 15.187 16.4059C15.2339 16.3591 15.2807 16.2653 15.3276 16.1716C15.1401 16.1716 14.9057 16.2653 14.7651 16.1247C14.4839 15.9372 14.1089 15.8434 13.8745 16.1716C13.687 15.8903 13.1714 15.6091 12.8901 15.8903C12.8901 15.6091 12.6089 15.1872 12.2807 15.2341C11.9057 15.2809 12.0464 15.7497 12.2339 15.9372C12.3745 16.0778 12.562 16.1247 12.7495 16.1247C12.7495 16.2184 12.7964 16.2653 12.8432 16.3122C13.0776 16.4997 13.5464 16.5466 13.7807 16.3591C13.7807 16.8278 14.7182 16.8278 14.9526 16.5934C14.8589 16.8278 14.7651 17.2966 15.0932 17.2966C15.3745 17.2966 15.2807 17.0153 15.5151 16.9216C15.7026 16.8278 15.937 16.7809 16.1245 16.8747C16.4526 17.0622 17.4839 17.0153 17.1557 16.4528Z" fill="#428BC1"/>
<path d="M13.3128 15.2829C13.266 15.1891 13.1722 15.0954 13.1722 15.0954C12.9847 15.1422 12.9847 15.0016 12.9378 14.861C12.891 14.6266 12.5628 14.5329 12.5628 14.3454C12.5628 14.1579 12.7503 13.9704 12.6097 13.7829C12.4691 13.5954 12.2347 13.5016 12.2347 13.5954C12.1878 13.6891 12.4222 13.6891 12.4222 13.9235C12.4222 14.2047 12.141 14.4391 12.4691 14.6735C12.6566 14.9547 12.6566 15.4704 12.9847 15.4704C13.1253 15.4704 13.266 15.4235 13.3128 15.2829Z" fill="#75A843"/>
<path d="M14.0163 15.0475C13.9225 14.86 14.0163 14.5788 13.8288 14.4382C13.5944 14.2507 13.1256 14.6257 13.0788 14.1569C13.0788 14.0632 13.5944 13.5007 13.6881 13.4538C13.8288 13.2663 13.7819 12.9382 13.6413 12.8444C13.4538 12.7507 13.4069 12.8444 13.2663 13.0319C13.3131 13.0788 13.5006 13.1725 13.5006 13.2194C13.36 13.5475 12.9381 13.5944 12.8444 13.9225C12.7506 14.1569 12.7975 14.5319 13.0319 14.6725C13.1725 14.7663 13.2663 14.7663 13.4069 14.7663C13.8288 14.7194 13.5944 14.8132 13.6413 14.9069C13.6413 15.0007 13.7819 15.3288 14.0163 15.0475ZM12.61 12.7507C12.61 13.0319 12.8913 12.985 13.0788 12.9382C13.0788 12.8444 13.0788 12.7507 13.1256 12.6569C13.0319 12.7038 12.8913 12.7038 12.8444 12.6569C12.7038 12.5632 13.1725 12.3757 13.1256 12.3757C13.1256 12.3757 12.6569 12.61 12.8444 12.3288C12.8913 12.235 12.985 12.1413 13.0319 12.0475C13.0788 11.9538 12.8913 12.0475 12.8913 12.0475C12.8444 12.0475 12.7975 12.0475 12.7506 12.0944C12.4694 12.3288 12.5631 12.4694 12.61 12.7507Z" fill="#75A843"/>
<path d="M17.579 12.75C17.3447 12.4219 16.454 11.3437 15.1884 11.25C15.0478 11.25 14.6728 11.3906 14.5322 11.4375C14.1103 11.7187 15.0009 11.9531 15.0478 12.1406C15.0478 12.2344 15.0947 12.2812 15.0947 12.375C14.954 12.1406 14.8134 12 14.7665 11.9062C14.5322 12 14.1572 11.8594 14.1103 11.625C14.0634 11.7187 14.0634 11.7656 13.9697 11.8594C13.9697 11.7187 13.9228 11.7187 13.8759 11.625C13.8759 11.7656 13.8759 11.9531 13.7353 12C13.7822 11.9063 13.7353 11.8125 13.6884 11.7187C13.6884 11.8594 13.6884 11.9531 13.5947 12.0469C13.6415 11.9531 13.5478 11.9063 13.5478 11.8125C13.5009 12.1875 12.9853 12.3281 13.5009 12.4688C13.6884 12.5156 13.7822 12.4687 13.9697 12.5625C14.0165 12.6094 14.1103 12.7031 14.1103 12.6562C14.1103 12.7031 13.9228 12.8906 14.0634 12.9375C14.0165 12.9844 13.8759 13.2656 13.8759 13.2656C14.0165 13.2656 13.9228 13.3594 13.829 13.4531C13.6884 13.6875 13.829 13.9219 13.8759 14.2031C13.8759 14.1094 14.0165 14.25 14.0165 14.3906C14.0165 14.5781 14.204 14.6719 14.2509 14.8125C14.0165 14.5781 13.9697 14.8125 14.2509 14.9531C14.0165 14.9531 13.9697 15.0938 14.204 15.1875C13.6415 15.1875 14.1103 15.4219 14.204 15.4687C14.579 15.5625 14.8603 15.2812 14.8603 15.2344C14.8603 15.2344 15.6103 15.9844 15.6572 15.9844C15.704 15.9844 16.079 15.7969 16.1728 15.8906C16.2665 16.0313 16.3603 15.8906 16.454 15.9375C16.5478 16.0312 16.9228 15.9375 17.0165 15.8906C17.0634 15.8906 17.5322 15.7969 17.4384 15.7031C17.204 15.5156 16.9228 15.3281 16.6884 15.1406C16.454 14.9531 16.2197 14.8125 16.0322 14.625C15.9384 14.5313 15.9384 14.3437 15.8915 14.2031C16.3134 14.625 16.7353 14.8594 16.6884 14.0625C16.9697 14.2969 17.5322 15.6094 17.579 15.6094C17.7197 15.6094 17.579 14.2031 17.579 14.0625C17.7665 14.25 17.7665 15.7969 17.8134 15.7969C18.0478 15.8438 18.3759 13.7813 17.579 12.75Z" fill="#89664C"/>
<path d="M14.2031 15.1413C14.1562 15.1413 13.9219 14.8132 13.9219 14.7663C14.0625 15.3288 13.5 15.0007 13.6406 14.7663C13.4531 14.7194 12.9844 15.0007 13.1719 15.2819C13.0781 15.4694 13.8281 15.3288 13.875 15.235C14.0625 15.6569 14.5312 15.1882 14.2031 15.1413ZM16.4063 16.5475C16.6406 16.2194 15.6562 16.1257 15.75 15.7507C15.6094 15.8444 15.4219 16.1725 15.2344 16.0788C15.1406 16.0319 14.7656 16.2663 14.9531 16.4069C14.9531 16.2194 15.0469 16.36 15.1875 16.3132C15.1406 16.4538 15 16.5944 15.2344 16.6881C15.1406 16.4069 15.5156 16.5475 15.4688 16.4069C15.375 16.3132 15.7969 16.3132 15.8438 16.3132C15.9844 16.3132 16.4531 16.4538 16.2656 16.5944C16.2656 16.5944 16.3594 16.5944 16.4063 16.5475ZM13.2656 12.5163C13.2187 12.61 13.0312 12.7507 13.0312 12.8913C13.0312 12.985 13.2656 13.2194 13.3594 13.0788C13.0781 12.8913 13.4063 12.7507 13.5469 12.7507C13.5938 12.7507 13.5938 12.8444 13.5938 12.8444C13.6406 12.8913 14.0156 12.7507 13.9688 12.6569C14.0156 12.4694 13.4063 12.4694 13.2656 12.5163Z" fill="#FFCE31"/>
</g>
<defs>
<clipPath id="clip0_763_262">
<rect width="30" height="30" fill="white"/>
</clipPath>
</defs>
</svg>
