<svg width="16" height="23" viewBox="0 0 16 23" fill="none" xmlns="http://www.w3.org/2000/svg">
<path fill-rule="evenodd" clip-rule="evenodd" d="M0.799779 0C1.01189 0 1.21532 0.0845305 1.36531 0.234996C1.5153 0.385461 1.59956 0.589536 1.59956 0.802326V1.96302L3.27803 1.62605C5.19037 1.24283 7.17253 1.42569 8.98312 2.15237L9.42353 2.32888C10.7867 2.8759 12.2871 2.97809 13.7114 2.62093C15.0764 2.2786 16.1715 3.76237 15.4475 4.97121L14.0847 7.25088C13.6826 7.92163 13.6186 8.0607 13.6026 8.18693C13.5943 8.25585 13.5943 8.32554 13.6026 8.39447C13.6186 8.5207 13.6826 8.65977 14.0847 9.33051L15.7482 12.113C16.356 13.1293 15.8122 14.4451 14.6669 14.7339L14.5603 14.7596C12.5099 15.2736 10.3503 15.1265 8.38809 14.3392C6.86574 13.7285 5.19928 13.575 3.59154 13.8973L1.59956 14.2974V22.1977C1.59956 22.4105 1.5153 22.6145 1.36531 22.765C1.21532 22.9155 1.01189 23 0.799779 23C0.587665 23 0.384238 22.9155 0.23425 22.765C0.0842621 22.6145 0 22.4105 0 22.1977V0.802326C0 0.589536 0.0842621 0.385461 0.23425 0.234996C0.384238 0.0845305 0.587665 0 0.799779 0ZM1.59956 12.6607L3.27803 12.3237C5.19037 11.9405 7.17253 12.1234 8.98312 12.85C10.6329 13.5116 12.4484 13.6352 14.1721 13.2031L14.2787 13.1763C14.3028 13.1702 14.3252 13.1585 14.344 13.1421C14.3628 13.1258 14.3776 13.1053 14.3871 13.0822C14.3966 13.0592 14.4007 13.0342 14.3989 13.0093C14.3971 12.9844 14.3895 12.9603 14.3768 12.9388L12.7133 10.1564L12.6493 10.0515C12.3486 9.54874 12.082 9.10479 12.0159 8.60307C11.9894 8.39567 11.9894 8.18573 12.0159 7.97833C12.082 7.4766 12.3475 7.03265 12.6504 6.53093L12.7133 6.42502L14.0495 4.18921C12.3135 4.61382 10.4887 4.48443 8.82957 3.81907L8.38809 3.64149C6.86574 3.03087 5.19928 2.87737 3.59154 3.19967L1.59956 3.59977V12.6607Z" fill="black"/>
</svg>
