<svg width="30" height="30" viewBox="0 0 30 30" fill="none" xmlns="http://www.w3.org/2000/svg">
<g clip-path="url(#clip0_763_377)">
<path d="M7.96875 27.1875V2.8125C3.75 5.25 0.9375 9.79687 0.9375 15C0.9375 20.2031 3.75 24.75 7.96875 27.1875Z" fill="#699635"/>
<path d="M15 0.9375C12.4219 0.9375 10.0313 1.64062 7.96875 2.8125V27.1875C10.0313 28.4062 12.4219 29.0625 15 29.0625C22.7813 29.0625 29.0625 22.7813 29.0625 15C29.0625 7.21875 22.7813 0.9375 15 0.9375Z" fill="#ED4C5C"/>
<path d="M7.96875 9.375C4.875 9.375 2.34375 11.9063 2.34375 15C2.34375 18.0937 4.875 20.625 7.96875 20.625C11.0625 20.625 13.5938 18.0937 13.5938 15C13.5938 11.9063 11.0625 9.375 7.96875 9.375ZM7.96875 19.9219C5.25 19.9219 3.04688 17.7188 3.04688 15C3.04688 12.2812 5.25 10.0781 7.96875 10.0781C10.6875 10.0781 12.8906 12.2812 12.8906 15C12.8906 17.7188 10.6875 19.9219 7.96875 19.9219Z" fill="#FFE62E"/>
<path d="M9.89063 20.4844C9.79688 20.5781 9.65625 20.5781 9.5625 20.4844L3.14063 12C3.04688 11.9062 3.04688 11.7656 3.14063 11.6719L3.28125 11.5313C3.375 11.4375 3.51562 11.4375 3.60937 11.5313L10.0312 20.0156C10.125 20.1094 10.125 20.25 10.0312 20.3438L9.89063 20.4844Z" fill="#FFE62E"/>
<path d="M8.0625 9.14062C8.20313 9.14062 8.29688 9.23437 8.29688 9.375V20.625C8.29688 20.7656 8.20313 20.8594 8.0625 20.8594H7.82812C7.6875 20.8594 7.59375 20.7656 7.59375 20.625V9.375C7.59375 9.23437 7.6875 9.14062 7.82812 9.14062H8.0625Z" fill="#FFE62E"/>
<path d="M13.5472 15.6097L7.96907 14.6253V15.3284L13.4534 16.3128C13.5941 16.3128 13.6878 16.2659 13.7347 16.1253L13.7816 15.8909C13.7816 15.7972 13.6878 15.6566 13.5472 15.6097ZM7.96907 14.5784L3.56282 11.4847C3.46907 11.3909 3.32845 11.4378 3.2347 11.5316L3.09407 11.7191C3.00032 11.8128 3.0472 11.9534 3.14095 12.0472L7.96907 15.4222V14.5784Z" fill="#FFE62E"/>
<path d="M7.78102 14.0625L3.37477 18.4688C3.28102 18.5625 3.28102 18.7031 3.37477 18.7969L3.56227 18.9844C3.65602 19.0781 3.79665 19.0781 3.8904 18.9844L7.78102 15.0938V14.0625ZM7.96852 11.9531L2.10914 14.7187C2.01539 14.7656 1.92165 14.9062 2.0154 15.0469L2.10914 15.2812C2.15602 15.375 2.29664 15.4687 2.43727 15.375L7.96852 12.75V11.9531Z" fill="#FFE62E"/>
<path d="M13.1719 12.75L7.59375 11.7656V12.4688L13.0781 13.4531C13.2188 13.4531 13.3125 13.4062 13.3594 13.2656L13.4063 13.0312C13.3594 12.8906 13.2656 12.75 13.1719 12.75ZM7.92187 18.2344C7.82812 18.2813 7.73438 18.4219 7.82813 18.5625L7.92187 18.7969C7.96875 18.8906 8.10938 18.9844 8.25 18.8906L12.9375 16.7344L13.1719 15.8437L7.92187 18.2344ZM7.92187 16.6406L2.67188 14.7187V15.4687L7.92187 17.3906V16.6406Z" fill="#FFE62E"/>
<path d="M4.26562 18.1875V18.8906L11.2031 19.3594C11.4844 19.1719 11.7187 18.9375 11.9531 18.7031L4.26562 18.1875Z" fill="#FFE62E"/>
<path d="M5.625 12.6562V15.9375C5.625 17.25 6.65625 18.2812 7.96875 18.2812C9.28125 18.2812 10.3125 17.25 10.3125 15.9375V12.6562H5.625Z" fill="white"/>
<path d="M7.96875 19.2188C6.14062 19.2188 4.6875 17.7656 4.6875 15.9375V11.7188H11.25V15.9375C11.25 17.7656 9.79688 19.2188 7.96875 19.2188ZM6.5625 13.5938V15.9375C6.5625 16.7344 7.17187 17.3438 7.96875 17.3438C8.76563 17.3438 9.375 16.7344 9.375 15.9375V13.5938H6.5625Z" fill="#ED4C5C"/>
<path d="M7.54687 13.7813V14.5313C7.54687 14.6719 7.64062 14.7656 7.78125 14.7656H8.15625C8.29687 14.7656 8.39062 14.6719 8.39062 14.5313V13.7344H7.54687V13.7813ZM7.54687 14.9531V15.75C7.54687 15.8906 7.64062 15.9844 7.78125 15.9844H8.15625C8.29687 15.9844 8.39062 15.8906 8.39062 15.75V14.9531H7.54687ZM6.60938 14.9531V15.75C6.60938 15.8906 6.70312 15.9844 6.84375 15.9844H7.21875C7.35937 15.9844 7.45312 15.8906 7.45312 15.75V14.9531H6.60938ZM8.48437 14.9531V15.75C8.48437 15.8906 8.57812 15.9844 8.71875 15.9844H9.09375C9.23437 15.9844 9.32812 15.8906 9.32812 15.75V14.9531H8.48437ZM7.54687 16.0781V16.875C7.54687 17.0156 7.64062 17.1094 7.78125 17.1094H8.15625C8.29687 17.1094 8.39062 17.0156 8.39062 16.875V16.0781H7.54687Z" fill="#0071BC"/>
<path d="M7.96875 15.5156C8.02053 15.5156 8.0625 15.4737 8.0625 15.4219C8.0625 15.3701 8.02053 15.3281 7.96875 15.3281C7.91697 15.3281 7.875 15.3701 7.875 15.4219C7.875 15.4737 7.91697 15.5156 7.96875 15.5156Z" fill="white"/>
<path d="M7.78125 15.75C7.83303 15.75 7.875 15.708 7.875 15.6563C7.875 15.6045 7.83303 15.5625 7.78125 15.5625C7.72947 15.5625 7.6875 15.6045 7.6875 15.6563C7.6875 15.708 7.72947 15.75 7.78125 15.75Z" fill="white"/>
<path d="M8.15625 15.75C8.20803 15.75 8.25 15.708 8.25 15.6563C8.25 15.6045 8.20803 15.5625 8.15625 15.5625C8.10447 15.5625 8.0625 15.6045 8.0625 15.6563C8.0625 15.708 8.10447 15.75 8.15625 15.75Z" fill="white"/>
<path d="M7.78125 15.2812C7.83303 15.2812 7.875 15.2393 7.875 15.1875C7.875 15.1357 7.83303 15.0938 7.78125 15.0938C7.72947 15.0938 7.6875 15.1357 7.6875 15.1875C7.6875 15.2393 7.72947 15.2812 7.78125 15.2812Z" fill="white"/>
<path d="M8.15625 15.2812C8.20803 15.2812 8.25 15.2393 8.25 15.1875C8.25 15.1357 8.20803 15.0938 8.15625 15.0938C8.10447 15.0938 8.0625 15.1357 8.0625 15.1875C8.0625 15.2393 8.10447 15.2812 8.15625 15.2812Z" fill="white"/>
<path d="M7.96875 14.3437C8.02053 14.3437 8.0625 14.3018 8.0625 14.25C8.0625 14.1982 8.02053 14.1562 7.96875 14.1562C7.91697 14.1562 7.875 14.1982 7.875 14.25C7.875 14.3018 7.91697 14.3437 7.96875 14.3437Z" fill="white"/>
<path d="M7.78125 14.5781C7.83303 14.5781 7.875 14.5362 7.875 14.4844C7.875 14.4326 7.83303 14.3906 7.78125 14.3906C7.72947 14.3906 7.6875 14.4326 7.6875 14.4844C7.6875 14.5362 7.72947 14.5781 7.78125 14.5781Z" fill="white"/>
<path d="M8.15625 14.5781C8.20803 14.5781 8.25 14.5362 8.25 14.4844C8.25 14.4326 8.20803 14.3906 8.15625 14.3906C8.10447 14.3906 8.0625 14.4326 8.0625 14.4844C8.0625 14.5362 8.10447 14.5781 8.15625 14.5781Z" fill="white"/>
<path d="M7.78125 14.1094C7.83303 14.1094 7.875 14.0674 7.875 14.0156C7.875 13.9638 7.83303 13.9219 7.78125 13.9219C7.72947 13.9219 7.6875 13.9638 7.6875 14.0156C7.6875 14.0674 7.72947 14.1094 7.78125 14.1094Z" fill="white"/>
<path d="M8.15625 14.1094C8.20803 14.1094 8.25 14.0674 8.25 14.0156C8.25 13.9638 8.20803 13.9219 8.15625 13.9219C8.10447 13.9219 8.0625 13.9638 8.0625 14.0156C8.0625 14.0674 8.10447 14.1094 8.15625 14.1094Z" fill="white"/>
<path d="M8.90625 15.5156C8.95803 15.5156 9 15.4737 9 15.4219C9 15.3701 8.95803 15.3281 8.90625 15.3281C8.85447 15.3281 8.8125 15.3701 8.8125 15.4219C8.8125 15.4737 8.85447 15.5156 8.90625 15.5156Z" fill="white"/>
<path d="M8.71875 15.75C8.77053 15.75 8.8125 15.708 8.8125 15.6563C8.8125 15.6045 8.77053 15.5625 8.71875 15.5625C8.66697 15.5625 8.625 15.6045 8.625 15.6563C8.625 15.708 8.66697 15.75 8.71875 15.75Z" fill="white"/>
<path d="M9.09375 15.75C9.14553 15.75 9.1875 15.708 9.1875 15.6563C9.1875 15.6045 9.14553 15.5625 9.09375 15.5625C9.04197 15.5625 9 15.6045 9 15.6563C9 15.708 9.04197 15.75 9.09375 15.75Z" fill="white"/>
<path d="M8.71875 15.2812C8.77053 15.2812 8.8125 15.2393 8.8125 15.1875C8.8125 15.1357 8.77053 15.0938 8.71875 15.0938C8.66697 15.0938 8.625 15.1357 8.625 15.1875C8.625 15.2393 8.66697 15.2812 8.71875 15.2812Z" fill="white"/>
<path d="M9.09375 15.2812C9.14553 15.2812 9.1875 15.2393 9.1875 15.1875C9.1875 15.1357 9.14553 15.0938 9.09375 15.0938C9.04197 15.0938 9 15.1357 9 15.1875C9 15.2393 9.04197 15.2812 9.09375 15.2812Z" fill="white"/>
<path d="M7.03125 15.5156C7.08303 15.5156 7.125 15.4737 7.125 15.4219C7.125 15.3701 7.08303 15.3281 7.03125 15.3281C6.97947 15.3281 6.9375 15.3701 6.9375 15.4219C6.9375 15.4737 6.97947 15.5156 7.03125 15.5156Z" fill="white"/>
<path d="M6.84375 15.75C6.89553 15.75 6.9375 15.708 6.9375 15.6563C6.9375 15.6045 6.89553 15.5625 6.84375 15.5625C6.79197 15.5625 6.75 15.6045 6.75 15.6563C6.75 15.708 6.79197 15.75 6.84375 15.75Z" fill="white"/>
<path d="M7.21875 15.75C7.27053 15.75 7.3125 15.708 7.3125 15.6563C7.3125 15.6045 7.27053 15.5625 7.21875 15.5625C7.16697 15.5625 7.125 15.6045 7.125 15.6563C7.125 15.708 7.16697 15.75 7.21875 15.75Z" fill="white"/>
<path d="M6.84375 15.2812C6.89553 15.2812 6.9375 15.2393 6.9375 15.1875C6.9375 15.1357 6.89553 15.0938 6.84375 15.0938C6.79197 15.0938 6.75 15.1357 6.75 15.1875C6.75 15.2393 6.79197 15.2812 6.84375 15.2812Z" fill="white"/>
<path d="M7.21875 15.2812C7.27053 15.2812 7.3125 15.2393 7.3125 15.1875C7.3125 15.1357 7.27053 15.0938 7.21875 15.0938C7.16697 15.0938 7.125 15.1357 7.125 15.1875C7.125 15.2393 7.16697 15.2812 7.21875 15.2812Z" fill="white"/>
<path d="M7.96875 16.6875C8.02053 16.6875 8.0625 16.6455 8.0625 16.5938C8.0625 16.542 8.02053 16.5 7.96875 16.5C7.91697 16.5 7.875 16.542 7.875 16.5938C7.875 16.6455 7.91697 16.6875 7.96875 16.6875Z" fill="white"/>
<path d="M7.78125 16.9219C7.83303 16.9219 7.875 16.8799 7.875 16.8281C7.875 16.7763 7.83303 16.7344 7.78125 16.7344C7.72947 16.7344 7.6875 16.7763 7.6875 16.8281C7.6875 16.8799 7.72947 16.9219 7.78125 16.9219Z" fill="white"/>
<path d="M8.15625 16.9219C8.20803 16.9219 8.25 16.8799 8.25 16.8281C8.25 16.7763 8.20803 16.7344 8.15625 16.7344C8.10447 16.7344 8.0625 16.7763 8.0625 16.8281C8.0625 16.8799 8.10447 16.9219 8.15625 16.9219Z" fill="white"/>
<path d="M7.78125 16.4531C7.83303 16.4531 7.875 16.4112 7.875 16.3594C7.875 16.3076 7.83303 16.2656 7.78125 16.2656C7.72947 16.2656 7.6875 16.3076 7.6875 16.3594C7.6875 16.4112 7.72947 16.4531 7.78125 16.4531Z" fill="white"/>
<path d="M8.15625 16.4531C8.20803 16.4531 8.25 16.4112 8.25 16.3594C8.25 16.3076 8.20803 16.2656 8.15625 16.2656C8.10447 16.2656 8.0625 16.3076 8.0625 16.3594C8.0625 16.4112 8.10447 16.4531 8.15625 16.4531Z" fill="white"/>
<path d="M7.5 13.125H8.4375L8.34375 12.6562V12.1875H8.4375V11.9531H8.29688V12.0937H8.25V11.9531H8.10937V12.0937H8.01563V11.9531H7.92187V12.0937H7.82813V11.9531H7.6875V12.0937H7.59375V11.9531H7.5V12.1875H7.59375V12.6562L7.5 13.125Z" fill="#FFE62E"/>
<path d="M8.10937 13.125H8.0625V12.9375C8.0625 12.8906 8.01563 12.8437 7.96875 12.8437C7.92188 12.8437 7.875 12.8906 7.875 12.9375V13.125H7.82813V12.9375C7.82813 12.8437 7.875 12.7969 7.96875 12.7969C8.0625 12.7969 8.10937 12.8437 8.10937 12.9375V13.125ZM7.96875 12.6094H7.6875V12.375C7.6875 12.2812 7.73438 12.2344 7.82813 12.2344C7.92188 12.2344 7.96875 12.2812 7.96875 12.375V12.6094ZM7.73438 12.5625H7.92188V12.375C7.92188 12.3281 7.875 12.2813 7.82813 12.2813C7.78125 12.2813 7.73438 12.3281 7.73438 12.375V12.5625ZM8.25 12.6094H7.96875V12.375C7.96875 12.2812 8.01562 12.2344 8.10937 12.2344C8.20312 12.2344 8.25 12.2812 8.25 12.375V12.6094ZM8.01563 12.5625H8.20313V12.375C8.20313 12.3281 8.15625 12.2813 8.10937 12.2813C8.0625 12.2813 8.01563 12.3281 8.01563 12.375V12.5625Z" fill="#3E4347"/>
<path d="M5.15625 13.125H6.09375L6 12.6562V12.1875H6.09375V11.9531H5.95312V12.0937H5.90625V11.9531H5.76563V12.0937H5.67188V11.9531H5.57812V12.0937H5.48437V11.9531H5.34375V12.0937H5.25V11.9531H5.15625V12.1875H5.25V12.6562L5.15625 13.125Z" fill="#FFE62E"/>
<path d="M5.76563 13.125H5.71875V12.9375C5.71875 12.8906 5.67188 12.8437 5.625 12.8437C5.57813 12.8437 5.53125 12.8906 5.53125 12.9375V13.125H5.48438V12.9375C5.48438 12.8437 5.53125 12.7969 5.625 12.7969C5.71875 12.7969 5.76563 12.8437 5.76563 12.9375V13.125ZM5.625 12.6094H5.34375V12.375C5.34375 12.2812 5.39063 12.2344 5.48438 12.2344C5.57813 12.2344 5.625 12.2812 5.625 12.375V12.6094ZM5.39063 12.5625H5.57812V12.375C5.57812 12.3281 5.53125 12.2813 5.48438 12.2813C5.4375 12.2813 5.39063 12.3281 5.39063 12.375V12.5625Z" fill="#3E4347"/>
<path d="M5.90625 12.6094H5.625V12.375C5.625 12.2812 5.67188 12.2344 5.76563 12.2344C5.85938 12.2344 5.90625 12.2812 5.90625 12.375V12.6094ZM5.67188 12.5625H5.85938V12.375C5.85938 12.3281 5.8125 12.2813 5.76563 12.2813C5.71875 12.2813 5.67188 12.3281 5.67188 12.375V12.5625Z" fill="#3E4347"/>
<path d="M5.15625 15.8906H6.09375L6 15.4219V14.9531H6.09375V14.7188H6V14.8594H5.90625V14.7188H5.8125V14.8594H5.67188V14.7188H5.57812V14.8594H5.48437V14.7188H5.39062V14.8594H5.29688V14.7188H5.15625V14.9531H5.29688V15.4219L5.15625 15.8906Z" fill="#FFE62E"/>
<path d="M5.76563 15.8906H5.71875V15.7031C5.71875 15.6562 5.67188 15.6094 5.625 15.6094C5.57813 15.6094 5.53125 15.6562 5.53125 15.7031V15.8906H5.48438V15.7031C5.48438 15.6094 5.53125 15.5625 5.625 15.5625C5.71875 15.5625 5.76563 15.6094 5.76563 15.7031V15.8906ZM5.625 15.375H5.34375V15.1406C5.34375 15.0469 5.39063 15 5.48438 15C5.57813 15 5.625 15.0469 5.625 15.1406V15.375ZM5.39063 15.3281H5.57813V15.1406C5.57813 15.0937 5.53125 15.0469 5.48438 15.0469C5.4375 15.0469 5.39063 15.0937 5.39063 15.1406V15.3281ZM5.95313 15.375H5.67188V15.1406C5.67188 15.0469 5.71875 15 5.8125 15C5.90625 15 5.95313 15.0469 5.95313 15.1406V15.375ZM5.71875 15.3281H5.90625V15.1406C5.90625 15.0937 5.85938 15.0469 5.8125 15.0469C5.76563 15.0469 5.71875 15.0937 5.71875 15.1406V15.3281Z" fill="#3E4347"/>
<path d="M9.84375 15.9375H10.7812L10.6875 15.4687V15H10.7812V14.8125H10.6406V14.9062H10.5938V14.8125H10.4531V14.9062H10.3594V14.8125H10.2656V14.9062H10.1719V14.8125H10.0312V14.9062H9.9375V14.8125H9.84375V15H9.9375V15.4687L9.84375 15.9375Z" fill="#FFE62E"/>
<path d="M10.4531 15.9375H10.4063V15.75C10.4063 15.7031 10.3594 15.6563 10.3125 15.6563C10.2656 15.6563 10.2187 15.7031 10.2187 15.75V15.9375H10.1719V15.75C10.1719 15.6562 10.2188 15.6094 10.3125 15.6094C10.4063 15.6094 10.4531 15.6562 10.4531 15.75V15.9375ZM10.3125 15.4219H10.0312V15.1875C10.0312 15.0938 10.0781 15.0469 10.1719 15.0469C10.2656 15.0469 10.3125 15.0938 10.3125 15.1875V15.4219ZM10.0781 15.375H10.2656V15.1875C10.2656 15.1406 10.2188 15.0938 10.1719 15.0938C10.125 15.0938 10.0781 15.1406 10.0781 15.1875V15.375ZM10.5938 15.4219H10.3125V15.1875C10.3125 15.0938 10.3594 15.0469 10.4531 15.0469C10.5469 15.0469 10.5938 15.0938 10.5938 15.1875V15.4219ZM10.3594 15.375H10.5469V15.1875C10.5469 15.1406 10.5 15.0938 10.4531 15.0938C10.4062 15.0938 10.3594 15.1406 10.3594 15.1875V15.375Z" fill="#3E4347"/>
<path d="M9.84375 13.125H10.7812L10.6875 12.6562V12.1875H10.7812V11.9531H10.6406V12.0937H10.5938V11.9531H10.4531V12.0937H10.3594V11.9531H10.2656V12.0937H10.1719V11.9531H10.0312V12.0937H9.9375V11.9531H9.84375V12.1875H9.9375V12.6562L9.84375 13.125Z" fill="#FFE62E"/>
<path d="M10.4531 13.125H10.4063V12.9375C10.4063 12.8906 10.3594 12.8437 10.3125 12.8437C10.2656 12.8437 10.2187 12.8906 10.2187 12.9375V13.125H10.1719V12.9375C10.1719 12.8437 10.2188 12.7969 10.3125 12.7969C10.4063 12.7969 10.4531 12.8437 10.4531 12.9375V13.125ZM10.3125 12.6094H10.0312V12.375C10.0312 12.2812 10.0781 12.2344 10.1719 12.2344C10.2656 12.2344 10.3125 12.2812 10.3125 12.375V12.6094ZM10.0781 12.5625H10.2656V12.375C10.2656 12.3281 10.2188 12.2813 10.1719 12.2813C10.125 12.2813 10.0781 12.3281 10.0781 12.375V12.5625ZM10.5938 12.6094H10.3125V12.375C10.3125 12.2812 10.3594 12.2344 10.4531 12.2344C10.5469 12.2344 10.5938 12.2812 10.5938 12.375V12.6094ZM10.3594 12.5625H10.5469V12.375C10.5469 12.3281 10.5 12.2813 10.4531 12.2813C10.4062 12.2813 10.3594 12.3281 10.3594 12.375V12.5625Z" fill="#3E4347"/>
<path d="M6.65625 18.5625L7.3125 17.8594L6.89062 17.625L6.5625 17.2969L6.65625 17.2031L6.51562 17.0625L6.42187 17.1562L6.51562 17.25L6.46875 17.2969L6.375 17.2031L6.28125 17.2969L6.375 17.3437L6.28125 17.4375L6.23438 17.3437L6.14063 17.4375L6.23438 17.5312L6.14063 17.5781L6.09375 17.4844L6 17.5781L6.04687 17.6719L6 17.7187L5.95312 17.625L5.85938 17.7187L6 17.8594H6.04687L6.09375 17.8125L6.42187 18.1406L6.65625 18.5625Z" fill="#FFE62E"/>
<path d="M6.89008 18C6.8432 17.9531 6.79633 17.9531 6.74945 18C6.70258 18.0469 6.70258 18.0938 6.74945 18.1406L6.89008 18.2813L6.8432 18.3281L6.70258 18.1875C6.6557 18.1406 6.6557 18.0469 6.70258 18C6.74945 17.9531 6.8432 17.9531 6.89008 18ZM6.60883 17.8594L6.42133 18.0469L6.2807 17.9063C6.23383 17.8594 6.23383 17.7656 6.2807 17.7187C6.32758 17.6719 6.42133 17.6719 6.4682 17.7187L6.60883 17.8594ZM6.42133 18L6.56195 17.8594L6.42133 17.7187C6.37445 17.6719 6.32758 17.6719 6.2807 17.7187C6.21039 17.7891 6.23383 17.8125 6.2807 17.8594L6.42133 18ZM6.8432 17.625L6.6557 17.8125L6.51508 17.6719C6.4682 17.625 6.4682 17.5313 6.51508 17.4844C6.56195 17.4375 6.6557 17.4375 6.70258 17.4844L6.8432 17.625ZM6.6557 17.7656L6.79633 17.625L6.6557 17.4844C6.60883 17.4375 6.56195 17.4375 6.51508 17.4844C6.44477 17.5547 6.4682 17.5781 6.51508 17.625L6.6557 17.7656Z" fill="#3E4347"/>
<path d="M9.28125 18.5625L8.625 17.8594L9 17.625L9.32813 17.2969L9.28125 17.2031L9.42188 17.0625L9.51562 17.1562L9.42188 17.25L9.46875 17.2969L9.5625 17.2031L9.65625 17.2969L9.5625 17.3437L9.65625 17.4375L9.70313 17.3437L9.79688 17.4375L9.70313 17.5312L9.79688 17.5781L9.84375 17.4844L9.9375 17.5781L9.84375 17.6719L9.9375 17.7187L9.98437 17.625L10.0781 17.7187L9.9375 17.8594H9.89063L9.84375 17.8125L9.51562 18.1406L9.28125 18.5625Z" fill="#FFE62E"/>
<path d="M8.85938 18.0937L9.04687 18C9.09375 17.9531 9.14063 17.9531 9.1875 18C9.25781 18.0703 9.23438 18.0938 9.1875 18.1406L9 18.2813L9.04687 18.3281L9.1875 18.1875C9.23438 18.1406 9.23438 18.0469 9.1875 18C9.14063 17.9531 9.04688 17.9531 9 18L8.85938 18.0937ZM9.46875 17.7187C9.51563 17.6719 9.60938 17.6719 9.65625 17.7187C9.70313 17.7656 9.70313 17.8594 9.65625 17.9063L9.51562 18.0469L9.32812 17.8594L9.46875 17.7187ZM9.60938 17.8594C9.65625 17.8125 9.65625 17.7656 9.60938 17.7187C9.5625 17.6719 9.51563 17.6719 9.46875 17.7187L9.375 17.8594L9.51562 18L9.60938 17.8594ZM9.23438 17.4844C9.28125 17.4375 9.375 17.4375 9.42188 17.4844C9.46875 17.5313 9.46875 17.625 9.42188 17.6719L9.28125 17.8125L9.09375 17.625L9.23438 17.4844ZM9.42188 17.625C9.46875 17.5781 9.46875 17.5313 9.42188 17.4844C9.375 17.4375 9.32812 17.4375 9.28125 17.4844L9.14063 17.625L9.28125 17.7656L9.42188 17.625Z" fill="#3E4347"/>
</g>
<defs>
<clipPath id="clip0_763_377">
<rect width="30" height="30" fill="white"/>
</clipPath>
</defs>
</svg>
