<svg width="30" height="30" viewBox="0 0 30 30" fill="none" xmlns="http://www.w3.org/2000/svg">
<g clip-path="url(#clip0_763_357)">
<path d="M15 29.0625C22.7665 29.0625 29.0625 22.7665 29.0625 15C29.0625 7.2335 22.7665 0.9375 15 0.9375C7.2335 0.9375 0.9375 7.2335 0.9375 15C0.9375 22.7665 7.2335 29.0625 15 29.0625Z" fill="#ED4C5C"/>
<path d="M19.3594 18.2812L19.4063 15.75L16.875 15L19.4063 14.25L19.3594 11.7188L20.9062 13.7344L23.4375 12.9844L21.8906 15L23.4375 17.0156L20.9062 16.2656L19.3594 18.2812Z" fill="white"/>
<path d="M15.5625 20.625C12.4688 20.625 9.98437 18.0937 9.98437 15C9.98437 11.9063 12.4688 9.375 15.5625 9.375C16.7344 9.375 17.8125 9.75 18.75 10.3594C17.4844 8.90625 15.6094 7.96875 13.5 7.96875C9.65625 7.96875 6.5625 11.1094 6.5625 15C6.5625 18.8906 9.65625 22.0312 13.5 22.0312C15.6094 22.0312 17.4844 21.0938 18.75 19.6406C17.8594 20.25 16.7813 20.625 15.5625 20.625Z" fill="white"/>
</g>
<defs>
<clipPath id="clip0_763_357">
<rect width="30" height="30" fill="white"/>
</clipPath>
</defs>
</svg>
